<?xml version="1.0" encoding="UTF-8"?>
<svg width="13141" height="3690" version="1.1" viewBox="0 0 13141 3690" xmlns="http://www.w3.org/2000/svg">
 <g transform="translate(.00091055 .00031992)">
  <path d="m908.02 369.66-712.79 411.53c-120.8 69.752-195.22 198.65-195.22 338.14v1451.4c0 139.49 74.417 268.38 195.21 338.13l357.92 206.65 970.08-1680.2zm-297.5 677.03c73.284-1.904 145.28 35.328 184.51 103.28l153.62 266.07-430.54 745.72c-16.081 27.854-51.7 37.392-79.554 21.31-18.695-10.779-29.137-30.353-29.137-50.479v-879.1c0-71.418 37.057-140.88 103.35-179.16 30.886-17.833 64.47-26.779 97.781-27.645z" color="#000000" fill="#00a3e0"/>
  <path d="m744.88 3226.2 712.79 411.53c120.81 69.739 269.64 69.739 390.45 0l1256.9-725.68c120.79-69.752 195.22-198.64 195.22-338.12l0.01-413.3h-1940.2zm735.07-80.873c-38.292-62.513-42.043-143.48-2.811-211.43l153.61-266.08h861.08c32.162 0 58.232 26.077 58.232 58.24 0 21.58-11.717 40.41-29.148 50.474l-761.31 439.57c-61.85 35.709-140.54 38.348-206.83 0.1-30.887-17.832-55.426-42.444-72.831-70.859z" color="#000000" fill="#00a3e0"/>
  <path d="m3300.3 1939.2 0.01-823.06c0-139.49-74.425-268.39-195.22-338.14l-1256.9-725.68c-120.8-69.733-269.63-69.744-390.43-3e-3l-357.93 206.64 970.08 1680.2zm-437.57-596.15c-34.993 64.418-103.23 108.15-181.7 108.15h-307.24l-430.55-745.72c-16.081-27.853-6.532-63.47 21.322-79.551 18.683-10.801 40.855-10.057 58.285 0l761.34 439.53c61.85 35.709 103.48 102.53 103.48 179.08 0 35.665-9.044 69.222-24.95 98.503z" color="#000000" fill="#00a3e0"/>
  <circle cx="1651.1" cy="1845" r="208.78" stop-color="#000000"/>
  <g>
   <path d="m5858.3 1080.4c-403.2 0-562.46 100.8-562.46 100.8l-33.944-58.8h-831.6v1369.2h978.6v-767.76s-1.633-75.6 79.8-75.6 79.8 75.6 79.8 75.6v767.76h978.6v-776.16s-1.633-75.6 79.8-75.6 79.8 75.6 79.8 75.6v776.16h974.4v-1008c0-252-201.09-403.2-697.2-403.2-478.8 0-592.2 126-592.2 126s-106.27-126-533.4-126zm16.8 114.24c189 0 332.34 13.333 512.4 169.68 203.7-156.24 357-169.68 609-169.68 327.6 0 558.6 72.805 558.6 342.72v840h-705.6v-712.32s-4.255-131.04-222.6-131.04c-218.34 0-222.6 131.04-222.6 131.04v712.32h-693v-712.32s-4.255-131.04-222.6-131.04c-218.35 0-222.6 151.2-222.6 151.2v692.16h-693v-1140.7h583.8l25.2 156.24c226.8-151.2 390.6-198.24 693-198.24z"/>
   <path d="m9109.1 820v294h-1276.8v1377.6h999.6v-873.6h277.2v470.4c0 150.8 72.453 411.6 601.65 411.6h376.95c705.6 0 802.2-260.8 802.2-411.6v-319.2h-688.8v142.8c0 42-42 42-42 42s-42 0-42-42v-327.6h705.6v-487.2h-705.6v-277.2zm142.77 114.24h722.43v277.2h705.6v258.72h-705.6v441.84c0 176.4 184.8 176.4 184.8 176.4s184.8 0 184.8-176.4v-28.56h403.2v204.96s0 297.36-659.4 297.36h-376.95c-458.85 0-458.85-297.36-458.85-297.36v-584.64h-562.8v873.6h-714v-1149.1h1276.8z"/>
   <rect x="7832.3" y="828.4" width="999.6" height="226.8" stop-color="#000000"/>
   <path d="m11763 1038.4c-823.2 0-823.2 359.09-823.2 495.6 0 369.81 352.99 420 705.6 420h365.4c88.2 0 88.2 42 88.2 42s0 33.6-88.2 33.6c-55.673 0.24-121.8-42-121.8-42h-966v151.2s-13.283 352.8 722.4 352.8h529.2c650.01 0 966-100.8 966-537.6 0-420-381.49-420-705.6-420h-403.2c-88.2 0-88.2-42-88.2-42s0-33.6 88.2-33.6c55.673-0.24 121.8 42 121.8 42h919.8v-151.2s0.1-310.8-680.4-310.8zm0 117.6h630c312.27 0 431.75 66.807 484.79 115.26 53.036 48.459 48.612 77.911 48.612 77.911v33.613h-728.7s-50.231-41.987-168-41.987-233.1 42.226-233.1 151.2c0 108.97 94.5 159.6 235.2 159.6h403.2c428.4 0 558.6 73.09 558.6 302.39 0 406.3-436.33 419.98-819 419.98h-529.2c-243.6 0-575.42-38.64-575.4-268.8h774.92s52.22 41.974 166.06 41.974c113.84 0 235.06-3.498 235.06-151.17 0-147.68-84.019-159.6-235.22-159.6h-365.42c-167.59 0-322.05-15.85-413.67-56.543-91.613-40.691-144.93-90.886-144.93-245.86 0-68.256 2.974-155.2 72.335-227.22 69.362-72.014 218.98-150.78 603.86-150.78z"/>
  </g>
 </g>
</svg>
