<svg width="13141" height="3690" viewBox="0 0 13141 3690" fill="none" xmlns="http://www.w3.org/2000/svg">
<path d="M908.01 369.644L195.22 781.174C74.42 850.926 0 979.824 0 1119.31V2570.71C0 2710.2 74.417 2839.09 195.21 2908.84L553.13 3115.49L1523.21 1435.29L908.01 369.644ZM610.51 1046.67C683.794 1044.77 755.79 1082 795.02 1149.95L948.64 1416.02L518.1 2161.74C502.019 2189.6 466.4 2199.14 438.546 2183.05C419.851 2172.28 409.409 2152.7 409.409 2132.58V1253.48C409.409 1182.06 446.466 1112.6 512.759 1074.32C543.645 1056.48 577.229 1047.54 610.54 1046.67L610.51 1046.67Z" fill="#00A3E0"/>
<path d="M744.87 3226.18L1457.66 3637.71C1578.47 3707.45 1727.3 3707.45 1848.11 3637.71L3105.01 2912.03C3225.8 2842.28 3300.23 2713.39 3300.23 2573.91L3300.24 2160.61H1360.04L744.87 3226.18ZM1479.94 3145.31C1441.65 3082.8 1437.9 3001.83 1477.13 2933.88L1630.74 2667.8H2491.82C2523.98 2667.8 2550.05 2693.88 2550.05 2726.04C2550.05 2747.62 2538.33 2766.45 2520.9 2776.52L1759.59 3216.09C1697.74 3251.79 1619.05 3254.43 1552.76 3216.19C1521.88 3198.35 1497.34 3173.74 1479.93 3145.33L1479.94 3145.31Z" fill="#00A3E0"/>
<path d="M3300.29 1939.18L3300.3 1116.12C3300.3 976.634 3225.87 847.734 3105.08 777.984L1848.18 52.3042C1727.38 -17.4288 1578.55 -17.4397 1457.75 52.3013L1099.82 258.941L2069.9 1939.14L3300.29 1939.18ZM2862.72 1343.03C2827.73 1407.45 2759.49 1451.18 2681.02 1451.18H2373.78L1943.23 705.464C1927.15 677.611 1936.7 641.994 1964.55 625.913C1983.23 615.112 2005.41 615.856 2022.84 625.913L2784.18 1065.44C2846.03 1101.15 2887.66 1167.97 2887.66 1244.52C2887.66 1280.19 2878.61 1313.75 2862.71 1343.03L2862.72 1343.03Z" fill="#00A3E0"/>
<path d="M1651.09 2053.76C1766.4 2053.76 1859.87 1960.29 1859.87 1844.98C1859.87 1729.68 1766.4 1636.2 1651.09 1636.2C1535.78 1636.2 1442.31 1729.68 1442.31 1844.98C1442.31 1960.29 1535.78 2053.76 1651.09 2053.76Z" fill="white"/>
<path d="M5858.29 1080.38C5455.09 1080.38 5295.83 1181.18 5295.83 1181.18L5261.89 1122.38H4430.29V2491.58H5408.89V1723.82C5408.89 1723.82 5407.25 1648.22 5488.69 1648.22C5570.12 1648.22 5568.49 1723.82 5568.49 1723.82V2491.58H6547.09V1715.42C6547.09 1715.42 6545.45 1639.82 6626.89 1639.82C6708.32 1639.82 6706.69 1715.42 6706.69 1715.42V2491.58H7681.09V1483.58C7681.09 1231.58 7480 1080.38 6983.89 1080.38C6505.09 1080.38 6391.69 1206.38 6391.69 1206.38C6391.69 1206.38 6285.42 1080.38 5858.29 1080.38H5858.29ZM5875.09 1194.62C6064.09 1194.62 6207.43 1207.96 6387.49 1364.3C6591.19 1208.06 6744.49 1194.62 6996.49 1194.62C7324.09 1194.62 7555.09 1267.43 7555.09 1537.34V2377.34H6849.49V1665.02C6849.49 1665.02 6845.24 1533.98 6626.89 1533.98C6408.55 1533.98 6404.29 1665.02 6404.29 1665.02V2377.34H5711.29V1665.02C5711.29 1665.02 5707.04 1533.98 5488.69 1533.98C5270.34 1533.98 5266.09 1685.18 5266.09 1685.18V2377.34H4573.09V1236.64H5156.89L5182.09 1392.88C5408.89 1241.68 5572.69 1194.64 5875.09 1194.64V1194.62Z" fill="white"/>
<path d="M9109.09 819.984V1113.98H7832.29V2491.58H8831.89V1617.98H9109.09V2088.38C9109.09 2239.18 9181.54 2499.98 9710.74 2499.98H10087.7C10793.3 2499.98 10889.9 2239.18 10889.9 2088.38V1769.18H10201.1V1911.98C10201.1 1953.98 10159.1 1953.98 10159.1 1953.98C10159.1 1953.98 10117.1 1953.98 10117.1 1911.98V1584.38H10822.7V1097.18H10117.1V819.984H9109.09ZM9251.86 934.224H9974.29V1211.42H10679.9V1470.14H9974.29V1911.98C9974.29 2088.38 10159.1 2088.38 10159.1 2088.38C10159.1 2088.38 10343.9 2088.38 10343.9 1911.98V1883.42H10747.1V2088.38C10747.1 2088.38 10747.1 2385.74 10087.7 2385.74H9710.74C9251.89 2385.74 9251.89 2088.38 9251.89 2088.38V1503.74H8689.09V2377.34H7975.09V1228.24H9251.89L9251.86 934.224Z" fill="white"/>
<path d="M8831.89 828.384H7832.29V1055.18H8831.89V828.384Z" fill="white"/>
<path d="M11763 1038.38C10939.8 1038.38 10939.8 1397.47 10939.8 1533.98C10939.8 1903.79 11292.8 1953.98 11645.4 1953.98H12010.8C12099 1953.98 12099 1995.98 12099 1995.98C12099 1995.98 12099 2029.58 12010.8 2029.58C11955.1 2029.82 11889 1987.58 11889 1987.58H10923V2138.78C10923 2138.78 10909.7 2491.58 11645.4 2491.58H12174.6C12824.6 2491.58 13140.6 2390.78 13140.6 1953.98C13140.6 1533.98 12759.1 1533.98 12435 1533.98H12031.8C11943.6 1533.98 11943.6 1491.98 11943.6 1491.98C11943.6 1491.98 11943.6 1458.38 12031.8 1458.38C12087.5 1458.14 12153.6 1500.38 12153.6 1500.38H13073.4V1349.18C13073.4 1349.18 13073.5 1038.38 12393 1038.38H11763ZM11763 1155.98H12393C12705.3 1155.98 12824.7 1222.79 12877.8 1271.24C12930.8 1319.7 12926.4 1349.16 12926.4 1349.16V1382.77H12197.7C12197.7 1382.77 12147.5 1340.78 12029.7 1340.78C11911.9 1340.78 11796.6 1383.01 11796.6 1491.98C11796.6 1600.95 11891.1 1651.58 12031.8 1651.58H12435C12863.4 1651.58 12993.6 1724.67 12993.6 1953.97C12993.6 2360.27 12557.3 2373.95 12174.6 2373.95H11645.4C11401.8 2373.95 11070 2335.31 11070 2105.15H11844.9C11844.9 2105.15 11897.1 2147.13 12011 2147.13C12124.8 2147.13 12246 2143.63 12246 1995.96C12246 1848.28 12162 1836.36 12010.8 1836.36H11645.4C11477.8 1836.36 11323.3 1820.51 11231.7 1779.81C11140.1 1739.12 11086.8 1688.93 11086.8 1533.95C11086.8 1465.7 11089.8 1378.75 11159.1 1306.73C11228.5 1234.72 11378.1 1155.95 11763 1155.95L11763 1155.98Z" fill="white"/>
</svg>

