%TF.GenerationSoftware,KiCad,Pcbnew,9.0.6*%
%TF.CreationDate,2025-11-28T00:07:05-05:00*%
%TF.ProjectId,AltairDrive,416c7461-6972-4447-9269-76652e6b6963,rev?*%
%TF.SameCoordinates,Original*%
%TF.FileFunction,Copper,L2,Inr*%
%TF.FilePolarity,Positive*%
%FSLAX46Y46*%
G04 Gerber Fmt 4.6, Leading zero omitted, Abs format (unit mm)*
G04 Created by KiCad (PCBNEW 9.0.6) date 2025-11-28 00:07:05*
%MOMM*%
%LPD*%
G01*
G04 APERTURE LIST*
%TA.AperFunction,ComponentPad*%
%ADD10C,3.000000*%
%TD*%
%TA.AperFunction,ComponentPad*%
%ADD11R,1.800000X1.800000*%
%TD*%
%TA.AperFunction,ComponentPad*%
%ADD12C,1.800000*%
%TD*%
%TA.AperFunction,ComponentPad*%
%ADD13C,3.500000*%
%TD*%
G04 APERTURE END LIST*
D10*
%TO.N,Net-(J1-Pin_31)*%
%TO.C,R10*%
X222690000Y-106440000D03*
%TO.N,Net-(D10-A)*%
X222690000Y-117840000D03*
%TD*%
%TO.N,Net-(D11-A)*%
%TO.C,R11*%
X237690000Y-117840000D03*
%TO.N,Net-(J1-Pin_29)*%
X237690000Y-106440000D03*
%TD*%
%TO.N,Net-(J1-Pin_23)*%
%TO.C,R12*%
X252690000Y-106440000D03*
%TO.N,Net-(D12-A)*%
X252690000Y-117840000D03*
%TD*%
%TO.N,Net-(J1-Pin_21)*%
%TO.C,R13*%
X222690000Y-67680000D03*
%TO.N,Net-(D13-A)*%
X222690000Y-79080000D03*
%TD*%
%TO.N,Net-(D14-A)*%
%TO.C,R14*%
X237690000Y-78780000D03*
%TO.N,Net-(J1-Pin_19)*%
X237690000Y-67380000D03*
%TD*%
%TO.N,Net-(D15-A)*%
%TO.C,R15*%
X252690000Y-78780000D03*
%TO.N,Net-(J1-Pin_15)*%
X252690000Y-67380000D03*
%TD*%
D11*
%TO.N,Net-(D1-K)*%
%TO.C,D10*%
X222690000Y-128640000D03*
D12*
%TO.N,Net-(D10-A)*%
X222690000Y-126100000D03*
%TD*%
D11*
%TO.N,Net-(D1-K)*%
%TO.C,D11*%
X237690000Y-128640000D03*
D12*
%TO.N,Net-(D11-A)*%
X237690000Y-126100000D03*
%TD*%
D11*
%TO.N,Net-(D1-K)*%
%TO.C,D12*%
X252690000Y-128640000D03*
D12*
%TO.N,Net-(D12-A)*%
X252690000Y-126100000D03*
%TD*%
D11*
%TO.N,Net-(D1-K)*%
%TO.C,D13*%
X222690000Y-88640000D03*
D12*
%TO.N,Net-(D13-A)*%
X222690000Y-86100000D03*
%TD*%
D11*
%TO.N,Net-(D1-K)*%
%TO.C,D14*%
X237690000Y-88640000D03*
D12*
%TO.N,Net-(D14-A)*%
X237690000Y-86100000D03*
%TD*%
%TO.N,Net-(D15-A)*%
%TO.C,D15*%
X252690000Y-86100000D03*
D11*
%TO.N,Net-(D1-K)*%
X252690000Y-88640000D03*
%TD*%
D13*
%TO.N,Net-(J3-Pin_1)*%
%TO.C,SW2*%
X73270000Y-82670000D03*
%TO.N,Net-(J3-Pin_2)*%
X73270000Y-87370000D03*
%TO.N,Net-(J3-Pin_3)*%
X73270000Y-92070000D03*
%TD*%
%TO.N,Net-(J1-Pin_13)*%
%TO.C,SW3*%
X88260000Y-82640000D03*
%TO.N,Net-(D1-K)*%
X88260000Y-87340000D03*
%TO.N,Net-(J1-Pin_11)*%
X88260000Y-92040000D03*
%TD*%
D12*
%TO.N,Net-(D17-A)*%
%TO.C,D17*%
X112690000Y-86100000D03*
D11*
%TO.N,Net-(D1-K)*%
X112690000Y-88640000D03*
%TD*%
D10*
%TO.N,Net-(D17-A)*%
%TO.C,R17*%
X125870000Y-81530000D03*
%TO.N,Net-(J1-Pin_40)*%
X137270000Y-81530000D03*
%TD*%
D12*
%TO.N,Net-(D1-A)*%
%TO.C,D1*%
X58190000Y-126100000D03*
D11*
%TO.N,Net-(D1-K)*%
X58190000Y-128640000D03*
%TD*%
D10*
%TO.N,Net-(J1-Pin_22)*%
%TO.C,R16*%
X58180000Y-66710000D03*
%TO.N,Net-(D16-A)*%
X58180000Y-78110000D03*
%TD*%
D11*
%TO.N,Net-(D1-K)*%
%TO.C,D16*%
X58190000Y-88640000D03*
D12*
%TO.N,Net-(D16-A)*%
X58190000Y-86100000D03*
%TD*%
D10*
%TO.N,Net-(D6-A)*%
%TO.C,R6*%
X142690000Y-117840000D03*
%TO.N,Net-(J1-Pin_38)*%
X142690000Y-106440000D03*
%TD*%
D12*
%TO.N,Net-(D6-A)*%
%TO.C,D6*%
X142690000Y-126100000D03*
D11*
%TO.N,Net-(D1-K)*%
X142690000Y-128640000D03*
%TD*%
%TO.N,Net-(D1-K)*%
%TO.C,D3*%
X88190000Y-128640000D03*
D12*
%TO.N,Net-(D3-A)*%
X88190000Y-126100000D03*
%TD*%
D11*
%TO.N,Net-(D1-K)*%
%TO.C,D8*%
X182690000Y-128640000D03*
D12*
%TO.N,Net-(D8-A)*%
X182690000Y-126100000D03*
%TD*%
D11*
%TO.N,Net-(D1-K)*%
%TO.C,D9*%
X197690000Y-128640000D03*
D12*
%TO.N,Net-(D9-A)*%
X197690000Y-126100000D03*
%TD*%
D11*
%TO.N,Net-(D1-K)*%
%TO.C,D4*%
X112690000Y-128640000D03*
D12*
%TO.N,Net-(D4-A)*%
X112690000Y-126100000D03*
%TD*%
D11*
%TO.N,Net-(D1-K)*%
%TO.C,D7*%
X167690000Y-128640000D03*
D12*
%TO.N,Net-(D7-A)*%
X167690000Y-126100000D03*
%TD*%
D11*
%TO.N,Net-(D1-K)*%
%TO.C,D2*%
X73190000Y-128640000D03*
D12*
%TO.N,Net-(D2-A)*%
X73190000Y-126100000D03*
%TD*%
%TO.N,Net-(D5-A)*%
%TO.C,D5*%
X127690000Y-126100000D03*
D11*
%TO.N,Net-(D1-K)*%
X127690000Y-128640000D03*
%TD*%
D10*
%TO.N,Net-(J1-Pin_16)*%
%TO.C,R2*%
X73190000Y-106440000D03*
%TO.N,Net-(D2-A)*%
X73190000Y-117840000D03*
%TD*%
%TO.N,Net-(J1-Pin_18)*%
%TO.C,R3*%
X88190000Y-106440000D03*
%TO.N,Net-(D3-A)*%
X88190000Y-117840000D03*
%TD*%
%TO.N,Net-(J1-Pin_33)*%
%TO.C,R9*%
X197690000Y-106440000D03*
%TO.N,Net-(D9-A)*%
X197690000Y-117840000D03*
%TD*%
%TO.N,Net-(J1-Pin_35)*%
%TO.C,R8*%
X182690000Y-106440000D03*
%TO.N,Net-(D8-A)*%
X182690000Y-117840000D03*
%TD*%
%TO.N,Net-(J1-Pin_37)*%
%TO.C,R7*%
X167690000Y-106440000D03*
%TO.N,Net-(D7-A)*%
X167690000Y-117840000D03*
%TD*%
%TO.N,Net-(J1-Pin_36)*%
%TO.C,R5*%
X127690000Y-106440000D03*
%TO.N,Net-(D5-A)*%
X127690000Y-117840000D03*
%TD*%
%TO.N,Net-(J1-Pin_32)*%
%TO.C,R4*%
X112690000Y-106440000D03*
%TO.N,Net-(D4-A)*%
X112690000Y-117840000D03*
%TD*%
%TO.N,Net-(J1-Pin_12)*%
%TO.C,R1*%
X58170000Y-106400000D03*
%TO.N,Net-(D1-A)*%
X58170000Y-117800000D03*
%TD*%
M02*
