%TF.GenerationSoftware,KiCad,Pcbnew,9.0.6*%
%TF.CreationDate,2025-11-28T12:10:43-05:00*%
%TF.ProjectId,AltairDrive,416c7461-6972-4447-9269-76652e6b6963,rev?*%
%TF.SameCoordinates,Original*%
%TF.FileFunction,Legend,Top*%
%TF.FilePolarity,Positive*%
%FSLAX46Y46*%
G04 Gerber Fmt 4.6, Leading zero omitted, Abs format (unit mm)*
G04 Created by KiCad (PCBNEW 9.0.6) date 2025-11-28 12:10:43*
%MOMM*%
%LPD*%
G01*
G04 APERTURE LIST*
%ADD10C,0.150000*%
%ADD11C,0.100000*%
%ADD12C,0.120000*%
G04 APERTURE END LIST*
D10*
X226664819Y-112782857D02*
X226188628Y-113116190D01*
X226664819Y-113354285D02*
X225664819Y-113354285D01*
X225664819Y-113354285D02*
X225664819Y-112973333D01*
X225664819Y-112973333D02*
X225712438Y-112878095D01*
X225712438Y-112878095D02*
X225760057Y-112830476D01*
X225760057Y-112830476D02*
X225855295Y-112782857D01*
X225855295Y-112782857D02*
X225998152Y-112782857D01*
X225998152Y-112782857D02*
X226093390Y-112830476D01*
X226093390Y-112830476D02*
X226141009Y-112878095D01*
X226141009Y-112878095D02*
X226188628Y-112973333D01*
X226188628Y-112973333D02*
X226188628Y-113354285D01*
X226664819Y-111830476D02*
X226664819Y-112401904D01*
X226664819Y-112116190D02*
X225664819Y-112116190D01*
X225664819Y-112116190D02*
X225807676Y-112211428D01*
X225807676Y-112211428D02*
X225902914Y-112306666D01*
X225902914Y-112306666D02*
X225950533Y-112401904D01*
X225664819Y-111211428D02*
X225664819Y-111116190D01*
X225664819Y-111116190D02*
X225712438Y-111020952D01*
X225712438Y-111020952D02*
X225760057Y-110973333D01*
X225760057Y-110973333D02*
X225855295Y-110925714D01*
X225855295Y-110925714D02*
X226045771Y-110878095D01*
X226045771Y-110878095D02*
X226283866Y-110878095D01*
X226283866Y-110878095D02*
X226474342Y-110925714D01*
X226474342Y-110925714D02*
X226569580Y-110973333D01*
X226569580Y-110973333D02*
X226617200Y-111020952D01*
X226617200Y-111020952D02*
X226664819Y-111116190D01*
X226664819Y-111116190D02*
X226664819Y-111211428D01*
X226664819Y-111211428D02*
X226617200Y-111306666D01*
X226617200Y-111306666D02*
X226569580Y-111354285D01*
X226569580Y-111354285D02*
X226474342Y-111401904D01*
X226474342Y-111401904D02*
X226283866Y-111449523D01*
X226283866Y-111449523D02*
X226045771Y-111449523D01*
X226045771Y-111449523D02*
X225855295Y-111401904D01*
X225855295Y-111401904D02*
X225760057Y-111354285D01*
X225760057Y-111354285D02*
X225712438Y-111306666D01*
X225712438Y-111306666D02*
X225664819Y-111211428D01*
X241664819Y-112782857D02*
X241188628Y-113116190D01*
X241664819Y-113354285D02*
X240664819Y-113354285D01*
X240664819Y-113354285D02*
X240664819Y-112973333D01*
X240664819Y-112973333D02*
X240712438Y-112878095D01*
X240712438Y-112878095D02*
X240760057Y-112830476D01*
X240760057Y-112830476D02*
X240855295Y-112782857D01*
X240855295Y-112782857D02*
X240998152Y-112782857D01*
X240998152Y-112782857D02*
X241093390Y-112830476D01*
X241093390Y-112830476D02*
X241141009Y-112878095D01*
X241141009Y-112878095D02*
X241188628Y-112973333D01*
X241188628Y-112973333D02*
X241188628Y-113354285D01*
X241664819Y-111830476D02*
X241664819Y-112401904D01*
X241664819Y-112116190D02*
X240664819Y-112116190D01*
X240664819Y-112116190D02*
X240807676Y-112211428D01*
X240807676Y-112211428D02*
X240902914Y-112306666D01*
X240902914Y-112306666D02*
X240950533Y-112401904D01*
X241664819Y-110878095D02*
X241664819Y-111449523D01*
X241664819Y-111163809D02*
X240664819Y-111163809D01*
X240664819Y-111163809D02*
X240807676Y-111259047D01*
X240807676Y-111259047D02*
X240902914Y-111354285D01*
X240902914Y-111354285D02*
X240950533Y-111449523D01*
X256664819Y-112782857D02*
X256188628Y-113116190D01*
X256664819Y-113354285D02*
X255664819Y-113354285D01*
X255664819Y-113354285D02*
X255664819Y-112973333D01*
X255664819Y-112973333D02*
X255712438Y-112878095D01*
X255712438Y-112878095D02*
X255760057Y-112830476D01*
X255760057Y-112830476D02*
X255855295Y-112782857D01*
X255855295Y-112782857D02*
X255998152Y-112782857D01*
X255998152Y-112782857D02*
X256093390Y-112830476D01*
X256093390Y-112830476D02*
X256141009Y-112878095D01*
X256141009Y-112878095D02*
X256188628Y-112973333D01*
X256188628Y-112973333D02*
X256188628Y-113354285D01*
X256664819Y-111830476D02*
X256664819Y-112401904D01*
X256664819Y-112116190D02*
X255664819Y-112116190D01*
X255664819Y-112116190D02*
X255807676Y-112211428D01*
X255807676Y-112211428D02*
X255902914Y-112306666D01*
X255902914Y-112306666D02*
X255950533Y-112401904D01*
X255760057Y-111449523D02*
X255712438Y-111401904D01*
X255712438Y-111401904D02*
X255664819Y-111306666D01*
X255664819Y-111306666D02*
X255664819Y-111068571D01*
X255664819Y-111068571D02*
X255712438Y-110973333D01*
X255712438Y-110973333D02*
X255760057Y-110925714D01*
X255760057Y-110925714D02*
X255855295Y-110878095D01*
X255855295Y-110878095D02*
X255950533Y-110878095D01*
X255950533Y-110878095D02*
X256093390Y-110925714D01*
X256093390Y-110925714D02*
X256664819Y-111497142D01*
X256664819Y-111497142D02*
X256664819Y-110878095D01*
X227154819Y-73782857D02*
X226678628Y-74116190D01*
X227154819Y-74354285D02*
X226154819Y-74354285D01*
X226154819Y-74354285D02*
X226154819Y-73973333D01*
X226154819Y-73973333D02*
X226202438Y-73878095D01*
X226202438Y-73878095D02*
X226250057Y-73830476D01*
X226250057Y-73830476D02*
X226345295Y-73782857D01*
X226345295Y-73782857D02*
X226488152Y-73782857D01*
X226488152Y-73782857D02*
X226583390Y-73830476D01*
X226583390Y-73830476D02*
X226631009Y-73878095D01*
X226631009Y-73878095D02*
X226678628Y-73973333D01*
X226678628Y-73973333D02*
X226678628Y-74354285D01*
X227154819Y-72830476D02*
X227154819Y-73401904D01*
X227154819Y-73116190D02*
X226154819Y-73116190D01*
X226154819Y-73116190D02*
X226297676Y-73211428D01*
X226297676Y-73211428D02*
X226392914Y-73306666D01*
X226392914Y-73306666D02*
X226440533Y-73401904D01*
X226154819Y-72497142D02*
X226154819Y-71878095D01*
X226154819Y-71878095D02*
X226535771Y-72211428D01*
X226535771Y-72211428D02*
X226535771Y-72068571D01*
X226535771Y-72068571D02*
X226583390Y-71973333D01*
X226583390Y-71973333D02*
X226631009Y-71925714D01*
X226631009Y-71925714D02*
X226726247Y-71878095D01*
X226726247Y-71878095D02*
X226964342Y-71878095D01*
X226964342Y-71878095D02*
X227059580Y-71925714D01*
X227059580Y-71925714D02*
X227107200Y-71973333D01*
X227107200Y-71973333D02*
X227154819Y-72068571D01*
X227154819Y-72068571D02*
X227154819Y-72354285D01*
X227154819Y-72354285D02*
X227107200Y-72449523D01*
X227107200Y-72449523D02*
X227059580Y-72497142D01*
X242544819Y-74022857D02*
X242068628Y-74356190D01*
X242544819Y-74594285D02*
X241544819Y-74594285D01*
X241544819Y-74594285D02*
X241544819Y-74213333D01*
X241544819Y-74213333D02*
X241592438Y-74118095D01*
X241592438Y-74118095D02*
X241640057Y-74070476D01*
X241640057Y-74070476D02*
X241735295Y-74022857D01*
X241735295Y-74022857D02*
X241878152Y-74022857D01*
X241878152Y-74022857D02*
X241973390Y-74070476D01*
X241973390Y-74070476D02*
X242021009Y-74118095D01*
X242021009Y-74118095D02*
X242068628Y-74213333D01*
X242068628Y-74213333D02*
X242068628Y-74594285D01*
X242544819Y-73070476D02*
X242544819Y-73641904D01*
X242544819Y-73356190D02*
X241544819Y-73356190D01*
X241544819Y-73356190D02*
X241687676Y-73451428D01*
X241687676Y-73451428D02*
X241782914Y-73546666D01*
X241782914Y-73546666D02*
X241830533Y-73641904D01*
X241878152Y-72213333D02*
X242544819Y-72213333D01*
X241497200Y-72451428D02*
X242211485Y-72689523D01*
X242211485Y-72689523D02*
X242211485Y-72070476D01*
X257144819Y-73722857D02*
X256668628Y-74056190D01*
X257144819Y-74294285D02*
X256144819Y-74294285D01*
X256144819Y-74294285D02*
X256144819Y-73913333D01*
X256144819Y-73913333D02*
X256192438Y-73818095D01*
X256192438Y-73818095D02*
X256240057Y-73770476D01*
X256240057Y-73770476D02*
X256335295Y-73722857D01*
X256335295Y-73722857D02*
X256478152Y-73722857D01*
X256478152Y-73722857D02*
X256573390Y-73770476D01*
X256573390Y-73770476D02*
X256621009Y-73818095D01*
X256621009Y-73818095D02*
X256668628Y-73913333D01*
X256668628Y-73913333D02*
X256668628Y-74294285D01*
X257144819Y-72770476D02*
X257144819Y-73341904D01*
X257144819Y-73056190D02*
X256144819Y-73056190D01*
X256144819Y-73056190D02*
X256287676Y-73151428D01*
X256287676Y-73151428D02*
X256382914Y-73246666D01*
X256382914Y-73246666D02*
X256430533Y-73341904D01*
X256144819Y-71865714D02*
X256144819Y-72341904D01*
X256144819Y-72341904D02*
X256621009Y-72389523D01*
X256621009Y-72389523D02*
X256573390Y-72341904D01*
X256573390Y-72341904D02*
X256525771Y-72246666D01*
X256525771Y-72246666D02*
X256525771Y-72008571D01*
X256525771Y-72008571D02*
X256573390Y-71913333D01*
X256573390Y-71913333D02*
X256621009Y-71865714D01*
X256621009Y-71865714D02*
X256716247Y-71818095D01*
X256716247Y-71818095D02*
X256954342Y-71818095D01*
X256954342Y-71818095D02*
X257049580Y-71865714D01*
X257049580Y-71865714D02*
X257097200Y-71913333D01*
X257097200Y-71913333D02*
X257144819Y-72008571D01*
X257144819Y-72008571D02*
X257144819Y-72246666D01*
X257144819Y-72246666D02*
X257097200Y-72341904D01*
X257097200Y-72341904D02*
X257049580Y-72389523D01*
X219184819Y-128584285D02*
X218184819Y-128584285D01*
X218184819Y-128584285D02*
X218184819Y-128346190D01*
X218184819Y-128346190D02*
X218232438Y-128203333D01*
X218232438Y-128203333D02*
X218327676Y-128108095D01*
X218327676Y-128108095D02*
X218422914Y-128060476D01*
X218422914Y-128060476D02*
X218613390Y-128012857D01*
X218613390Y-128012857D02*
X218756247Y-128012857D01*
X218756247Y-128012857D02*
X218946723Y-128060476D01*
X218946723Y-128060476D02*
X219041961Y-128108095D01*
X219041961Y-128108095D02*
X219137200Y-128203333D01*
X219137200Y-128203333D02*
X219184819Y-128346190D01*
X219184819Y-128346190D02*
X219184819Y-128584285D01*
X219184819Y-127060476D02*
X219184819Y-127631904D01*
X219184819Y-127346190D02*
X218184819Y-127346190D01*
X218184819Y-127346190D02*
X218327676Y-127441428D01*
X218327676Y-127441428D02*
X218422914Y-127536666D01*
X218422914Y-127536666D02*
X218470533Y-127631904D01*
X218184819Y-126441428D02*
X218184819Y-126346190D01*
X218184819Y-126346190D02*
X218232438Y-126250952D01*
X218232438Y-126250952D02*
X218280057Y-126203333D01*
X218280057Y-126203333D02*
X218375295Y-126155714D01*
X218375295Y-126155714D02*
X218565771Y-126108095D01*
X218565771Y-126108095D02*
X218803866Y-126108095D01*
X218803866Y-126108095D02*
X218994342Y-126155714D01*
X218994342Y-126155714D02*
X219089580Y-126203333D01*
X219089580Y-126203333D02*
X219137200Y-126250952D01*
X219137200Y-126250952D02*
X219184819Y-126346190D01*
X219184819Y-126346190D02*
X219184819Y-126441428D01*
X219184819Y-126441428D02*
X219137200Y-126536666D01*
X219137200Y-126536666D02*
X219089580Y-126584285D01*
X219089580Y-126584285D02*
X218994342Y-126631904D01*
X218994342Y-126631904D02*
X218803866Y-126679523D01*
X218803866Y-126679523D02*
X218565771Y-126679523D01*
X218565771Y-126679523D02*
X218375295Y-126631904D01*
X218375295Y-126631904D02*
X218280057Y-126584285D01*
X218280057Y-126584285D02*
X218232438Y-126536666D01*
X218232438Y-126536666D02*
X218184819Y-126441428D01*
X234184819Y-128584285D02*
X233184819Y-128584285D01*
X233184819Y-128584285D02*
X233184819Y-128346190D01*
X233184819Y-128346190D02*
X233232438Y-128203333D01*
X233232438Y-128203333D02*
X233327676Y-128108095D01*
X233327676Y-128108095D02*
X233422914Y-128060476D01*
X233422914Y-128060476D02*
X233613390Y-128012857D01*
X233613390Y-128012857D02*
X233756247Y-128012857D01*
X233756247Y-128012857D02*
X233946723Y-128060476D01*
X233946723Y-128060476D02*
X234041961Y-128108095D01*
X234041961Y-128108095D02*
X234137200Y-128203333D01*
X234137200Y-128203333D02*
X234184819Y-128346190D01*
X234184819Y-128346190D02*
X234184819Y-128584285D01*
X234184819Y-127060476D02*
X234184819Y-127631904D01*
X234184819Y-127346190D02*
X233184819Y-127346190D01*
X233184819Y-127346190D02*
X233327676Y-127441428D01*
X233327676Y-127441428D02*
X233422914Y-127536666D01*
X233422914Y-127536666D02*
X233470533Y-127631904D01*
X234184819Y-126108095D02*
X234184819Y-126679523D01*
X234184819Y-126393809D02*
X233184819Y-126393809D01*
X233184819Y-126393809D02*
X233327676Y-126489047D01*
X233327676Y-126489047D02*
X233422914Y-126584285D01*
X233422914Y-126584285D02*
X233470533Y-126679523D01*
X249184819Y-128584285D02*
X248184819Y-128584285D01*
X248184819Y-128584285D02*
X248184819Y-128346190D01*
X248184819Y-128346190D02*
X248232438Y-128203333D01*
X248232438Y-128203333D02*
X248327676Y-128108095D01*
X248327676Y-128108095D02*
X248422914Y-128060476D01*
X248422914Y-128060476D02*
X248613390Y-128012857D01*
X248613390Y-128012857D02*
X248756247Y-128012857D01*
X248756247Y-128012857D02*
X248946723Y-128060476D01*
X248946723Y-128060476D02*
X249041961Y-128108095D01*
X249041961Y-128108095D02*
X249137200Y-128203333D01*
X249137200Y-128203333D02*
X249184819Y-128346190D01*
X249184819Y-128346190D02*
X249184819Y-128584285D01*
X249184819Y-127060476D02*
X249184819Y-127631904D01*
X249184819Y-127346190D02*
X248184819Y-127346190D01*
X248184819Y-127346190D02*
X248327676Y-127441428D01*
X248327676Y-127441428D02*
X248422914Y-127536666D01*
X248422914Y-127536666D02*
X248470533Y-127631904D01*
X248280057Y-126679523D02*
X248232438Y-126631904D01*
X248232438Y-126631904D02*
X248184819Y-126536666D01*
X248184819Y-126536666D02*
X248184819Y-126298571D01*
X248184819Y-126298571D02*
X248232438Y-126203333D01*
X248232438Y-126203333D02*
X248280057Y-126155714D01*
X248280057Y-126155714D02*
X248375295Y-126108095D01*
X248375295Y-126108095D02*
X248470533Y-126108095D01*
X248470533Y-126108095D02*
X248613390Y-126155714D01*
X248613390Y-126155714D02*
X249184819Y-126727142D01*
X249184819Y-126727142D02*
X249184819Y-126108095D01*
X219184819Y-88584285D02*
X218184819Y-88584285D01*
X218184819Y-88584285D02*
X218184819Y-88346190D01*
X218184819Y-88346190D02*
X218232438Y-88203333D01*
X218232438Y-88203333D02*
X218327676Y-88108095D01*
X218327676Y-88108095D02*
X218422914Y-88060476D01*
X218422914Y-88060476D02*
X218613390Y-88012857D01*
X218613390Y-88012857D02*
X218756247Y-88012857D01*
X218756247Y-88012857D02*
X218946723Y-88060476D01*
X218946723Y-88060476D02*
X219041961Y-88108095D01*
X219041961Y-88108095D02*
X219137200Y-88203333D01*
X219137200Y-88203333D02*
X219184819Y-88346190D01*
X219184819Y-88346190D02*
X219184819Y-88584285D01*
X219184819Y-87060476D02*
X219184819Y-87631904D01*
X219184819Y-87346190D02*
X218184819Y-87346190D01*
X218184819Y-87346190D02*
X218327676Y-87441428D01*
X218327676Y-87441428D02*
X218422914Y-87536666D01*
X218422914Y-87536666D02*
X218470533Y-87631904D01*
X218184819Y-86727142D02*
X218184819Y-86108095D01*
X218184819Y-86108095D02*
X218565771Y-86441428D01*
X218565771Y-86441428D02*
X218565771Y-86298571D01*
X218565771Y-86298571D02*
X218613390Y-86203333D01*
X218613390Y-86203333D02*
X218661009Y-86155714D01*
X218661009Y-86155714D02*
X218756247Y-86108095D01*
X218756247Y-86108095D02*
X218994342Y-86108095D01*
X218994342Y-86108095D02*
X219089580Y-86155714D01*
X219089580Y-86155714D02*
X219137200Y-86203333D01*
X219137200Y-86203333D02*
X219184819Y-86298571D01*
X219184819Y-86298571D02*
X219184819Y-86584285D01*
X219184819Y-86584285D02*
X219137200Y-86679523D01*
X219137200Y-86679523D02*
X219089580Y-86727142D01*
X233644819Y-87814285D02*
X232644819Y-87814285D01*
X232644819Y-87814285D02*
X232644819Y-87576190D01*
X232644819Y-87576190D02*
X232692438Y-87433333D01*
X232692438Y-87433333D02*
X232787676Y-87338095D01*
X232787676Y-87338095D02*
X232882914Y-87290476D01*
X232882914Y-87290476D02*
X233073390Y-87242857D01*
X233073390Y-87242857D02*
X233216247Y-87242857D01*
X233216247Y-87242857D02*
X233406723Y-87290476D01*
X233406723Y-87290476D02*
X233501961Y-87338095D01*
X233501961Y-87338095D02*
X233597200Y-87433333D01*
X233597200Y-87433333D02*
X233644819Y-87576190D01*
X233644819Y-87576190D02*
X233644819Y-87814285D01*
X233644819Y-86290476D02*
X233644819Y-86861904D01*
X233644819Y-86576190D02*
X232644819Y-86576190D01*
X232644819Y-86576190D02*
X232787676Y-86671428D01*
X232787676Y-86671428D02*
X232882914Y-86766666D01*
X232882914Y-86766666D02*
X232930533Y-86861904D01*
X232978152Y-85433333D02*
X233644819Y-85433333D01*
X232597200Y-85671428D02*
X233311485Y-85909523D01*
X233311485Y-85909523D02*
X233311485Y-85290476D01*
X249144819Y-88854285D02*
X248144819Y-88854285D01*
X248144819Y-88854285D02*
X248144819Y-88616190D01*
X248144819Y-88616190D02*
X248192438Y-88473333D01*
X248192438Y-88473333D02*
X248287676Y-88378095D01*
X248287676Y-88378095D02*
X248382914Y-88330476D01*
X248382914Y-88330476D02*
X248573390Y-88282857D01*
X248573390Y-88282857D02*
X248716247Y-88282857D01*
X248716247Y-88282857D02*
X248906723Y-88330476D01*
X248906723Y-88330476D02*
X249001961Y-88378095D01*
X249001961Y-88378095D02*
X249097200Y-88473333D01*
X249097200Y-88473333D02*
X249144819Y-88616190D01*
X249144819Y-88616190D02*
X249144819Y-88854285D01*
X249144819Y-87330476D02*
X249144819Y-87901904D01*
X249144819Y-87616190D02*
X248144819Y-87616190D01*
X248144819Y-87616190D02*
X248287676Y-87711428D01*
X248287676Y-87711428D02*
X248382914Y-87806666D01*
X248382914Y-87806666D02*
X248430533Y-87901904D01*
X248144819Y-86425714D02*
X248144819Y-86901904D01*
X248144819Y-86901904D02*
X248621009Y-86949523D01*
X248621009Y-86949523D02*
X248573390Y-86901904D01*
X248573390Y-86901904D02*
X248525771Y-86806666D01*
X248525771Y-86806666D02*
X248525771Y-86568571D01*
X248525771Y-86568571D02*
X248573390Y-86473333D01*
X248573390Y-86473333D02*
X248621009Y-86425714D01*
X248621009Y-86425714D02*
X248716247Y-86378095D01*
X248716247Y-86378095D02*
X248954342Y-86378095D01*
X248954342Y-86378095D02*
X249049580Y-86425714D01*
X249049580Y-86425714D02*
X249097200Y-86473333D01*
X249097200Y-86473333D02*
X249144819Y-86568571D01*
X249144819Y-86568571D02*
X249144819Y-86806666D01*
X249144819Y-86806666D02*
X249097200Y-86901904D01*
X249097200Y-86901904D02*
X249049580Y-86949523D01*
D11*
X71936667Y-95649800D02*
X72079524Y-95697419D01*
X72079524Y-95697419D02*
X72317619Y-95697419D01*
X72317619Y-95697419D02*
X72412857Y-95649800D01*
X72412857Y-95649800D02*
X72460476Y-95602180D01*
X72460476Y-95602180D02*
X72508095Y-95506942D01*
X72508095Y-95506942D02*
X72508095Y-95411704D01*
X72508095Y-95411704D02*
X72460476Y-95316466D01*
X72460476Y-95316466D02*
X72412857Y-95268847D01*
X72412857Y-95268847D02*
X72317619Y-95221228D01*
X72317619Y-95221228D02*
X72127143Y-95173609D01*
X72127143Y-95173609D02*
X72031905Y-95125990D01*
X72031905Y-95125990D02*
X71984286Y-95078371D01*
X71984286Y-95078371D02*
X71936667Y-94983133D01*
X71936667Y-94983133D02*
X71936667Y-94887895D01*
X71936667Y-94887895D02*
X71984286Y-94792657D01*
X71984286Y-94792657D02*
X72031905Y-94745038D01*
X72031905Y-94745038D02*
X72127143Y-94697419D01*
X72127143Y-94697419D02*
X72365238Y-94697419D01*
X72365238Y-94697419D02*
X72508095Y-94745038D01*
X72841429Y-94697419D02*
X73079524Y-95697419D01*
X73079524Y-95697419D02*
X73270000Y-94983133D01*
X73270000Y-94983133D02*
X73460476Y-95697419D01*
X73460476Y-95697419D02*
X73698572Y-94697419D01*
X74031905Y-94792657D02*
X74079524Y-94745038D01*
X74079524Y-94745038D02*
X74174762Y-94697419D01*
X74174762Y-94697419D02*
X74412857Y-94697419D01*
X74412857Y-94697419D02*
X74508095Y-94745038D01*
X74508095Y-94745038D02*
X74555714Y-94792657D01*
X74555714Y-94792657D02*
X74603333Y-94887895D01*
X74603333Y-94887895D02*
X74603333Y-94983133D01*
X74603333Y-94983133D02*
X74555714Y-95125990D01*
X74555714Y-95125990D02*
X73984286Y-95697419D01*
X73984286Y-95697419D02*
X74603333Y-95697419D01*
X86926667Y-95619800D02*
X87069524Y-95667419D01*
X87069524Y-95667419D02*
X87307619Y-95667419D01*
X87307619Y-95667419D02*
X87402857Y-95619800D01*
X87402857Y-95619800D02*
X87450476Y-95572180D01*
X87450476Y-95572180D02*
X87498095Y-95476942D01*
X87498095Y-95476942D02*
X87498095Y-95381704D01*
X87498095Y-95381704D02*
X87450476Y-95286466D01*
X87450476Y-95286466D02*
X87402857Y-95238847D01*
X87402857Y-95238847D02*
X87307619Y-95191228D01*
X87307619Y-95191228D02*
X87117143Y-95143609D01*
X87117143Y-95143609D02*
X87021905Y-95095990D01*
X87021905Y-95095990D02*
X86974286Y-95048371D01*
X86974286Y-95048371D02*
X86926667Y-94953133D01*
X86926667Y-94953133D02*
X86926667Y-94857895D01*
X86926667Y-94857895D02*
X86974286Y-94762657D01*
X86974286Y-94762657D02*
X87021905Y-94715038D01*
X87021905Y-94715038D02*
X87117143Y-94667419D01*
X87117143Y-94667419D02*
X87355238Y-94667419D01*
X87355238Y-94667419D02*
X87498095Y-94715038D01*
X87831429Y-94667419D02*
X88069524Y-95667419D01*
X88069524Y-95667419D02*
X88260000Y-94953133D01*
X88260000Y-94953133D02*
X88450476Y-95667419D01*
X88450476Y-95667419D02*
X88688572Y-94667419D01*
X88974286Y-94667419D02*
X89593333Y-94667419D01*
X89593333Y-94667419D02*
X89260000Y-95048371D01*
X89260000Y-95048371D02*
X89402857Y-95048371D01*
X89402857Y-95048371D02*
X89498095Y-95095990D01*
X89498095Y-95095990D02*
X89545714Y-95143609D01*
X89545714Y-95143609D02*
X89593333Y-95238847D01*
X89593333Y-95238847D02*
X89593333Y-95476942D01*
X89593333Y-95476942D02*
X89545714Y-95572180D01*
X89545714Y-95572180D02*
X89498095Y-95619800D01*
X89498095Y-95619800D02*
X89402857Y-95667419D01*
X89402857Y-95667419D02*
X89117143Y-95667419D01*
X89117143Y-95667419D02*
X89021905Y-95619800D01*
X89021905Y-95619800D02*
X88974286Y-95572180D01*
D10*
X111475714Y-91094819D02*
X111475714Y-90094819D01*
X111475714Y-90094819D02*
X111713809Y-90094819D01*
X111713809Y-90094819D02*
X111856666Y-90142438D01*
X111856666Y-90142438D02*
X111951904Y-90237676D01*
X111951904Y-90237676D02*
X111999523Y-90332914D01*
X111999523Y-90332914D02*
X112047142Y-90523390D01*
X112047142Y-90523390D02*
X112047142Y-90666247D01*
X112047142Y-90666247D02*
X111999523Y-90856723D01*
X111999523Y-90856723D02*
X111951904Y-90951961D01*
X111951904Y-90951961D02*
X111856666Y-91047200D01*
X111856666Y-91047200D02*
X111713809Y-91094819D01*
X111713809Y-91094819D02*
X111475714Y-91094819D01*
X112999523Y-91094819D02*
X112428095Y-91094819D01*
X112713809Y-91094819D02*
X112713809Y-90094819D01*
X112713809Y-90094819D02*
X112618571Y-90237676D01*
X112618571Y-90237676D02*
X112523333Y-90332914D01*
X112523333Y-90332914D02*
X112428095Y-90380533D01*
X113332857Y-90094819D02*
X113999523Y-90094819D01*
X113999523Y-90094819D02*
X113570952Y-91094819D01*
X130927142Y-85504819D02*
X130593809Y-85028628D01*
X130355714Y-85504819D02*
X130355714Y-84504819D01*
X130355714Y-84504819D02*
X130736666Y-84504819D01*
X130736666Y-84504819D02*
X130831904Y-84552438D01*
X130831904Y-84552438D02*
X130879523Y-84600057D01*
X130879523Y-84600057D02*
X130927142Y-84695295D01*
X130927142Y-84695295D02*
X130927142Y-84838152D01*
X130927142Y-84838152D02*
X130879523Y-84933390D01*
X130879523Y-84933390D02*
X130831904Y-84981009D01*
X130831904Y-84981009D02*
X130736666Y-85028628D01*
X130736666Y-85028628D02*
X130355714Y-85028628D01*
X131879523Y-85504819D02*
X131308095Y-85504819D01*
X131593809Y-85504819D02*
X131593809Y-84504819D01*
X131593809Y-84504819D02*
X131498571Y-84647676D01*
X131498571Y-84647676D02*
X131403333Y-84742914D01*
X131403333Y-84742914D02*
X131308095Y-84790533D01*
X132212857Y-84504819D02*
X132879523Y-84504819D01*
X132879523Y-84504819D02*
X132450952Y-85504819D01*
X54684819Y-128108094D02*
X53684819Y-128108094D01*
X53684819Y-128108094D02*
X53684819Y-127869999D01*
X53684819Y-127869999D02*
X53732438Y-127727142D01*
X53732438Y-127727142D02*
X53827676Y-127631904D01*
X53827676Y-127631904D02*
X53922914Y-127584285D01*
X53922914Y-127584285D02*
X54113390Y-127536666D01*
X54113390Y-127536666D02*
X54256247Y-127536666D01*
X54256247Y-127536666D02*
X54446723Y-127584285D01*
X54446723Y-127584285D02*
X54541961Y-127631904D01*
X54541961Y-127631904D02*
X54637200Y-127727142D01*
X54637200Y-127727142D02*
X54684819Y-127869999D01*
X54684819Y-127869999D02*
X54684819Y-128108094D01*
X54684819Y-126584285D02*
X54684819Y-127155713D01*
X54684819Y-126869999D02*
X53684819Y-126869999D01*
X53684819Y-126869999D02*
X53827676Y-126965237D01*
X53827676Y-126965237D02*
X53922914Y-127060475D01*
X53922914Y-127060475D02*
X53970533Y-127155713D01*
X62154819Y-73052857D02*
X61678628Y-73386190D01*
X62154819Y-73624285D02*
X61154819Y-73624285D01*
X61154819Y-73624285D02*
X61154819Y-73243333D01*
X61154819Y-73243333D02*
X61202438Y-73148095D01*
X61202438Y-73148095D02*
X61250057Y-73100476D01*
X61250057Y-73100476D02*
X61345295Y-73052857D01*
X61345295Y-73052857D02*
X61488152Y-73052857D01*
X61488152Y-73052857D02*
X61583390Y-73100476D01*
X61583390Y-73100476D02*
X61631009Y-73148095D01*
X61631009Y-73148095D02*
X61678628Y-73243333D01*
X61678628Y-73243333D02*
X61678628Y-73624285D01*
X62154819Y-72100476D02*
X62154819Y-72671904D01*
X62154819Y-72386190D02*
X61154819Y-72386190D01*
X61154819Y-72386190D02*
X61297676Y-72481428D01*
X61297676Y-72481428D02*
X61392914Y-72576666D01*
X61392914Y-72576666D02*
X61440533Y-72671904D01*
X61154819Y-71243333D02*
X61154819Y-71433809D01*
X61154819Y-71433809D02*
X61202438Y-71529047D01*
X61202438Y-71529047D02*
X61250057Y-71576666D01*
X61250057Y-71576666D02*
X61392914Y-71671904D01*
X61392914Y-71671904D02*
X61583390Y-71719523D01*
X61583390Y-71719523D02*
X61964342Y-71719523D01*
X61964342Y-71719523D02*
X62059580Y-71671904D01*
X62059580Y-71671904D02*
X62107200Y-71624285D01*
X62107200Y-71624285D02*
X62154819Y-71529047D01*
X62154819Y-71529047D02*
X62154819Y-71338571D01*
X62154819Y-71338571D02*
X62107200Y-71243333D01*
X62107200Y-71243333D02*
X62059580Y-71195714D01*
X62059580Y-71195714D02*
X61964342Y-71148095D01*
X61964342Y-71148095D02*
X61726247Y-71148095D01*
X61726247Y-71148095D02*
X61631009Y-71195714D01*
X61631009Y-71195714D02*
X61583390Y-71243333D01*
X61583390Y-71243333D02*
X61535771Y-71338571D01*
X61535771Y-71338571D02*
X61535771Y-71529047D01*
X61535771Y-71529047D02*
X61583390Y-71624285D01*
X61583390Y-71624285D02*
X61631009Y-71671904D01*
X61631009Y-71671904D02*
X61726247Y-71719523D01*
X54684819Y-88584285D02*
X53684819Y-88584285D01*
X53684819Y-88584285D02*
X53684819Y-88346190D01*
X53684819Y-88346190D02*
X53732438Y-88203333D01*
X53732438Y-88203333D02*
X53827676Y-88108095D01*
X53827676Y-88108095D02*
X53922914Y-88060476D01*
X53922914Y-88060476D02*
X54113390Y-88012857D01*
X54113390Y-88012857D02*
X54256247Y-88012857D01*
X54256247Y-88012857D02*
X54446723Y-88060476D01*
X54446723Y-88060476D02*
X54541961Y-88108095D01*
X54541961Y-88108095D02*
X54637200Y-88203333D01*
X54637200Y-88203333D02*
X54684819Y-88346190D01*
X54684819Y-88346190D02*
X54684819Y-88584285D01*
X54684819Y-87060476D02*
X54684819Y-87631904D01*
X54684819Y-87346190D02*
X53684819Y-87346190D01*
X53684819Y-87346190D02*
X53827676Y-87441428D01*
X53827676Y-87441428D02*
X53922914Y-87536666D01*
X53922914Y-87536666D02*
X53970533Y-87631904D01*
X53684819Y-86203333D02*
X53684819Y-86393809D01*
X53684819Y-86393809D02*
X53732438Y-86489047D01*
X53732438Y-86489047D02*
X53780057Y-86536666D01*
X53780057Y-86536666D02*
X53922914Y-86631904D01*
X53922914Y-86631904D02*
X54113390Y-86679523D01*
X54113390Y-86679523D02*
X54494342Y-86679523D01*
X54494342Y-86679523D02*
X54589580Y-86631904D01*
X54589580Y-86631904D02*
X54637200Y-86584285D01*
X54637200Y-86584285D02*
X54684819Y-86489047D01*
X54684819Y-86489047D02*
X54684819Y-86298571D01*
X54684819Y-86298571D02*
X54637200Y-86203333D01*
X54637200Y-86203333D02*
X54589580Y-86155714D01*
X54589580Y-86155714D02*
X54494342Y-86108095D01*
X54494342Y-86108095D02*
X54256247Y-86108095D01*
X54256247Y-86108095D02*
X54161009Y-86155714D01*
X54161009Y-86155714D02*
X54113390Y-86203333D01*
X54113390Y-86203333D02*
X54065771Y-86298571D01*
X54065771Y-86298571D02*
X54065771Y-86489047D01*
X54065771Y-86489047D02*
X54113390Y-86584285D01*
X54113390Y-86584285D02*
X54161009Y-86631904D01*
X54161009Y-86631904D02*
X54256247Y-86679523D01*
X146523333Y-112594819D02*
X146190000Y-112118628D01*
X145951905Y-112594819D02*
X145951905Y-111594819D01*
X145951905Y-111594819D02*
X146332857Y-111594819D01*
X146332857Y-111594819D02*
X146428095Y-111642438D01*
X146428095Y-111642438D02*
X146475714Y-111690057D01*
X146475714Y-111690057D02*
X146523333Y-111785295D01*
X146523333Y-111785295D02*
X146523333Y-111928152D01*
X146523333Y-111928152D02*
X146475714Y-112023390D01*
X146475714Y-112023390D02*
X146428095Y-112071009D01*
X146428095Y-112071009D02*
X146332857Y-112118628D01*
X146332857Y-112118628D02*
X145951905Y-112118628D01*
X147380476Y-111594819D02*
X147190000Y-111594819D01*
X147190000Y-111594819D02*
X147094762Y-111642438D01*
X147094762Y-111642438D02*
X147047143Y-111690057D01*
X147047143Y-111690057D02*
X146951905Y-111832914D01*
X146951905Y-111832914D02*
X146904286Y-112023390D01*
X146904286Y-112023390D02*
X146904286Y-112404342D01*
X146904286Y-112404342D02*
X146951905Y-112499580D01*
X146951905Y-112499580D02*
X146999524Y-112547200D01*
X146999524Y-112547200D02*
X147094762Y-112594819D01*
X147094762Y-112594819D02*
X147285238Y-112594819D01*
X147285238Y-112594819D02*
X147380476Y-112547200D01*
X147380476Y-112547200D02*
X147428095Y-112499580D01*
X147428095Y-112499580D02*
X147475714Y-112404342D01*
X147475714Y-112404342D02*
X147475714Y-112166247D01*
X147475714Y-112166247D02*
X147428095Y-112071009D01*
X147428095Y-112071009D02*
X147380476Y-112023390D01*
X147380476Y-112023390D02*
X147285238Y-111975771D01*
X147285238Y-111975771D02*
X147094762Y-111975771D01*
X147094762Y-111975771D02*
X146999524Y-112023390D01*
X146999524Y-112023390D02*
X146951905Y-112071009D01*
X146951905Y-112071009D02*
X146904286Y-112166247D01*
X139184819Y-128108094D02*
X138184819Y-128108094D01*
X138184819Y-128108094D02*
X138184819Y-127869999D01*
X138184819Y-127869999D02*
X138232438Y-127727142D01*
X138232438Y-127727142D02*
X138327676Y-127631904D01*
X138327676Y-127631904D02*
X138422914Y-127584285D01*
X138422914Y-127584285D02*
X138613390Y-127536666D01*
X138613390Y-127536666D02*
X138756247Y-127536666D01*
X138756247Y-127536666D02*
X138946723Y-127584285D01*
X138946723Y-127584285D02*
X139041961Y-127631904D01*
X139041961Y-127631904D02*
X139137200Y-127727142D01*
X139137200Y-127727142D02*
X139184819Y-127869999D01*
X139184819Y-127869999D02*
X139184819Y-128108094D01*
X138184819Y-126679523D02*
X138184819Y-126869999D01*
X138184819Y-126869999D02*
X138232438Y-126965237D01*
X138232438Y-126965237D02*
X138280057Y-127012856D01*
X138280057Y-127012856D02*
X138422914Y-127108094D01*
X138422914Y-127108094D02*
X138613390Y-127155713D01*
X138613390Y-127155713D02*
X138994342Y-127155713D01*
X138994342Y-127155713D02*
X139089580Y-127108094D01*
X139089580Y-127108094D02*
X139137200Y-127060475D01*
X139137200Y-127060475D02*
X139184819Y-126965237D01*
X139184819Y-126965237D02*
X139184819Y-126774761D01*
X139184819Y-126774761D02*
X139137200Y-126679523D01*
X139137200Y-126679523D02*
X139089580Y-126631904D01*
X139089580Y-126631904D02*
X138994342Y-126584285D01*
X138994342Y-126584285D02*
X138756247Y-126584285D01*
X138756247Y-126584285D02*
X138661009Y-126631904D01*
X138661009Y-126631904D02*
X138613390Y-126679523D01*
X138613390Y-126679523D02*
X138565771Y-126774761D01*
X138565771Y-126774761D02*
X138565771Y-126965237D01*
X138565771Y-126965237D02*
X138613390Y-127060475D01*
X138613390Y-127060475D02*
X138661009Y-127108094D01*
X138661009Y-127108094D02*
X138756247Y-127155713D01*
X84684819Y-128108094D02*
X83684819Y-128108094D01*
X83684819Y-128108094D02*
X83684819Y-127869999D01*
X83684819Y-127869999D02*
X83732438Y-127727142D01*
X83732438Y-127727142D02*
X83827676Y-127631904D01*
X83827676Y-127631904D02*
X83922914Y-127584285D01*
X83922914Y-127584285D02*
X84113390Y-127536666D01*
X84113390Y-127536666D02*
X84256247Y-127536666D01*
X84256247Y-127536666D02*
X84446723Y-127584285D01*
X84446723Y-127584285D02*
X84541961Y-127631904D01*
X84541961Y-127631904D02*
X84637200Y-127727142D01*
X84637200Y-127727142D02*
X84684819Y-127869999D01*
X84684819Y-127869999D02*
X84684819Y-128108094D01*
X83684819Y-127203332D02*
X83684819Y-126584285D01*
X83684819Y-126584285D02*
X84065771Y-126917618D01*
X84065771Y-126917618D02*
X84065771Y-126774761D01*
X84065771Y-126774761D02*
X84113390Y-126679523D01*
X84113390Y-126679523D02*
X84161009Y-126631904D01*
X84161009Y-126631904D02*
X84256247Y-126584285D01*
X84256247Y-126584285D02*
X84494342Y-126584285D01*
X84494342Y-126584285D02*
X84589580Y-126631904D01*
X84589580Y-126631904D02*
X84637200Y-126679523D01*
X84637200Y-126679523D02*
X84684819Y-126774761D01*
X84684819Y-126774761D02*
X84684819Y-127060475D01*
X84684819Y-127060475D02*
X84637200Y-127155713D01*
X84637200Y-127155713D02*
X84589580Y-127203332D01*
X179184819Y-128108094D02*
X178184819Y-128108094D01*
X178184819Y-128108094D02*
X178184819Y-127869999D01*
X178184819Y-127869999D02*
X178232438Y-127727142D01*
X178232438Y-127727142D02*
X178327676Y-127631904D01*
X178327676Y-127631904D02*
X178422914Y-127584285D01*
X178422914Y-127584285D02*
X178613390Y-127536666D01*
X178613390Y-127536666D02*
X178756247Y-127536666D01*
X178756247Y-127536666D02*
X178946723Y-127584285D01*
X178946723Y-127584285D02*
X179041961Y-127631904D01*
X179041961Y-127631904D02*
X179137200Y-127727142D01*
X179137200Y-127727142D02*
X179184819Y-127869999D01*
X179184819Y-127869999D02*
X179184819Y-128108094D01*
X178613390Y-126965237D02*
X178565771Y-127060475D01*
X178565771Y-127060475D02*
X178518152Y-127108094D01*
X178518152Y-127108094D02*
X178422914Y-127155713D01*
X178422914Y-127155713D02*
X178375295Y-127155713D01*
X178375295Y-127155713D02*
X178280057Y-127108094D01*
X178280057Y-127108094D02*
X178232438Y-127060475D01*
X178232438Y-127060475D02*
X178184819Y-126965237D01*
X178184819Y-126965237D02*
X178184819Y-126774761D01*
X178184819Y-126774761D02*
X178232438Y-126679523D01*
X178232438Y-126679523D02*
X178280057Y-126631904D01*
X178280057Y-126631904D02*
X178375295Y-126584285D01*
X178375295Y-126584285D02*
X178422914Y-126584285D01*
X178422914Y-126584285D02*
X178518152Y-126631904D01*
X178518152Y-126631904D02*
X178565771Y-126679523D01*
X178565771Y-126679523D02*
X178613390Y-126774761D01*
X178613390Y-126774761D02*
X178613390Y-126965237D01*
X178613390Y-126965237D02*
X178661009Y-127060475D01*
X178661009Y-127060475D02*
X178708628Y-127108094D01*
X178708628Y-127108094D02*
X178803866Y-127155713D01*
X178803866Y-127155713D02*
X178994342Y-127155713D01*
X178994342Y-127155713D02*
X179089580Y-127108094D01*
X179089580Y-127108094D02*
X179137200Y-127060475D01*
X179137200Y-127060475D02*
X179184819Y-126965237D01*
X179184819Y-126965237D02*
X179184819Y-126774761D01*
X179184819Y-126774761D02*
X179137200Y-126679523D01*
X179137200Y-126679523D02*
X179089580Y-126631904D01*
X179089580Y-126631904D02*
X178994342Y-126584285D01*
X178994342Y-126584285D02*
X178803866Y-126584285D01*
X178803866Y-126584285D02*
X178708628Y-126631904D01*
X178708628Y-126631904D02*
X178661009Y-126679523D01*
X178661009Y-126679523D02*
X178613390Y-126774761D01*
X194184819Y-128108094D02*
X193184819Y-128108094D01*
X193184819Y-128108094D02*
X193184819Y-127869999D01*
X193184819Y-127869999D02*
X193232438Y-127727142D01*
X193232438Y-127727142D02*
X193327676Y-127631904D01*
X193327676Y-127631904D02*
X193422914Y-127584285D01*
X193422914Y-127584285D02*
X193613390Y-127536666D01*
X193613390Y-127536666D02*
X193756247Y-127536666D01*
X193756247Y-127536666D02*
X193946723Y-127584285D01*
X193946723Y-127584285D02*
X194041961Y-127631904D01*
X194041961Y-127631904D02*
X194137200Y-127727142D01*
X194137200Y-127727142D02*
X194184819Y-127869999D01*
X194184819Y-127869999D02*
X194184819Y-128108094D01*
X194184819Y-127060475D02*
X194184819Y-126869999D01*
X194184819Y-126869999D02*
X194137200Y-126774761D01*
X194137200Y-126774761D02*
X194089580Y-126727142D01*
X194089580Y-126727142D02*
X193946723Y-126631904D01*
X193946723Y-126631904D02*
X193756247Y-126584285D01*
X193756247Y-126584285D02*
X193375295Y-126584285D01*
X193375295Y-126584285D02*
X193280057Y-126631904D01*
X193280057Y-126631904D02*
X193232438Y-126679523D01*
X193232438Y-126679523D02*
X193184819Y-126774761D01*
X193184819Y-126774761D02*
X193184819Y-126965237D01*
X193184819Y-126965237D02*
X193232438Y-127060475D01*
X193232438Y-127060475D02*
X193280057Y-127108094D01*
X193280057Y-127108094D02*
X193375295Y-127155713D01*
X193375295Y-127155713D02*
X193613390Y-127155713D01*
X193613390Y-127155713D02*
X193708628Y-127108094D01*
X193708628Y-127108094D02*
X193756247Y-127060475D01*
X193756247Y-127060475D02*
X193803866Y-126965237D01*
X193803866Y-126965237D02*
X193803866Y-126774761D01*
X193803866Y-126774761D02*
X193756247Y-126679523D01*
X193756247Y-126679523D02*
X193708628Y-126631904D01*
X193708628Y-126631904D02*
X193613390Y-126584285D01*
X109184819Y-128108094D02*
X108184819Y-128108094D01*
X108184819Y-128108094D02*
X108184819Y-127869999D01*
X108184819Y-127869999D02*
X108232438Y-127727142D01*
X108232438Y-127727142D02*
X108327676Y-127631904D01*
X108327676Y-127631904D02*
X108422914Y-127584285D01*
X108422914Y-127584285D02*
X108613390Y-127536666D01*
X108613390Y-127536666D02*
X108756247Y-127536666D01*
X108756247Y-127536666D02*
X108946723Y-127584285D01*
X108946723Y-127584285D02*
X109041961Y-127631904D01*
X109041961Y-127631904D02*
X109137200Y-127727142D01*
X109137200Y-127727142D02*
X109184819Y-127869999D01*
X109184819Y-127869999D02*
X109184819Y-128108094D01*
X108518152Y-126679523D02*
X109184819Y-126679523D01*
X108137200Y-126917618D02*
X108851485Y-127155713D01*
X108851485Y-127155713D02*
X108851485Y-126536666D01*
X164184819Y-128108094D02*
X163184819Y-128108094D01*
X163184819Y-128108094D02*
X163184819Y-127869999D01*
X163184819Y-127869999D02*
X163232438Y-127727142D01*
X163232438Y-127727142D02*
X163327676Y-127631904D01*
X163327676Y-127631904D02*
X163422914Y-127584285D01*
X163422914Y-127584285D02*
X163613390Y-127536666D01*
X163613390Y-127536666D02*
X163756247Y-127536666D01*
X163756247Y-127536666D02*
X163946723Y-127584285D01*
X163946723Y-127584285D02*
X164041961Y-127631904D01*
X164041961Y-127631904D02*
X164137200Y-127727142D01*
X164137200Y-127727142D02*
X164184819Y-127869999D01*
X164184819Y-127869999D02*
X164184819Y-128108094D01*
X163184819Y-127203332D02*
X163184819Y-126536666D01*
X163184819Y-126536666D02*
X164184819Y-126965237D01*
X69684819Y-128108094D02*
X68684819Y-128108094D01*
X68684819Y-128108094D02*
X68684819Y-127869999D01*
X68684819Y-127869999D02*
X68732438Y-127727142D01*
X68732438Y-127727142D02*
X68827676Y-127631904D01*
X68827676Y-127631904D02*
X68922914Y-127584285D01*
X68922914Y-127584285D02*
X69113390Y-127536666D01*
X69113390Y-127536666D02*
X69256247Y-127536666D01*
X69256247Y-127536666D02*
X69446723Y-127584285D01*
X69446723Y-127584285D02*
X69541961Y-127631904D01*
X69541961Y-127631904D02*
X69637200Y-127727142D01*
X69637200Y-127727142D02*
X69684819Y-127869999D01*
X69684819Y-127869999D02*
X69684819Y-128108094D01*
X68780057Y-127155713D02*
X68732438Y-127108094D01*
X68732438Y-127108094D02*
X68684819Y-127012856D01*
X68684819Y-127012856D02*
X68684819Y-126774761D01*
X68684819Y-126774761D02*
X68732438Y-126679523D01*
X68732438Y-126679523D02*
X68780057Y-126631904D01*
X68780057Y-126631904D02*
X68875295Y-126584285D01*
X68875295Y-126584285D02*
X68970533Y-126584285D01*
X68970533Y-126584285D02*
X69113390Y-126631904D01*
X69113390Y-126631904D02*
X69684819Y-127203332D01*
X69684819Y-127203332D02*
X69684819Y-126584285D01*
X124184819Y-128108094D02*
X123184819Y-128108094D01*
X123184819Y-128108094D02*
X123184819Y-127869999D01*
X123184819Y-127869999D02*
X123232438Y-127727142D01*
X123232438Y-127727142D02*
X123327676Y-127631904D01*
X123327676Y-127631904D02*
X123422914Y-127584285D01*
X123422914Y-127584285D02*
X123613390Y-127536666D01*
X123613390Y-127536666D02*
X123756247Y-127536666D01*
X123756247Y-127536666D02*
X123946723Y-127584285D01*
X123946723Y-127584285D02*
X124041961Y-127631904D01*
X124041961Y-127631904D02*
X124137200Y-127727142D01*
X124137200Y-127727142D02*
X124184819Y-127869999D01*
X124184819Y-127869999D02*
X124184819Y-128108094D01*
X123184819Y-126631904D02*
X123184819Y-127108094D01*
X123184819Y-127108094D02*
X123661009Y-127155713D01*
X123661009Y-127155713D02*
X123613390Y-127108094D01*
X123613390Y-127108094D02*
X123565771Y-127012856D01*
X123565771Y-127012856D02*
X123565771Y-126774761D01*
X123565771Y-126774761D02*
X123613390Y-126679523D01*
X123613390Y-126679523D02*
X123661009Y-126631904D01*
X123661009Y-126631904D02*
X123756247Y-126584285D01*
X123756247Y-126584285D02*
X123994342Y-126584285D01*
X123994342Y-126584285D02*
X124089580Y-126631904D01*
X124089580Y-126631904D02*
X124137200Y-126679523D01*
X124137200Y-126679523D02*
X124184819Y-126774761D01*
X124184819Y-126774761D02*
X124184819Y-127012856D01*
X124184819Y-127012856D02*
X124137200Y-127108094D01*
X124137200Y-127108094D02*
X124089580Y-127155713D01*
X77244819Y-112196666D02*
X76768628Y-112529999D01*
X77244819Y-112768094D02*
X76244819Y-112768094D01*
X76244819Y-112768094D02*
X76244819Y-112387142D01*
X76244819Y-112387142D02*
X76292438Y-112291904D01*
X76292438Y-112291904D02*
X76340057Y-112244285D01*
X76340057Y-112244285D02*
X76435295Y-112196666D01*
X76435295Y-112196666D02*
X76578152Y-112196666D01*
X76578152Y-112196666D02*
X76673390Y-112244285D01*
X76673390Y-112244285D02*
X76721009Y-112291904D01*
X76721009Y-112291904D02*
X76768628Y-112387142D01*
X76768628Y-112387142D02*
X76768628Y-112768094D01*
X76340057Y-111815713D02*
X76292438Y-111768094D01*
X76292438Y-111768094D02*
X76244819Y-111672856D01*
X76244819Y-111672856D02*
X76244819Y-111434761D01*
X76244819Y-111434761D02*
X76292438Y-111339523D01*
X76292438Y-111339523D02*
X76340057Y-111291904D01*
X76340057Y-111291904D02*
X76435295Y-111244285D01*
X76435295Y-111244285D02*
X76530533Y-111244285D01*
X76530533Y-111244285D02*
X76673390Y-111291904D01*
X76673390Y-111291904D02*
X77244819Y-111863332D01*
X77244819Y-111863332D02*
X77244819Y-111244285D01*
X92444819Y-112036666D02*
X91968628Y-112369999D01*
X92444819Y-112608094D02*
X91444819Y-112608094D01*
X91444819Y-112608094D02*
X91444819Y-112227142D01*
X91444819Y-112227142D02*
X91492438Y-112131904D01*
X91492438Y-112131904D02*
X91540057Y-112084285D01*
X91540057Y-112084285D02*
X91635295Y-112036666D01*
X91635295Y-112036666D02*
X91778152Y-112036666D01*
X91778152Y-112036666D02*
X91873390Y-112084285D01*
X91873390Y-112084285D02*
X91921009Y-112131904D01*
X91921009Y-112131904D02*
X91968628Y-112227142D01*
X91968628Y-112227142D02*
X91968628Y-112608094D01*
X91444819Y-111703332D02*
X91444819Y-111084285D01*
X91444819Y-111084285D02*
X91825771Y-111417618D01*
X91825771Y-111417618D02*
X91825771Y-111274761D01*
X91825771Y-111274761D02*
X91873390Y-111179523D01*
X91873390Y-111179523D02*
X91921009Y-111131904D01*
X91921009Y-111131904D02*
X92016247Y-111084285D01*
X92016247Y-111084285D02*
X92254342Y-111084285D01*
X92254342Y-111084285D02*
X92349580Y-111131904D01*
X92349580Y-111131904D02*
X92397200Y-111179523D01*
X92397200Y-111179523D02*
X92444819Y-111274761D01*
X92444819Y-111274761D02*
X92444819Y-111560475D01*
X92444819Y-111560475D02*
X92397200Y-111655713D01*
X92397200Y-111655713D02*
X92349580Y-111703332D01*
X201664819Y-112306666D02*
X201188628Y-112639999D01*
X201664819Y-112878094D02*
X200664819Y-112878094D01*
X200664819Y-112878094D02*
X200664819Y-112497142D01*
X200664819Y-112497142D02*
X200712438Y-112401904D01*
X200712438Y-112401904D02*
X200760057Y-112354285D01*
X200760057Y-112354285D02*
X200855295Y-112306666D01*
X200855295Y-112306666D02*
X200998152Y-112306666D01*
X200998152Y-112306666D02*
X201093390Y-112354285D01*
X201093390Y-112354285D02*
X201141009Y-112401904D01*
X201141009Y-112401904D02*
X201188628Y-112497142D01*
X201188628Y-112497142D02*
X201188628Y-112878094D01*
X201664819Y-111830475D02*
X201664819Y-111639999D01*
X201664819Y-111639999D02*
X201617200Y-111544761D01*
X201617200Y-111544761D02*
X201569580Y-111497142D01*
X201569580Y-111497142D02*
X201426723Y-111401904D01*
X201426723Y-111401904D02*
X201236247Y-111354285D01*
X201236247Y-111354285D02*
X200855295Y-111354285D01*
X200855295Y-111354285D02*
X200760057Y-111401904D01*
X200760057Y-111401904D02*
X200712438Y-111449523D01*
X200712438Y-111449523D02*
X200664819Y-111544761D01*
X200664819Y-111544761D02*
X200664819Y-111735237D01*
X200664819Y-111735237D02*
X200712438Y-111830475D01*
X200712438Y-111830475D02*
X200760057Y-111878094D01*
X200760057Y-111878094D02*
X200855295Y-111925713D01*
X200855295Y-111925713D02*
X201093390Y-111925713D01*
X201093390Y-111925713D02*
X201188628Y-111878094D01*
X201188628Y-111878094D02*
X201236247Y-111830475D01*
X201236247Y-111830475D02*
X201283866Y-111735237D01*
X201283866Y-111735237D02*
X201283866Y-111544761D01*
X201283866Y-111544761D02*
X201236247Y-111449523D01*
X201236247Y-111449523D02*
X201188628Y-111401904D01*
X201188628Y-111401904D02*
X201093390Y-111354285D01*
X186814819Y-112586666D02*
X186338628Y-112919999D01*
X186814819Y-113158094D02*
X185814819Y-113158094D01*
X185814819Y-113158094D02*
X185814819Y-112777142D01*
X185814819Y-112777142D02*
X185862438Y-112681904D01*
X185862438Y-112681904D02*
X185910057Y-112634285D01*
X185910057Y-112634285D02*
X186005295Y-112586666D01*
X186005295Y-112586666D02*
X186148152Y-112586666D01*
X186148152Y-112586666D02*
X186243390Y-112634285D01*
X186243390Y-112634285D02*
X186291009Y-112681904D01*
X186291009Y-112681904D02*
X186338628Y-112777142D01*
X186338628Y-112777142D02*
X186338628Y-113158094D01*
X186243390Y-112015237D02*
X186195771Y-112110475D01*
X186195771Y-112110475D02*
X186148152Y-112158094D01*
X186148152Y-112158094D02*
X186052914Y-112205713D01*
X186052914Y-112205713D02*
X186005295Y-112205713D01*
X186005295Y-112205713D02*
X185910057Y-112158094D01*
X185910057Y-112158094D02*
X185862438Y-112110475D01*
X185862438Y-112110475D02*
X185814819Y-112015237D01*
X185814819Y-112015237D02*
X185814819Y-111824761D01*
X185814819Y-111824761D02*
X185862438Y-111729523D01*
X185862438Y-111729523D02*
X185910057Y-111681904D01*
X185910057Y-111681904D02*
X186005295Y-111634285D01*
X186005295Y-111634285D02*
X186052914Y-111634285D01*
X186052914Y-111634285D02*
X186148152Y-111681904D01*
X186148152Y-111681904D02*
X186195771Y-111729523D01*
X186195771Y-111729523D02*
X186243390Y-111824761D01*
X186243390Y-111824761D02*
X186243390Y-112015237D01*
X186243390Y-112015237D02*
X186291009Y-112110475D01*
X186291009Y-112110475D02*
X186338628Y-112158094D01*
X186338628Y-112158094D02*
X186433866Y-112205713D01*
X186433866Y-112205713D02*
X186624342Y-112205713D01*
X186624342Y-112205713D02*
X186719580Y-112158094D01*
X186719580Y-112158094D02*
X186767200Y-112110475D01*
X186767200Y-112110475D02*
X186814819Y-112015237D01*
X186814819Y-112015237D02*
X186814819Y-111824761D01*
X186814819Y-111824761D02*
X186767200Y-111729523D01*
X186767200Y-111729523D02*
X186719580Y-111681904D01*
X186719580Y-111681904D02*
X186624342Y-111634285D01*
X186624342Y-111634285D02*
X186433866Y-111634285D01*
X186433866Y-111634285D02*
X186338628Y-111681904D01*
X186338628Y-111681904D02*
X186291009Y-111729523D01*
X186291009Y-111729523D02*
X186243390Y-111824761D01*
X171664819Y-112306666D02*
X171188628Y-112639999D01*
X171664819Y-112878094D02*
X170664819Y-112878094D01*
X170664819Y-112878094D02*
X170664819Y-112497142D01*
X170664819Y-112497142D02*
X170712438Y-112401904D01*
X170712438Y-112401904D02*
X170760057Y-112354285D01*
X170760057Y-112354285D02*
X170855295Y-112306666D01*
X170855295Y-112306666D02*
X170998152Y-112306666D01*
X170998152Y-112306666D02*
X171093390Y-112354285D01*
X171093390Y-112354285D02*
X171141009Y-112401904D01*
X171141009Y-112401904D02*
X171188628Y-112497142D01*
X171188628Y-112497142D02*
X171188628Y-112878094D01*
X170664819Y-111973332D02*
X170664819Y-111306666D01*
X170664819Y-111306666D02*
X171664819Y-111735237D01*
X131664819Y-112306666D02*
X131188628Y-112639999D01*
X131664819Y-112878094D02*
X130664819Y-112878094D01*
X130664819Y-112878094D02*
X130664819Y-112497142D01*
X130664819Y-112497142D02*
X130712438Y-112401904D01*
X130712438Y-112401904D02*
X130760057Y-112354285D01*
X130760057Y-112354285D02*
X130855295Y-112306666D01*
X130855295Y-112306666D02*
X130998152Y-112306666D01*
X130998152Y-112306666D02*
X131093390Y-112354285D01*
X131093390Y-112354285D02*
X131141009Y-112401904D01*
X131141009Y-112401904D02*
X131188628Y-112497142D01*
X131188628Y-112497142D02*
X131188628Y-112878094D01*
X130664819Y-111401904D02*
X130664819Y-111878094D01*
X130664819Y-111878094D02*
X131141009Y-111925713D01*
X131141009Y-111925713D02*
X131093390Y-111878094D01*
X131093390Y-111878094D02*
X131045771Y-111782856D01*
X131045771Y-111782856D02*
X131045771Y-111544761D01*
X131045771Y-111544761D02*
X131093390Y-111449523D01*
X131093390Y-111449523D02*
X131141009Y-111401904D01*
X131141009Y-111401904D02*
X131236247Y-111354285D01*
X131236247Y-111354285D02*
X131474342Y-111354285D01*
X131474342Y-111354285D02*
X131569580Y-111401904D01*
X131569580Y-111401904D02*
X131617200Y-111449523D01*
X131617200Y-111449523D02*
X131664819Y-111544761D01*
X131664819Y-111544761D02*
X131664819Y-111782856D01*
X131664819Y-111782856D02*
X131617200Y-111878094D01*
X131617200Y-111878094D02*
X131569580Y-111925713D01*
X117023333Y-113094819D02*
X116690000Y-112618628D01*
X116451905Y-113094819D02*
X116451905Y-112094819D01*
X116451905Y-112094819D02*
X116832857Y-112094819D01*
X116832857Y-112094819D02*
X116928095Y-112142438D01*
X116928095Y-112142438D02*
X116975714Y-112190057D01*
X116975714Y-112190057D02*
X117023333Y-112285295D01*
X117023333Y-112285295D02*
X117023333Y-112428152D01*
X117023333Y-112428152D02*
X116975714Y-112523390D01*
X116975714Y-112523390D02*
X116928095Y-112571009D01*
X116928095Y-112571009D02*
X116832857Y-112618628D01*
X116832857Y-112618628D02*
X116451905Y-112618628D01*
X117880476Y-112428152D02*
X117880476Y-113094819D01*
X117642381Y-112047200D02*
X117404286Y-112761485D01*
X117404286Y-112761485D02*
X118023333Y-112761485D01*
X62144819Y-112266666D02*
X61668628Y-112599999D01*
X62144819Y-112838094D02*
X61144819Y-112838094D01*
X61144819Y-112838094D02*
X61144819Y-112457142D01*
X61144819Y-112457142D02*
X61192438Y-112361904D01*
X61192438Y-112361904D02*
X61240057Y-112314285D01*
X61240057Y-112314285D02*
X61335295Y-112266666D01*
X61335295Y-112266666D02*
X61478152Y-112266666D01*
X61478152Y-112266666D02*
X61573390Y-112314285D01*
X61573390Y-112314285D02*
X61621009Y-112361904D01*
X61621009Y-112361904D02*
X61668628Y-112457142D01*
X61668628Y-112457142D02*
X61668628Y-112838094D01*
X62144819Y-111314285D02*
X62144819Y-111885713D01*
X62144819Y-111599999D02*
X61144819Y-111599999D01*
X61144819Y-111599999D02*
X61287676Y-111695237D01*
X61287676Y-111695237D02*
X61382914Y-111790475D01*
X61382914Y-111790475D02*
X61430533Y-111885713D01*
D12*
%TO.C,R10*%
X225210000Y-105820000D02*
X225210000Y-118460000D01*
X224430000Y-105820000D02*
X225210000Y-105820000D01*
X220950000Y-105820000D02*
X220170000Y-105820000D01*
X220170000Y-105820000D02*
X220170000Y-118460000D01*
X225210000Y-118460000D02*
X224430000Y-118460000D01*
X220170000Y-118460000D02*
X220950000Y-118460000D01*
X223690000Y-108300000D02*
X221690000Y-108300000D01*
X221690000Y-115980000D01*
X223690000Y-115980000D01*
X223690000Y-108300000D01*
G36*
X223690000Y-108300000D02*
G01*
X221690000Y-108300000D01*
X221690000Y-115980000D01*
X223690000Y-115980000D01*
X223690000Y-108300000D01*
G37*
%TO.C,R11*%
X238690000Y-108300000D02*
X236690000Y-108300000D01*
X236690000Y-115980000D01*
X238690000Y-115980000D01*
X238690000Y-108300000D01*
G36*
X238690000Y-108300000D02*
G01*
X236690000Y-108300000D01*
X236690000Y-115980000D01*
X238690000Y-115980000D01*
X238690000Y-108300000D01*
G37*
X235170000Y-118460000D02*
X235950000Y-118460000D01*
X240210000Y-118460000D02*
X239430000Y-118460000D01*
X235170000Y-105820000D02*
X235170000Y-118460000D01*
X235950000Y-105820000D02*
X235170000Y-105820000D01*
X239430000Y-105820000D02*
X240210000Y-105820000D01*
X240210000Y-105820000D02*
X240210000Y-118460000D01*
%TO.C,R12*%
X255210000Y-105820000D02*
X255210000Y-118460000D01*
X254430000Y-105820000D02*
X255210000Y-105820000D01*
X250950000Y-105820000D02*
X250170000Y-105820000D01*
X250170000Y-105820000D02*
X250170000Y-118460000D01*
X255210000Y-118460000D02*
X254430000Y-118460000D01*
X250170000Y-118460000D02*
X250950000Y-118460000D01*
X253690000Y-108300000D02*
X251690000Y-108300000D01*
X251690000Y-115980000D01*
X253690000Y-115980000D01*
X253690000Y-108300000D01*
G36*
X253690000Y-108300000D02*
G01*
X251690000Y-108300000D01*
X251690000Y-115980000D01*
X253690000Y-115980000D01*
X253690000Y-108300000D01*
G37*
%TO.C,R13*%
X225210000Y-67060000D02*
X225210000Y-79700000D01*
X224430000Y-67060000D02*
X225210000Y-67060000D01*
X220950000Y-67060000D02*
X220170000Y-67060000D01*
X220170000Y-67060000D02*
X220170000Y-79700000D01*
X225210000Y-79700000D02*
X224430000Y-79700000D01*
X220170000Y-79700000D02*
X220950000Y-79700000D01*
X223690000Y-69540000D02*
X221690000Y-69540000D01*
X221690000Y-77220000D01*
X223690000Y-77220000D01*
X223690000Y-69540000D01*
G36*
X223690000Y-69540000D02*
G01*
X221690000Y-69540000D01*
X221690000Y-77220000D01*
X223690000Y-77220000D01*
X223690000Y-69540000D01*
G37*
%TO.C,R14*%
X238690000Y-69240000D02*
X236690000Y-69240000D01*
X236690000Y-76920000D01*
X238690000Y-76920000D01*
X238690000Y-69240000D01*
G36*
X238690000Y-69240000D02*
G01*
X236690000Y-69240000D01*
X236690000Y-76920000D01*
X238690000Y-76920000D01*
X238690000Y-69240000D01*
G37*
X235170000Y-79400000D02*
X235950000Y-79400000D01*
X240210000Y-79400000D02*
X239430000Y-79400000D01*
X235170000Y-66760000D02*
X235170000Y-79400000D01*
X235950000Y-66760000D02*
X235170000Y-66760000D01*
X239430000Y-66760000D02*
X240210000Y-66760000D01*
X240210000Y-66760000D02*
X240210000Y-79400000D01*
%TO.C,R15*%
X253690000Y-69240000D02*
X251690000Y-69240000D01*
X251690000Y-76920000D01*
X253690000Y-76920000D01*
X253690000Y-69240000D01*
G36*
X253690000Y-69240000D02*
G01*
X251690000Y-69240000D01*
X251690000Y-76920000D01*
X253690000Y-76920000D01*
X253690000Y-69240000D01*
G37*
X250170000Y-79400000D02*
X250950000Y-79400000D01*
X255210000Y-79400000D02*
X254430000Y-79400000D01*
X250170000Y-66760000D02*
X250170000Y-79400000D01*
X250950000Y-66760000D02*
X250170000Y-66760000D01*
X254430000Y-66760000D02*
X255210000Y-66760000D01*
X255210000Y-66760000D02*
X255210000Y-79400000D01*
%TO.C,D10*%
X221145000Y-129930000D02*
X224235000Y-129930000D01*
X221145170Y-129930000D02*
G75*
G02*
X222690000Y-124380000I1544830J2560000D01*
G01*
X222690000Y-124380000D02*
G75*
G02*
X224234830Y-129930000I0J-2990000D01*
G01*
X225190000Y-127370000D02*
G75*
G02*
X220190000Y-127370000I-2500000J0D01*
G01*
X220190000Y-127370000D02*
G75*
G02*
X225190000Y-127370000I2500000J0D01*
G01*
%TO.C,D11*%
X236145000Y-129930000D02*
X239235000Y-129930000D01*
X236145170Y-129930000D02*
G75*
G02*
X237690000Y-124380000I1544830J2560000D01*
G01*
X237690000Y-124380000D02*
G75*
G02*
X239234830Y-129930000I0J-2990000D01*
G01*
X240190000Y-127370000D02*
G75*
G02*
X235190000Y-127370000I-2500000J0D01*
G01*
X235190000Y-127370000D02*
G75*
G02*
X240190000Y-127370000I2500000J0D01*
G01*
%TO.C,D12*%
X251145000Y-129930000D02*
X254235000Y-129930000D01*
X251145170Y-129930000D02*
G75*
G02*
X252690000Y-124380000I1544830J2560000D01*
G01*
X252690000Y-124380000D02*
G75*
G02*
X254234830Y-129930000I0J-2990000D01*
G01*
X255190000Y-127370000D02*
G75*
G02*
X250190000Y-127370000I-2500000J0D01*
G01*
X250190000Y-127370000D02*
G75*
G02*
X255190000Y-127370000I2500000J0D01*
G01*
%TO.C,D13*%
X221145000Y-89930000D02*
X224235000Y-89930000D01*
X221145170Y-89930000D02*
G75*
G02*
X222690000Y-84380000I1544830J2560000D01*
G01*
X222690000Y-84380000D02*
G75*
G02*
X224234830Y-89930000I0J-2990000D01*
G01*
X225190000Y-87370000D02*
G75*
G02*
X220190000Y-87370000I-2500000J0D01*
G01*
X220190000Y-87370000D02*
G75*
G02*
X225190000Y-87370000I2500000J0D01*
G01*
%TO.C,D14*%
X236145000Y-89930000D02*
X239235000Y-89930000D01*
X236145170Y-89930000D02*
G75*
G02*
X237690000Y-84380000I1544830J2560000D01*
G01*
X237690000Y-84380000D02*
G75*
G02*
X239234830Y-89930000I0J-2990000D01*
G01*
X240190000Y-87370000D02*
G75*
G02*
X235190000Y-87370000I-2500000J0D01*
G01*
X235190000Y-87370000D02*
G75*
G02*
X240190000Y-87370000I2500000J0D01*
G01*
%TO.C,D15*%
X255190000Y-87370000D02*
G75*
G02*
X250190000Y-87370000I-2500000J0D01*
G01*
X250190000Y-87370000D02*
G75*
G02*
X255190000Y-87370000I2500000J0D01*
G01*
X252690000Y-84380000D02*
G75*
G02*
X254234830Y-89930000I0J-2990000D01*
G01*
X251145170Y-89930000D02*
G75*
G02*
X252690000Y-84380000I1544830J2560000D01*
G01*
X251145000Y-89930000D02*
X254235000Y-89930000D01*
%TO.C,SW2*%
D11*
X69770000Y-93990000D02*
X76630000Y-93990000D01*
X76630000Y-80790000D01*
X69770000Y-80790000D01*
X69770000Y-93990000D01*
%TO.C,SW3*%
X84760000Y-93960000D02*
X91620000Y-93960000D01*
X91620000Y-80760000D01*
X84760000Y-80760000D01*
X84760000Y-93960000D01*
D12*
%TO.C,D17*%
X115190000Y-87370000D02*
G75*
G02*
X110190000Y-87370000I-2500000J0D01*
G01*
X110190000Y-87370000D02*
G75*
G02*
X115190000Y-87370000I2500000J0D01*
G01*
X112690000Y-84380000D02*
G75*
G02*
X114234830Y-89930000I0J-2990000D01*
G01*
X111145170Y-89930000D02*
G75*
G02*
X112690000Y-84380000I1544830J2560000D01*
G01*
X111145000Y-89930000D02*
X114235000Y-89930000D01*
%TO.C,R17*%
X135410000Y-82530000D02*
X127730000Y-82530000D01*
X127730000Y-80530000D01*
X135410000Y-80530000D01*
X135410000Y-82530000D01*
G36*
X135410000Y-82530000D02*
G01*
X127730000Y-82530000D01*
X127730000Y-80530000D01*
X135410000Y-80530000D01*
X135410000Y-82530000D01*
G37*
X125250000Y-79010000D02*
X125250000Y-79790000D01*
X125250000Y-84050000D02*
X125250000Y-83270000D01*
X137890000Y-79010000D02*
X125250000Y-79010000D01*
X137890000Y-79790000D02*
X137890000Y-79010000D01*
X137890000Y-83270000D02*
X137890000Y-84050000D01*
X137890000Y-84050000D02*
X125250000Y-84050000D01*
%TO.C,D1*%
X60690000Y-127370000D02*
G75*
G02*
X55690000Y-127370000I-2500000J0D01*
G01*
X55690000Y-127370000D02*
G75*
G02*
X60690000Y-127370000I2500000J0D01*
G01*
X58190000Y-124380000D02*
G75*
G02*
X59734830Y-129930000I0J-2990000D01*
G01*
X56645170Y-129930000D02*
G75*
G02*
X58190000Y-124380000I1544830J2560000D01*
G01*
X56645000Y-129930000D02*
X59735000Y-129930000D01*
%TO.C,R16*%
X60700000Y-66090000D02*
X60700000Y-78730000D01*
X59920000Y-66090000D02*
X60700000Y-66090000D01*
X56440000Y-66090000D02*
X55660000Y-66090000D01*
X55660000Y-66090000D02*
X55660000Y-78730000D01*
X60700000Y-78730000D02*
X59920000Y-78730000D01*
X55660000Y-78730000D02*
X56440000Y-78730000D01*
X59180000Y-68570000D02*
X57180000Y-68570000D01*
X57180000Y-76250000D01*
X59180000Y-76250000D01*
X59180000Y-68570000D01*
G36*
X59180000Y-68570000D02*
G01*
X57180000Y-68570000D01*
X57180000Y-76250000D01*
X59180000Y-76250000D01*
X59180000Y-68570000D01*
G37*
%TO.C,D16*%
X56645000Y-89930000D02*
X59735000Y-89930000D01*
X56645170Y-89930000D02*
G75*
G02*
X58190000Y-84380000I1544830J2560000D01*
G01*
X58190000Y-84380000D02*
G75*
G02*
X59734830Y-89930000I0J-2990000D01*
G01*
X60690000Y-87370000D02*
G75*
G02*
X55690000Y-87370000I-2500000J0D01*
G01*
X55690000Y-87370000D02*
G75*
G02*
X60690000Y-87370000I2500000J0D01*
G01*
%TO.C,R6*%
X143690000Y-108300000D02*
X141690000Y-108300000D01*
X141690000Y-115980000D01*
X143690000Y-115980000D01*
X143690000Y-108300000D01*
G36*
X143690000Y-108300000D02*
G01*
X141690000Y-108300000D01*
X141690000Y-115980000D01*
X143690000Y-115980000D01*
X143690000Y-108300000D01*
G37*
X140170000Y-118460000D02*
X140950000Y-118460000D01*
X145210000Y-118460000D02*
X144430000Y-118460000D01*
X140170000Y-105820000D02*
X140170000Y-118460000D01*
X140950000Y-105820000D02*
X140170000Y-105820000D01*
X144430000Y-105820000D02*
X145210000Y-105820000D01*
X145210000Y-105820000D02*
X145210000Y-118460000D01*
%TO.C,D6*%
X145190000Y-127370000D02*
G75*
G02*
X140190000Y-127370000I-2500000J0D01*
G01*
X140190000Y-127370000D02*
G75*
G02*
X145190000Y-127370000I2500000J0D01*
G01*
X142690000Y-124380000D02*
G75*
G02*
X144234830Y-129930000I0J-2990000D01*
G01*
X141145170Y-129930000D02*
G75*
G02*
X142690000Y-124380000I1544830J2560000D01*
G01*
X141145000Y-129930000D02*
X144235000Y-129930000D01*
%TO.C,D3*%
X86645000Y-129930000D02*
X89735000Y-129930000D01*
X86645170Y-129930000D02*
G75*
G02*
X88190000Y-124380000I1544830J2560000D01*
G01*
X88190000Y-124380000D02*
G75*
G02*
X89734830Y-129930000I0J-2990000D01*
G01*
X90690000Y-127370000D02*
G75*
G02*
X85690000Y-127370000I-2500000J0D01*
G01*
X85690000Y-127370000D02*
G75*
G02*
X90690000Y-127370000I2500000J0D01*
G01*
%TO.C,D8*%
X181145000Y-129930000D02*
X184235000Y-129930000D01*
X181145170Y-129930000D02*
G75*
G02*
X182690000Y-124380000I1544830J2560000D01*
G01*
X182690000Y-124380000D02*
G75*
G02*
X184234830Y-129930000I0J-2990000D01*
G01*
X185190000Y-127370000D02*
G75*
G02*
X180190000Y-127370000I-2500000J0D01*
G01*
X180190000Y-127370000D02*
G75*
G02*
X185190000Y-127370000I2500000J0D01*
G01*
%TO.C,D9*%
X196145000Y-129930000D02*
X199235000Y-129930000D01*
X196145170Y-129930000D02*
G75*
G02*
X197690000Y-124380000I1544830J2560000D01*
G01*
X197690000Y-124380000D02*
G75*
G02*
X199234830Y-129930000I0J-2990000D01*
G01*
X200190000Y-127370000D02*
G75*
G02*
X195190000Y-127370000I-2500000J0D01*
G01*
X195190000Y-127370000D02*
G75*
G02*
X200190000Y-127370000I2500000J0D01*
G01*
%TO.C,D4*%
X111145000Y-129930000D02*
X114235000Y-129930000D01*
X111145170Y-129930000D02*
G75*
G02*
X112690000Y-124380000I1544830J2560000D01*
G01*
X112690000Y-124380000D02*
G75*
G02*
X114234830Y-129930000I0J-2990000D01*
G01*
X115190000Y-127370000D02*
G75*
G02*
X110190000Y-127370000I-2500000J0D01*
G01*
X110190000Y-127370000D02*
G75*
G02*
X115190000Y-127370000I2500000J0D01*
G01*
%TO.C,D7*%
X166145000Y-129930000D02*
X169235000Y-129930000D01*
X166145170Y-129930000D02*
G75*
G02*
X167690000Y-124380000I1544830J2560000D01*
G01*
X167690000Y-124380000D02*
G75*
G02*
X169234830Y-129930000I0J-2990000D01*
G01*
X170190000Y-127370000D02*
G75*
G02*
X165190000Y-127370000I-2500000J0D01*
G01*
X165190000Y-127370000D02*
G75*
G02*
X170190000Y-127370000I2500000J0D01*
G01*
%TO.C,D2*%
X71645000Y-129930000D02*
X74735000Y-129930000D01*
X71645170Y-129930000D02*
G75*
G02*
X73190000Y-124380000I1544830J2560000D01*
G01*
X73190000Y-124380000D02*
G75*
G02*
X74734830Y-129930000I0J-2990000D01*
G01*
X75690000Y-127370000D02*
G75*
G02*
X70690000Y-127370000I-2500000J0D01*
G01*
X70690000Y-127370000D02*
G75*
G02*
X75690000Y-127370000I2500000J0D01*
G01*
%TO.C,D5*%
X130190000Y-127370000D02*
G75*
G02*
X125190000Y-127370000I-2500000J0D01*
G01*
X125190000Y-127370000D02*
G75*
G02*
X130190000Y-127370000I2500000J0D01*
G01*
X127690000Y-124380000D02*
G75*
G02*
X129234830Y-129930000I0J-2990000D01*
G01*
X126145170Y-129930000D02*
G75*
G02*
X127690000Y-124380000I1544830J2560000D01*
G01*
X126145000Y-129930000D02*
X129235000Y-129930000D01*
%TO.C,R2*%
X75710000Y-105820000D02*
X75710000Y-118460000D01*
X74930000Y-105820000D02*
X75710000Y-105820000D01*
X71450000Y-105820000D02*
X70670000Y-105820000D01*
X70670000Y-105820000D02*
X70670000Y-118460000D01*
X75710000Y-118460000D02*
X74930000Y-118460000D01*
X70670000Y-118460000D02*
X71450000Y-118460000D01*
X74190000Y-108300000D02*
X72190000Y-108300000D01*
X72190000Y-115980000D01*
X74190000Y-115980000D01*
X74190000Y-108300000D01*
G36*
X74190000Y-108300000D02*
G01*
X72190000Y-108300000D01*
X72190000Y-115980000D01*
X74190000Y-115980000D01*
X74190000Y-108300000D01*
G37*
%TO.C,R3*%
X90710000Y-105820000D02*
X90710000Y-118460000D01*
X89930000Y-105820000D02*
X90710000Y-105820000D01*
X86450000Y-105820000D02*
X85670000Y-105820000D01*
X85670000Y-105820000D02*
X85670000Y-118460000D01*
X90710000Y-118460000D02*
X89930000Y-118460000D01*
X85670000Y-118460000D02*
X86450000Y-118460000D01*
X89190000Y-108300000D02*
X87190000Y-108300000D01*
X87190000Y-115980000D01*
X89190000Y-115980000D01*
X89190000Y-108300000D01*
G36*
X89190000Y-108300000D02*
G01*
X87190000Y-108300000D01*
X87190000Y-115980000D01*
X89190000Y-115980000D01*
X89190000Y-108300000D01*
G37*
%TO.C,R9*%
X200210000Y-105820000D02*
X200210000Y-118460000D01*
X199430000Y-105820000D02*
X200210000Y-105820000D01*
X195950000Y-105820000D02*
X195170000Y-105820000D01*
X195170000Y-105820000D02*
X195170000Y-118460000D01*
X200210000Y-118460000D02*
X199430000Y-118460000D01*
X195170000Y-118460000D02*
X195950000Y-118460000D01*
X198690000Y-108300000D02*
X196690000Y-108300000D01*
X196690000Y-115980000D01*
X198690000Y-115980000D01*
X198690000Y-108300000D01*
G36*
X198690000Y-108300000D02*
G01*
X196690000Y-108300000D01*
X196690000Y-115980000D01*
X198690000Y-115980000D01*
X198690000Y-108300000D01*
G37*
%TO.C,R8*%
X185210000Y-105820000D02*
X185210000Y-118460000D01*
X184430000Y-105820000D02*
X185210000Y-105820000D01*
X180950000Y-105820000D02*
X180170000Y-105820000D01*
X180170000Y-105820000D02*
X180170000Y-118460000D01*
X185210000Y-118460000D02*
X184430000Y-118460000D01*
X180170000Y-118460000D02*
X180950000Y-118460000D01*
X183690000Y-108300000D02*
X181690000Y-108300000D01*
X181690000Y-115980000D01*
X183690000Y-115980000D01*
X183690000Y-108300000D01*
G36*
X183690000Y-108300000D02*
G01*
X181690000Y-108300000D01*
X181690000Y-115980000D01*
X183690000Y-115980000D01*
X183690000Y-108300000D01*
G37*
%TO.C,R7*%
X170210000Y-105820000D02*
X170210000Y-118460000D01*
X169430000Y-105820000D02*
X170210000Y-105820000D01*
X165950000Y-105820000D02*
X165170000Y-105820000D01*
X165170000Y-105820000D02*
X165170000Y-118460000D01*
X170210000Y-118460000D02*
X169430000Y-118460000D01*
X165170000Y-118460000D02*
X165950000Y-118460000D01*
X168690000Y-108300000D02*
X166690000Y-108300000D01*
X166690000Y-115980000D01*
X168690000Y-115980000D01*
X168690000Y-108300000D01*
G36*
X168690000Y-108300000D02*
G01*
X166690000Y-108300000D01*
X166690000Y-115980000D01*
X168690000Y-115980000D01*
X168690000Y-108300000D01*
G37*
%TO.C,R5*%
X130210000Y-105820000D02*
X130210000Y-118460000D01*
X129430000Y-105820000D02*
X130210000Y-105820000D01*
X125950000Y-105820000D02*
X125170000Y-105820000D01*
X125170000Y-105820000D02*
X125170000Y-118460000D01*
X130210000Y-118460000D02*
X129430000Y-118460000D01*
X125170000Y-118460000D02*
X125950000Y-118460000D01*
X128690000Y-108300000D02*
X126690000Y-108300000D01*
X126690000Y-115980000D01*
X128690000Y-115980000D01*
X128690000Y-108300000D01*
G36*
X128690000Y-108300000D02*
G01*
X126690000Y-108300000D01*
X126690000Y-115980000D01*
X128690000Y-115980000D01*
X128690000Y-108300000D01*
G37*
%TO.C,R4*%
X115210000Y-105820000D02*
X115210000Y-118460000D01*
X114430000Y-105820000D02*
X115210000Y-105820000D01*
X110950000Y-105820000D02*
X110170000Y-105820000D01*
X110170000Y-105820000D02*
X110170000Y-118460000D01*
X115210000Y-118460000D02*
X114430000Y-118460000D01*
X110170000Y-118460000D02*
X110950000Y-118460000D01*
X113690000Y-108300000D02*
X111690000Y-108300000D01*
X111690000Y-115980000D01*
X113690000Y-115980000D01*
X113690000Y-108300000D01*
G36*
X113690000Y-108300000D02*
G01*
X111690000Y-108300000D01*
X111690000Y-115980000D01*
X113690000Y-115980000D01*
X113690000Y-108300000D01*
G37*
%TO.C,R1*%
X60690000Y-105780000D02*
X60690000Y-118420000D01*
X59910000Y-105780000D02*
X60690000Y-105780000D01*
X56430000Y-105780000D02*
X55650000Y-105780000D01*
X55650000Y-105780000D02*
X55650000Y-118420000D01*
X60690000Y-118420000D02*
X59910000Y-118420000D01*
X55650000Y-118420000D02*
X56430000Y-118420000D01*
X59170000Y-108260000D02*
X57170000Y-108260000D01*
X57170000Y-115940000D01*
X59170000Y-115940000D01*
X59170000Y-108260000D01*
G36*
X59170000Y-108260000D02*
G01*
X57170000Y-108260000D01*
X57170000Y-115940000D01*
X59170000Y-115940000D01*
X59170000Y-108260000D01*
G37*
%TD*%
M02*
