%TF.GenerationSoftware,KiCad,Pcbnew,9.0.6*%
%TF.CreationDate,2025-11-28T12:10:43-05:00*%
%TF.ProjectId,AltairDrive,416c7461-6972-4447-9269-76652e6b6963,rev?*%
%TF.SameCoordinates,Original*%
%TF.FileFunction,Copper,L1,Top*%
%TF.FilePolarity,Positive*%
%FSLAX46Y46*%
G04 Gerber Fmt 4.6, Leading zero omitted, Abs format (unit mm)*
G04 Created by KiCad (PCBNEW 9.0.6) date 2025-11-28 12:10:43*
%MOMM*%
%LPD*%
G01*
G04 APERTURE LIST*
%ADD10C,0.304800*%
%TA.AperFunction,NonConductor*%
%ADD11C,0.304800*%
%TD*%
%TA.AperFunction,ComponentPad*%
%ADD12R,1.730000X2.030000*%
%TD*%
%TA.AperFunction,ComponentPad*%
%ADD13O,1.730000X2.030000*%
%TD*%
%TA.AperFunction,ComponentPad*%
%ADD14C,3.000000*%
%TD*%
%TA.AperFunction,ComponentPad*%
%ADD15R,1.800000X1.800000*%
%TD*%
%TA.AperFunction,ComponentPad*%
%ADD16C,1.800000*%
%TD*%
%TA.AperFunction,ComponentPad*%
%ADD17C,3.500000*%
%TD*%
%TA.AperFunction,ComponentPad*%
%ADD18C,1.700000*%
%TD*%
%TA.AperFunction,ComponentPad*%
%ADD19R,1.700000X1.700000*%
%TD*%
%TA.AperFunction,Conductor*%
%ADD20C,0.600000*%
%TD*%
%TA.AperFunction,Conductor*%
%ADD21C,0.200000*%
%TD*%
%TA.AperFunction,Conductor*%
%ADD22C,0.127000*%
%TD*%
G04 APERTURE END LIST*
D10*
D11*
X235173383Y-133687641D02*
X235173383Y-132163641D01*
X235173383Y-132163641D02*
X235536240Y-132163641D01*
X235536240Y-132163641D02*
X235753954Y-132236212D01*
X235753954Y-132236212D02*
X235899097Y-132381355D01*
X235899097Y-132381355D02*
X235971668Y-132526498D01*
X235971668Y-132526498D02*
X236044240Y-132816784D01*
X236044240Y-132816784D02*
X236044240Y-133034498D01*
X236044240Y-133034498D02*
X235971668Y-133324784D01*
X235971668Y-133324784D02*
X235899097Y-133469927D01*
X235899097Y-133469927D02*
X235753954Y-133615070D01*
X235753954Y-133615070D02*
X235536240Y-133687641D01*
X235536240Y-133687641D02*
X235173383Y-133687641D01*
X236697383Y-133687641D02*
X236697383Y-132163641D01*
X237350525Y-133615070D02*
X237568240Y-133687641D01*
X237568240Y-133687641D02*
X237931097Y-133687641D01*
X237931097Y-133687641D02*
X238076240Y-133615070D01*
X238076240Y-133615070D02*
X238148811Y-133542498D01*
X238148811Y-133542498D02*
X238221382Y-133397355D01*
X238221382Y-133397355D02*
X238221382Y-133252212D01*
X238221382Y-133252212D02*
X238148811Y-133107070D01*
X238148811Y-133107070D02*
X238076240Y-133034498D01*
X238076240Y-133034498D02*
X237931097Y-132961927D01*
X237931097Y-132961927D02*
X237640811Y-132889355D01*
X237640811Y-132889355D02*
X237495668Y-132816784D01*
X237495668Y-132816784D02*
X237423097Y-132744212D01*
X237423097Y-132744212D02*
X237350525Y-132599070D01*
X237350525Y-132599070D02*
X237350525Y-132453927D01*
X237350525Y-132453927D02*
X237423097Y-132308784D01*
X237423097Y-132308784D02*
X237495668Y-132236212D01*
X237495668Y-132236212D02*
X237640811Y-132163641D01*
X237640811Y-132163641D02*
X238003668Y-132163641D01*
X238003668Y-132163641D02*
X238221382Y-132236212D01*
X238874526Y-133687641D02*
X238874526Y-132163641D01*
X239745383Y-133687641D02*
X239092240Y-132816784D01*
X239745383Y-132163641D02*
X238874526Y-133034498D01*
X241559669Y-133687641D02*
X241559669Y-132163641D01*
X241559669Y-132163641D02*
X241922526Y-132163641D01*
X241922526Y-132163641D02*
X242140240Y-132236212D01*
X242140240Y-132236212D02*
X242285383Y-132381355D01*
X242285383Y-132381355D02*
X242357954Y-132526498D01*
X242357954Y-132526498D02*
X242430526Y-132816784D01*
X242430526Y-132816784D02*
X242430526Y-133034498D01*
X242430526Y-133034498D02*
X242357954Y-133324784D01*
X242357954Y-133324784D02*
X242285383Y-133469927D01*
X242285383Y-133469927D02*
X242140240Y-133615070D01*
X242140240Y-133615070D02*
X241922526Y-133687641D01*
X241922526Y-133687641D02*
X241559669Y-133687641D01*
D10*
D11*
X234560811Y-96105070D02*
X234778526Y-96177641D01*
X234778526Y-96177641D02*
X235141383Y-96177641D01*
X235141383Y-96177641D02*
X235286526Y-96105070D01*
X235286526Y-96105070D02*
X235359097Y-96032498D01*
X235359097Y-96032498D02*
X235431668Y-95887355D01*
X235431668Y-95887355D02*
X235431668Y-95742212D01*
X235431668Y-95742212D02*
X235359097Y-95597070D01*
X235359097Y-95597070D02*
X235286526Y-95524498D01*
X235286526Y-95524498D02*
X235141383Y-95451927D01*
X235141383Y-95451927D02*
X234851097Y-95379355D01*
X234851097Y-95379355D02*
X234705954Y-95306784D01*
X234705954Y-95306784D02*
X234633383Y-95234212D01*
X234633383Y-95234212D02*
X234560811Y-95089070D01*
X234560811Y-95089070D02*
X234560811Y-94943927D01*
X234560811Y-94943927D02*
X234633383Y-94798784D01*
X234633383Y-94798784D02*
X234705954Y-94726212D01*
X234705954Y-94726212D02*
X234851097Y-94653641D01*
X234851097Y-94653641D02*
X235213954Y-94653641D01*
X235213954Y-94653641D02*
X235431668Y-94726212D01*
X236084812Y-95379355D02*
X236592812Y-95379355D01*
X236810526Y-96177641D02*
X236084812Y-96177641D01*
X236084812Y-96177641D02*
X236084812Y-94653641D01*
X236084812Y-94653641D02*
X236810526Y-94653641D01*
X238334526Y-96177641D02*
X237826526Y-95451927D01*
X237463669Y-96177641D02*
X237463669Y-94653641D01*
X237463669Y-94653641D02*
X238044240Y-94653641D01*
X238044240Y-94653641D02*
X238189383Y-94726212D01*
X238189383Y-94726212D02*
X238261954Y-94798784D01*
X238261954Y-94798784D02*
X238334526Y-94943927D01*
X238334526Y-94943927D02*
X238334526Y-95161641D01*
X238334526Y-95161641D02*
X238261954Y-95306784D01*
X238261954Y-95306784D02*
X238189383Y-95379355D01*
X238189383Y-95379355D02*
X238044240Y-95451927D01*
X238044240Y-95451927D02*
X237463669Y-95451927D01*
X238987669Y-96177641D02*
X238987669Y-94653641D01*
X239640811Y-95742212D02*
X240366526Y-95742212D01*
X239495668Y-96177641D02*
X240003668Y-94653641D01*
X240003668Y-94653641D02*
X240511668Y-96177641D01*
X241745383Y-96177641D02*
X241019669Y-96177641D01*
X241019669Y-96177641D02*
X241019669Y-94653641D01*
D10*
D11*
X69723383Y-133697641D02*
X69723383Y-132173641D01*
X69723383Y-132173641D02*
X70086240Y-132173641D01*
X70086240Y-132173641D02*
X70303954Y-132246212D01*
X70303954Y-132246212D02*
X70449097Y-132391355D01*
X70449097Y-132391355D02*
X70521668Y-132536498D01*
X70521668Y-132536498D02*
X70594240Y-132826784D01*
X70594240Y-132826784D02*
X70594240Y-133044498D01*
X70594240Y-133044498D02*
X70521668Y-133334784D01*
X70521668Y-133334784D02*
X70449097Y-133479927D01*
X70449097Y-133479927D02*
X70303954Y-133625070D01*
X70303954Y-133625070D02*
X70086240Y-133697641D01*
X70086240Y-133697641D02*
X69723383Y-133697641D01*
X71247383Y-133697641D02*
X71247383Y-132173641D01*
X71900525Y-133625070D02*
X72118240Y-133697641D01*
X72118240Y-133697641D02*
X72481097Y-133697641D01*
X72481097Y-133697641D02*
X72626240Y-133625070D01*
X72626240Y-133625070D02*
X72698811Y-133552498D01*
X72698811Y-133552498D02*
X72771382Y-133407355D01*
X72771382Y-133407355D02*
X72771382Y-133262212D01*
X72771382Y-133262212D02*
X72698811Y-133117070D01*
X72698811Y-133117070D02*
X72626240Y-133044498D01*
X72626240Y-133044498D02*
X72481097Y-132971927D01*
X72481097Y-132971927D02*
X72190811Y-132899355D01*
X72190811Y-132899355D02*
X72045668Y-132826784D01*
X72045668Y-132826784D02*
X71973097Y-132754212D01*
X71973097Y-132754212D02*
X71900525Y-132609070D01*
X71900525Y-132609070D02*
X71900525Y-132463927D01*
X71900525Y-132463927D02*
X71973097Y-132318784D01*
X71973097Y-132318784D02*
X72045668Y-132246212D01*
X72045668Y-132246212D02*
X72190811Y-132173641D01*
X72190811Y-132173641D02*
X72553668Y-132173641D01*
X72553668Y-132173641D02*
X72771382Y-132246212D01*
X73424526Y-133697641D02*
X73424526Y-132173641D01*
X74295383Y-133697641D02*
X73642240Y-132826784D01*
X74295383Y-132173641D02*
X73424526Y-133044498D01*
X76037097Y-133262212D02*
X76762812Y-133262212D01*
X75891954Y-133697641D02*
X76399954Y-132173641D01*
X76399954Y-132173641D02*
X76907954Y-133697641D01*
D10*
D11*
X125183383Y-133697641D02*
X125183383Y-132173641D01*
X125183383Y-132173641D02*
X125546240Y-132173641D01*
X125546240Y-132173641D02*
X125763954Y-132246212D01*
X125763954Y-132246212D02*
X125909097Y-132391355D01*
X125909097Y-132391355D02*
X125981668Y-132536498D01*
X125981668Y-132536498D02*
X126054240Y-132826784D01*
X126054240Y-132826784D02*
X126054240Y-133044498D01*
X126054240Y-133044498D02*
X125981668Y-133334784D01*
X125981668Y-133334784D02*
X125909097Y-133479927D01*
X125909097Y-133479927D02*
X125763954Y-133625070D01*
X125763954Y-133625070D02*
X125546240Y-133697641D01*
X125546240Y-133697641D02*
X125183383Y-133697641D01*
X126707383Y-133697641D02*
X126707383Y-132173641D01*
X127360525Y-133625070D02*
X127578240Y-133697641D01*
X127578240Y-133697641D02*
X127941097Y-133697641D01*
X127941097Y-133697641D02*
X128086240Y-133625070D01*
X128086240Y-133625070D02*
X128158811Y-133552498D01*
X128158811Y-133552498D02*
X128231382Y-133407355D01*
X128231382Y-133407355D02*
X128231382Y-133262212D01*
X128231382Y-133262212D02*
X128158811Y-133117070D01*
X128158811Y-133117070D02*
X128086240Y-133044498D01*
X128086240Y-133044498D02*
X127941097Y-132971927D01*
X127941097Y-132971927D02*
X127650811Y-132899355D01*
X127650811Y-132899355D02*
X127505668Y-132826784D01*
X127505668Y-132826784D02*
X127433097Y-132754212D01*
X127433097Y-132754212D02*
X127360525Y-132609070D01*
X127360525Y-132609070D02*
X127360525Y-132463927D01*
X127360525Y-132463927D02*
X127433097Y-132318784D01*
X127433097Y-132318784D02*
X127505668Y-132246212D01*
X127505668Y-132246212D02*
X127650811Y-132173641D01*
X127650811Y-132173641D02*
X128013668Y-132173641D01*
X128013668Y-132173641D02*
X128231382Y-132246212D01*
X128884526Y-133697641D02*
X128884526Y-132173641D01*
X129755383Y-133697641D02*
X129102240Y-132826784D01*
X129755383Y-132173641D02*
X128884526Y-133044498D01*
X132077669Y-132899355D02*
X132295383Y-132971927D01*
X132295383Y-132971927D02*
X132367954Y-133044498D01*
X132367954Y-133044498D02*
X132440526Y-133189641D01*
X132440526Y-133189641D02*
X132440526Y-133407355D01*
X132440526Y-133407355D02*
X132367954Y-133552498D01*
X132367954Y-133552498D02*
X132295383Y-133625070D01*
X132295383Y-133625070D02*
X132150240Y-133697641D01*
X132150240Y-133697641D02*
X131569669Y-133697641D01*
X131569669Y-133697641D02*
X131569669Y-132173641D01*
X131569669Y-132173641D02*
X132077669Y-132173641D01*
X132077669Y-132173641D02*
X132222812Y-132246212D01*
X132222812Y-132246212D02*
X132295383Y-132318784D01*
X132295383Y-132318784D02*
X132367954Y-132463927D01*
X132367954Y-132463927D02*
X132367954Y-132609070D01*
X132367954Y-132609070D02*
X132295383Y-132754212D01*
X132295383Y-132754212D02*
X132222812Y-132826784D01*
X132222812Y-132826784D02*
X132077669Y-132899355D01*
X132077669Y-132899355D02*
X131569669Y-132899355D01*
D10*
D11*
X180143383Y-133697641D02*
X180143383Y-132173641D01*
X180143383Y-132173641D02*
X180506240Y-132173641D01*
X180506240Y-132173641D02*
X180723954Y-132246212D01*
X180723954Y-132246212D02*
X180869097Y-132391355D01*
X180869097Y-132391355D02*
X180941668Y-132536498D01*
X180941668Y-132536498D02*
X181014240Y-132826784D01*
X181014240Y-132826784D02*
X181014240Y-133044498D01*
X181014240Y-133044498D02*
X180941668Y-133334784D01*
X180941668Y-133334784D02*
X180869097Y-133479927D01*
X180869097Y-133479927D02*
X180723954Y-133625070D01*
X180723954Y-133625070D02*
X180506240Y-133697641D01*
X180506240Y-133697641D02*
X180143383Y-133697641D01*
X181667383Y-133697641D02*
X181667383Y-132173641D01*
X182320525Y-133625070D02*
X182538240Y-133697641D01*
X182538240Y-133697641D02*
X182901097Y-133697641D01*
X182901097Y-133697641D02*
X183046240Y-133625070D01*
X183046240Y-133625070D02*
X183118811Y-133552498D01*
X183118811Y-133552498D02*
X183191382Y-133407355D01*
X183191382Y-133407355D02*
X183191382Y-133262212D01*
X183191382Y-133262212D02*
X183118811Y-133117070D01*
X183118811Y-133117070D02*
X183046240Y-133044498D01*
X183046240Y-133044498D02*
X182901097Y-132971927D01*
X182901097Y-132971927D02*
X182610811Y-132899355D01*
X182610811Y-132899355D02*
X182465668Y-132826784D01*
X182465668Y-132826784D02*
X182393097Y-132754212D01*
X182393097Y-132754212D02*
X182320525Y-132609070D01*
X182320525Y-132609070D02*
X182320525Y-132463927D01*
X182320525Y-132463927D02*
X182393097Y-132318784D01*
X182393097Y-132318784D02*
X182465668Y-132246212D01*
X182465668Y-132246212D02*
X182610811Y-132173641D01*
X182610811Y-132173641D02*
X182973668Y-132173641D01*
X182973668Y-132173641D02*
X183191382Y-132246212D01*
X183844526Y-133697641D02*
X183844526Y-132173641D01*
X184715383Y-133697641D02*
X184062240Y-132826784D01*
X184715383Y-132173641D02*
X183844526Y-133044498D01*
X187400526Y-133552498D02*
X187327954Y-133625070D01*
X187327954Y-133625070D02*
X187110240Y-133697641D01*
X187110240Y-133697641D02*
X186965097Y-133697641D01*
X186965097Y-133697641D02*
X186747383Y-133625070D01*
X186747383Y-133625070D02*
X186602240Y-133479927D01*
X186602240Y-133479927D02*
X186529669Y-133334784D01*
X186529669Y-133334784D02*
X186457097Y-133044498D01*
X186457097Y-133044498D02*
X186457097Y-132826784D01*
X186457097Y-132826784D02*
X186529669Y-132536498D01*
X186529669Y-132536498D02*
X186602240Y-132391355D01*
X186602240Y-132391355D02*
X186747383Y-132246212D01*
X186747383Y-132246212D02*
X186965097Y-132173641D01*
X186965097Y-132173641D02*
X187110240Y-132173641D01*
X187110240Y-132173641D02*
X187327954Y-132246212D01*
X187327954Y-132246212D02*
X187400526Y-132318784D01*
D10*
D11*
X89843383Y-63844086D02*
X89843383Y-62320086D01*
X89843383Y-62320086D02*
X90206240Y-62320086D01*
X90206240Y-62320086D02*
X90423954Y-62392657D01*
X90423954Y-62392657D02*
X90569097Y-62537800D01*
X90569097Y-62537800D02*
X90641668Y-62682943D01*
X90641668Y-62682943D02*
X90714240Y-62973229D01*
X90714240Y-62973229D02*
X90714240Y-63190943D01*
X90714240Y-63190943D02*
X90641668Y-63481229D01*
X90641668Y-63481229D02*
X90569097Y-63626372D01*
X90569097Y-63626372D02*
X90423954Y-63771515D01*
X90423954Y-63771515D02*
X90206240Y-63844086D01*
X90206240Y-63844086D02*
X89843383Y-63844086D01*
X91367383Y-63844086D02*
X91367383Y-62320086D01*
X91367383Y-62320086D02*
X91947954Y-62320086D01*
X91947954Y-62320086D02*
X92093097Y-62392657D01*
X92093097Y-62392657D02*
X92165668Y-62465229D01*
X92165668Y-62465229D02*
X92238240Y-62610372D01*
X92238240Y-62610372D02*
X92238240Y-62828086D01*
X92238240Y-62828086D02*
X92165668Y-62973229D01*
X92165668Y-62973229D02*
X92093097Y-63045800D01*
X92093097Y-63045800D02*
X91947954Y-63118372D01*
X91947954Y-63118372D02*
X91367383Y-63118372D01*
X92891383Y-63263515D02*
X94052526Y-63263515D01*
X94705668Y-63408657D02*
X95431383Y-63408657D01*
X94560525Y-63844086D02*
X95068525Y-62320086D01*
X95068525Y-62320086D02*
X95576525Y-63844086D01*
X98116526Y-63844086D02*
X97608526Y-63118372D01*
X97245669Y-63844086D02*
X97245669Y-62320086D01*
X97245669Y-62320086D02*
X97826240Y-62320086D01*
X97826240Y-62320086D02*
X97971383Y-62392657D01*
X97971383Y-62392657D02*
X98043954Y-62465229D01*
X98043954Y-62465229D02*
X98116526Y-62610372D01*
X98116526Y-62610372D02*
X98116526Y-62828086D01*
X98116526Y-62828086D02*
X98043954Y-62973229D01*
X98043954Y-62973229D02*
X97971383Y-63045800D01*
X97971383Y-63045800D02*
X97826240Y-63118372D01*
X97826240Y-63118372D02*
X97245669Y-63118372D01*
X98769669Y-63045800D02*
X99277669Y-63045800D01*
X99495383Y-63844086D02*
X98769669Y-63844086D01*
X98769669Y-63844086D02*
X98769669Y-62320086D01*
X98769669Y-62320086D02*
X99495383Y-62320086D01*
X99930811Y-62320086D02*
X100438811Y-63844086D01*
X100438811Y-63844086D02*
X100946811Y-62320086D01*
X101454812Y-63263515D02*
X102615955Y-63263515D01*
X104139954Y-63844086D02*
X103269097Y-63844086D01*
X103704526Y-63844086D02*
X103704526Y-62320086D01*
X103704526Y-62320086D02*
X103559383Y-62537800D01*
X103559383Y-62537800D02*
X103414240Y-62682943D01*
X103414240Y-62682943D02*
X103269097Y-62755515D01*
X89770811Y-64918784D02*
X89843383Y-64846212D01*
X89843383Y-64846212D02*
X89988526Y-64773641D01*
X89988526Y-64773641D02*
X90351383Y-64773641D01*
X90351383Y-64773641D02*
X90496526Y-64846212D01*
X90496526Y-64846212D02*
X90569097Y-64918784D01*
X90569097Y-64918784D02*
X90641668Y-65063927D01*
X90641668Y-65063927D02*
X90641668Y-65209070D01*
X90641668Y-65209070D02*
X90569097Y-65426784D01*
X90569097Y-65426784D02*
X89698240Y-66297641D01*
X89698240Y-66297641D02*
X90641668Y-66297641D01*
X91585097Y-64773641D02*
X91730240Y-64773641D01*
X91730240Y-64773641D02*
X91875383Y-64846212D01*
X91875383Y-64846212D02*
X91947955Y-64918784D01*
X91947955Y-64918784D02*
X92020526Y-65063927D01*
X92020526Y-65063927D02*
X92093097Y-65354212D01*
X92093097Y-65354212D02*
X92093097Y-65717070D01*
X92093097Y-65717070D02*
X92020526Y-66007355D01*
X92020526Y-66007355D02*
X91947955Y-66152498D01*
X91947955Y-66152498D02*
X91875383Y-66225070D01*
X91875383Y-66225070D02*
X91730240Y-66297641D01*
X91730240Y-66297641D02*
X91585097Y-66297641D01*
X91585097Y-66297641D02*
X91439955Y-66225070D01*
X91439955Y-66225070D02*
X91367383Y-66152498D01*
X91367383Y-66152498D02*
X91294812Y-66007355D01*
X91294812Y-66007355D02*
X91222240Y-65717070D01*
X91222240Y-65717070D02*
X91222240Y-65354212D01*
X91222240Y-65354212D02*
X91294812Y-65063927D01*
X91294812Y-65063927D02*
X91367383Y-64918784D01*
X91367383Y-64918784D02*
X91439955Y-64846212D01*
X91439955Y-64846212D02*
X91585097Y-64773641D01*
X92673669Y-64918784D02*
X92746241Y-64846212D01*
X92746241Y-64846212D02*
X92891384Y-64773641D01*
X92891384Y-64773641D02*
X93254241Y-64773641D01*
X93254241Y-64773641D02*
X93399384Y-64846212D01*
X93399384Y-64846212D02*
X93471955Y-64918784D01*
X93471955Y-64918784D02*
X93544526Y-65063927D01*
X93544526Y-65063927D02*
X93544526Y-65209070D01*
X93544526Y-65209070D02*
X93471955Y-65426784D01*
X93471955Y-65426784D02*
X92601098Y-66297641D01*
X92601098Y-66297641D02*
X93544526Y-66297641D01*
X94923384Y-64773641D02*
X94197670Y-64773641D01*
X94197670Y-64773641D02*
X94125098Y-65499355D01*
X94125098Y-65499355D02*
X94197670Y-65426784D01*
X94197670Y-65426784D02*
X94342813Y-65354212D01*
X94342813Y-65354212D02*
X94705670Y-65354212D01*
X94705670Y-65354212D02*
X94850813Y-65426784D01*
X94850813Y-65426784D02*
X94923384Y-65499355D01*
X94923384Y-65499355D02*
X94995955Y-65644498D01*
X94995955Y-65644498D02*
X94995955Y-66007355D01*
X94995955Y-66007355D02*
X94923384Y-66152498D01*
X94923384Y-66152498D02*
X94850813Y-66225070D01*
X94850813Y-66225070D02*
X94705670Y-66297641D01*
X94705670Y-66297641D02*
X94342813Y-66297641D01*
X94342813Y-66297641D02*
X94197670Y-66225070D01*
X94197670Y-66225070D02*
X94125098Y-66152498D01*
X96810242Y-66297641D02*
X96810242Y-64773641D01*
X96810242Y-64773641D02*
X97318242Y-65862212D01*
X97318242Y-65862212D02*
X97826242Y-64773641D01*
X97826242Y-64773641D02*
X97826242Y-66297641D01*
X99422813Y-66297641D02*
X98914813Y-65571927D01*
X98551956Y-66297641D02*
X98551956Y-64773641D01*
X98551956Y-64773641D02*
X99132527Y-64773641D01*
X99132527Y-64773641D02*
X99277670Y-64846212D01*
X99277670Y-64846212D02*
X99350241Y-64918784D01*
X99350241Y-64918784D02*
X99422813Y-65063927D01*
X99422813Y-65063927D02*
X99422813Y-65281641D01*
X99422813Y-65281641D02*
X99350241Y-65426784D01*
X99350241Y-65426784D02*
X99277670Y-65499355D01*
X99277670Y-65499355D02*
X99132527Y-65571927D01*
X99132527Y-65571927D02*
X98551956Y-65571927D01*
X101237099Y-65499355D02*
X101745099Y-65499355D01*
X101962813Y-66297641D02*
X101237099Y-66297641D01*
X101237099Y-66297641D02*
X101237099Y-64773641D01*
X101237099Y-64773641D02*
X101962813Y-64773641D01*
X102615956Y-66297641D02*
X102615956Y-64773641D01*
X102615956Y-64773641D02*
X103196527Y-64773641D01*
X103196527Y-64773641D02*
X103341670Y-64846212D01*
X103341670Y-64846212D02*
X103414241Y-64918784D01*
X103414241Y-64918784D02*
X103486813Y-65063927D01*
X103486813Y-65063927D02*
X103486813Y-65281641D01*
X103486813Y-65281641D02*
X103414241Y-65426784D01*
X103414241Y-65426784D02*
X103341670Y-65499355D01*
X103341670Y-65499355D02*
X103196527Y-65571927D01*
X103196527Y-65571927D02*
X102615956Y-65571927D01*
X104139956Y-66297641D02*
X104139956Y-64773641D01*
X104139956Y-64773641D02*
X104720527Y-64773641D01*
X104720527Y-64773641D02*
X104865670Y-64846212D01*
X104865670Y-64846212D02*
X104938241Y-64918784D01*
X104938241Y-64918784D02*
X105010813Y-65063927D01*
X105010813Y-65063927D02*
X105010813Y-65281641D01*
X105010813Y-65281641D02*
X104938241Y-65426784D01*
X104938241Y-65426784D02*
X104865670Y-65499355D01*
X104865670Y-65499355D02*
X104720527Y-65571927D01*
X104720527Y-65571927D02*
X104139956Y-65571927D01*
X105954241Y-64773641D02*
X106244527Y-64773641D01*
X106244527Y-64773641D02*
X106389670Y-64846212D01*
X106389670Y-64846212D02*
X106534813Y-64991355D01*
X106534813Y-64991355D02*
X106607384Y-65281641D01*
X106607384Y-65281641D02*
X106607384Y-65789641D01*
X106607384Y-65789641D02*
X106534813Y-66079927D01*
X106534813Y-66079927D02*
X106389670Y-66225070D01*
X106389670Y-66225070D02*
X106244527Y-66297641D01*
X106244527Y-66297641D02*
X105954241Y-66297641D01*
X105954241Y-66297641D02*
X105809099Y-66225070D01*
X105809099Y-66225070D02*
X105663956Y-66079927D01*
X105663956Y-66079927D02*
X105591384Y-65789641D01*
X105591384Y-65789641D02*
X105591384Y-65281641D01*
X105591384Y-65281641D02*
X105663956Y-64991355D01*
X105663956Y-64991355D02*
X105809099Y-64846212D01*
X105809099Y-64846212D02*
X105954241Y-64773641D01*
X107042812Y-64773641D02*
X107913670Y-64773641D01*
X107478241Y-66297641D02*
X107478241Y-64773641D01*
D12*
%TO.P,J4,1,Pin_1*%
%TO.N,Net-(D1-K)*%
X212090000Y-79450000D03*
D13*
%TO.P,J4,2,Pin_2*%
%TO.N,Net-(J1-Pin_2)*%
X209550000Y-79450000D03*
%TO.P,J4,3,Pin_3*%
%TO.N,Net-(J1-Pin_5)*%
X207010000Y-79450000D03*
%TO.P,J4,4,Pin_4*%
%TO.N,Net-(J1-Pin_3)*%
X204470000Y-79450000D03*
%TD*%
D14*
%TO.P,R10,1*%
%TO.N,Net-(J1-Pin_31)*%
X222690000Y-106440000D03*
%TO.P,R10,2*%
%TO.N,Net-(D10-A)*%
X222690000Y-117840000D03*
%TD*%
%TO.P,R11,2*%
%TO.N,Net-(D11-A)*%
X237690000Y-117840000D03*
%TO.P,R11,1*%
%TO.N,Net-(J1-Pin_29)*%
X237690000Y-106440000D03*
%TD*%
%TO.P,R12,1*%
%TO.N,Net-(J1-Pin_23)*%
X252690000Y-106440000D03*
%TO.P,R12,2*%
%TO.N,Net-(D12-A)*%
X252690000Y-117840000D03*
%TD*%
%TO.P,R13,1*%
%TO.N,Net-(J1-Pin_21)*%
X222690000Y-67680000D03*
%TO.P,R13,2*%
%TO.N,Net-(D13-A)*%
X222690000Y-79080000D03*
%TD*%
%TO.P,R14,2*%
%TO.N,Net-(D14-A)*%
X237690000Y-78780000D03*
%TO.P,R14,1*%
%TO.N,Net-(J1-Pin_19)*%
X237690000Y-67380000D03*
%TD*%
%TO.P,R15,2*%
%TO.N,Net-(D15-A)*%
X252690000Y-78780000D03*
%TO.P,R15,1*%
%TO.N,Net-(J1-Pin_15)*%
X252690000Y-67380000D03*
%TD*%
D15*
%TO.P,D10,1,K*%
%TO.N,Net-(D1-K)*%
X222690000Y-128640000D03*
D16*
%TO.P,D10,2,A*%
%TO.N,Net-(D10-A)*%
X222690000Y-126100000D03*
%TD*%
D15*
%TO.P,D11,1,K*%
%TO.N,Net-(D1-K)*%
X237690000Y-128640000D03*
D16*
%TO.P,D11,2,A*%
%TO.N,Net-(D11-A)*%
X237690000Y-126100000D03*
%TD*%
D15*
%TO.P,D12,1,K*%
%TO.N,Net-(D1-K)*%
X252690000Y-128640000D03*
D16*
%TO.P,D12,2,A*%
%TO.N,Net-(D12-A)*%
X252690000Y-126100000D03*
%TD*%
D15*
%TO.P,D13,1,K*%
%TO.N,Net-(D1-K)*%
X222690000Y-88640000D03*
D16*
%TO.P,D13,2,A*%
%TO.N,Net-(D13-A)*%
X222690000Y-86100000D03*
%TD*%
D15*
%TO.P,D14,1,K*%
%TO.N,Net-(D1-K)*%
X237690000Y-88640000D03*
D16*
%TO.P,D14,2,A*%
%TO.N,Net-(D14-A)*%
X237690000Y-86100000D03*
%TD*%
%TO.P,D15,2,A*%
%TO.N,Net-(D15-A)*%
X252690000Y-86100000D03*
D15*
%TO.P,D15,1,K*%
%TO.N,Net-(D1-K)*%
X252690000Y-88640000D03*
%TD*%
D13*
%TO.P,J2,3,Pin_3*%
%TO.N,Net-(J1-Pin_10)*%
X190590000Y-63140000D03*
%TO.P,J2,2,Pin_2*%
%TO.N,Net-(J1-Pin_8)*%
X193130000Y-63140000D03*
D12*
%TO.P,J2,1,Pin_1*%
%TO.N,Net-(D1-K)*%
X195670000Y-63140000D03*
%TD*%
%TO.P,J3,1,Pin_1*%
%TO.N,Net-(J3-Pin_1)*%
X77590000Y-63140000D03*
D13*
%TO.P,J3,2,Pin_2*%
%TO.N,Net-(J3-Pin_2)*%
X75050000Y-63140000D03*
%TO.P,J3,3,Pin_3*%
%TO.N,Net-(J3-Pin_3)*%
X72510000Y-63140000D03*
%TD*%
D17*
%TO.P,SW2,1,A*%
%TO.N,Net-(J3-Pin_1)*%
X73270000Y-82670000D03*
%TO.P,SW2,2,B*%
%TO.N,Net-(J3-Pin_2)*%
X73270000Y-87370000D03*
%TO.P,SW2,3,C*%
%TO.N,Net-(J3-Pin_3)*%
X73270000Y-92070000D03*
%TD*%
%TO.P,SW3,1,A*%
%TO.N,Net-(J1-Pin_13)*%
X88260000Y-82640000D03*
%TO.P,SW3,2,B*%
%TO.N,Net-(D1-K)*%
X88260000Y-87340000D03*
%TO.P,SW3,3,C*%
%TO.N,Net-(J1-Pin_11)*%
X88260000Y-92040000D03*
%TD*%
D16*
%TO.P,D17,2,A*%
%TO.N,Net-(D17-A)*%
X112690000Y-86100000D03*
D15*
%TO.P,D17,1,K*%
%TO.N,Net-(D1-K)*%
X112690000Y-88640000D03*
%TD*%
D14*
%TO.P,R17,2*%
%TO.N,Net-(D17-A)*%
X125870000Y-81530000D03*
%TO.P,R17,1*%
%TO.N,Net-(J1-Pin_40)*%
X137270000Y-81530000D03*
%TD*%
D16*
%TO.P,D1,2,A*%
%TO.N,Net-(D1-A)*%
X58190000Y-126100000D03*
D15*
%TO.P,D1,1,K*%
%TO.N,Net-(D1-K)*%
X58190000Y-128640000D03*
%TD*%
D18*
%TO.P,J1,40,Pin_40*%
%TO.N,Net-(J1-Pin_40)*%
X145210000Y-81140000D03*
%TO.P,J1,39,Pin_39*%
%TO.N,unconnected-(J1-Pin_39-Pad39)*%
X145210000Y-83680000D03*
%TO.P,J1,38,Pin_38*%
%TO.N,Net-(J1-Pin_38)*%
X147750000Y-81140000D03*
%TO.P,J1,37,Pin_37*%
%TO.N,Net-(J1-Pin_37)*%
X147750000Y-83680000D03*
%TO.P,J1,36,Pin_36*%
%TO.N,Net-(J1-Pin_36)*%
X150290000Y-81140000D03*
%TO.P,J1,35,Pin_35*%
%TO.N,Net-(J1-Pin_35)*%
X150290000Y-83680000D03*
%TO.P,J1,34,Pin_34*%
%TO.N,unconnected-(J1-Pin_34-Pad34)*%
X152830000Y-81140000D03*
%TO.P,J1,33,Pin_33*%
%TO.N,Net-(J1-Pin_33)*%
X152830000Y-83680000D03*
%TO.P,J1,32,Pin_32*%
%TO.N,Net-(J1-Pin_32)*%
X155370000Y-81140000D03*
%TO.P,J1,31,Pin_31*%
%TO.N,Net-(J1-Pin_31)*%
X155370000Y-83680000D03*
%TO.P,J1,30,Pin_30*%
%TO.N,unconnected-(J1-Pin_30-Pad30)*%
X157910000Y-81140000D03*
%TO.P,J1,29,Pin_29*%
%TO.N,Net-(J1-Pin_29)*%
X157910000Y-83680000D03*
%TO.P,J1,28,Pin_28*%
%TO.N,unconnected-(J1-Pin_28-Pad28)*%
X160450000Y-81140000D03*
%TO.P,J1,27,Pin_27*%
%TO.N,unconnected-(J1-Pin_27-Pad27)*%
X160450000Y-83680000D03*
%TO.P,J1,26,Pin_26*%
%TO.N,unconnected-(J1-Pin_26-Pad26)*%
X162990000Y-81140000D03*
%TO.P,J1,25,Pin_25*%
%TO.N,unconnected-(J1-Pin_25-Pad25)*%
X162990000Y-83680000D03*
%TO.P,J1,24,Pin_24*%
%TO.N,unconnected-(J1-Pin_24-Pad24)*%
X165530000Y-81140000D03*
%TO.P,J1,23,Pin_23*%
%TO.N,Net-(J1-Pin_23)*%
X165530000Y-83680000D03*
%TO.P,J1,22,Pin_22*%
%TO.N,Net-(J1-Pin_22)*%
X168070000Y-81140000D03*
%TO.P,J1,21,Pin_21*%
%TO.N,Net-(J1-Pin_21)*%
X168070000Y-83680000D03*
%TO.P,J1,20,Pin_20*%
%TO.N,unconnected-(J1-Pin_20-Pad20)*%
X170610000Y-81140000D03*
%TO.P,J1,19,Pin_19*%
%TO.N,Net-(J1-Pin_19)*%
X170610000Y-83680000D03*
%TO.P,J1,18,Pin_18*%
%TO.N,Net-(J1-Pin_18)*%
X173150000Y-81140000D03*
%TO.P,J1,17,Pin_17*%
%TO.N,unconnected-(J1-Pin_17-Pad17)*%
X173150000Y-83680000D03*
%TO.P,J1,16,Pin_16*%
%TO.N,Net-(J1-Pin_16)*%
X175690000Y-81140000D03*
%TO.P,J1,15,Pin_15*%
%TO.N,Net-(J1-Pin_15)*%
X175690000Y-83680000D03*
%TO.P,J1,14,Pin_14*%
%TO.N,unconnected-(J1-Pin_14-Pad14)*%
X178230000Y-81140000D03*
%TO.P,J1,13,Pin_13*%
%TO.N,Net-(J1-Pin_13)*%
X178230000Y-83680000D03*
%TO.P,J1,12,Pin_12*%
%TO.N,Net-(J1-Pin_12)*%
X180770000Y-81140000D03*
%TO.P,J1,11,Pin_11*%
%TO.N,Net-(J1-Pin_11)*%
X180770000Y-83680000D03*
%TO.P,J1,10,Pin_10*%
%TO.N,Net-(J1-Pin_10)*%
X183310000Y-81140000D03*
%TO.P,J1,9,Pin_9*%
%TO.N,unconnected-(J1-Pin_9-Pad9)*%
X183310000Y-83680000D03*
%TO.P,J1,8,Pin_8*%
%TO.N,Net-(J1-Pin_8)*%
X185850000Y-81140000D03*
%TO.P,J1,7,Pin_7*%
%TO.N,unconnected-(J1-Pin_7-Pad7)*%
X185850000Y-83680000D03*
%TO.P,J1,6,Pin_6*%
%TO.N,Net-(D1-K)*%
X188390000Y-81140000D03*
%TO.P,J1,5,Pin_5*%
%TO.N,Net-(J1-Pin_5)*%
X188390000Y-83680000D03*
%TO.P,J1,4,Pin_4*%
%TO.N,unconnected-(J1-Pin_4-Pad4)*%
X190930000Y-81140000D03*
%TO.P,J1,3,Pin_3*%
%TO.N,Net-(J1-Pin_3)*%
X190930000Y-83680000D03*
%TO.P,J1,2,Pin_2*%
%TO.N,Net-(J1-Pin_2)*%
X193470000Y-81140000D03*
D19*
%TO.P,J1,1,Pin_1*%
%TO.N,unconnected-(J1-Pin_1-Pad1)*%
X193470000Y-83680000D03*
%TD*%
D14*
%TO.P,R16,1*%
%TO.N,Net-(J1-Pin_22)*%
X58180000Y-66710000D03*
%TO.P,R16,2*%
%TO.N,Net-(D16-A)*%
X58180000Y-78110000D03*
%TD*%
D15*
%TO.P,D16,1,K*%
%TO.N,Net-(D1-K)*%
X58190000Y-88640000D03*
D16*
%TO.P,D16,2,A*%
%TO.N,Net-(D16-A)*%
X58190000Y-86100000D03*
%TD*%
D14*
%TO.P,R6,2*%
%TO.N,Net-(D6-A)*%
X142690000Y-117840000D03*
%TO.P,R6,1*%
%TO.N,Net-(J1-Pin_38)*%
X142690000Y-106440000D03*
%TD*%
D16*
%TO.P,D6,2,A*%
%TO.N,Net-(D6-A)*%
X142690000Y-126100000D03*
D15*
%TO.P,D6,1,K*%
%TO.N,Net-(D1-K)*%
X142690000Y-128640000D03*
%TD*%
%TO.P,D3,1,K*%
%TO.N,Net-(D1-K)*%
X88190000Y-128640000D03*
D16*
%TO.P,D3,2,A*%
%TO.N,Net-(D3-A)*%
X88190000Y-126100000D03*
%TD*%
D15*
%TO.P,D8,1,K*%
%TO.N,Net-(D1-K)*%
X182690000Y-128640000D03*
D16*
%TO.P,D8,2,A*%
%TO.N,Net-(D8-A)*%
X182690000Y-126100000D03*
%TD*%
D15*
%TO.P,D9,1,K*%
%TO.N,Net-(D1-K)*%
X197690000Y-128640000D03*
D16*
%TO.P,D9,2,A*%
%TO.N,Net-(D9-A)*%
X197690000Y-126100000D03*
%TD*%
D15*
%TO.P,D4,1,K*%
%TO.N,Net-(D1-K)*%
X112690000Y-128640000D03*
D16*
%TO.P,D4,2,A*%
%TO.N,Net-(D4-A)*%
X112690000Y-126100000D03*
%TD*%
D15*
%TO.P,D7,1,K*%
%TO.N,Net-(D1-K)*%
X167690000Y-128640000D03*
D16*
%TO.P,D7,2,A*%
%TO.N,Net-(D7-A)*%
X167690000Y-126100000D03*
%TD*%
D15*
%TO.P,D2,1,K*%
%TO.N,Net-(D1-K)*%
X73190000Y-128640000D03*
D16*
%TO.P,D2,2,A*%
%TO.N,Net-(D2-A)*%
X73190000Y-126100000D03*
%TD*%
%TO.P,D5,2,A*%
%TO.N,Net-(D5-A)*%
X127690000Y-126100000D03*
D15*
%TO.P,D5,1,K*%
%TO.N,Net-(D1-K)*%
X127690000Y-128640000D03*
%TD*%
D14*
%TO.P,R2,1*%
%TO.N,Net-(J1-Pin_16)*%
X73190000Y-106440000D03*
%TO.P,R2,2*%
%TO.N,Net-(D2-A)*%
X73190000Y-117840000D03*
%TD*%
%TO.P,R3,1*%
%TO.N,Net-(J1-Pin_18)*%
X88190000Y-106440000D03*
%TO.P,R3,2*%
%TO.N,Net-(D3-A)*%
X88190000Y-117840000D03*
%TD*%
%TO.P,R9,1*%
%TO.N,Net-(J1-Pin_33)*%
X197690000Y-106440000D03*
%TO.P,R9,2*%
%TO.N,Net-(D9-A)*%
X197690000Y-117840000D03*
%TD*%
%TO.P,R8,1*%
%TO.N,Net-(J1-Pin_35)*%
X182690000Y-106440000D03*
%TO.P,R8,2*%
%TO.N,Net-(D8-A)*%
X182690000Y-117840000D03*
%TD*%
%TO.P,R7,1*%
%TO.N,Net-(J1-Pin_37)*%
X167690000Y-106440000D03*
%TO.P,R7,2*%
%TO.N,Net-(D7-A)*%
X167690000Y-117840000D03*
%TD*%
%TO.P,R5,1*%
%TO.N,Net-(J1-Pin_36)*%
X127690000Y-106440000D03*
%TO.P,R5,2*%
%TO.N,Net-(D5-A)*%
X127690000Y-117840000D03*
%TD*%
%TO.P,R4,1*%
%TO.N,Net-(J1-Pin_32)*%
X112690000Y-106440000D03*
%TO.P,R4,2*%
%TO.N,Net-(D4-A)*%
X112690000Y-117840000D03*
%TD*%
%TO.P,R1,1*%
%TO.N,Net-(J1-Pin_12)*%
X58170000Y-106400000D03*
%TO.P,R1,2*%
%TO.N,Net-(D1-A)*%
X58170000Y-117800000D03*
%TD*%
D20*
%TO.N,Net-(J3-Pin_2)*%
X73270000Y-87370000D02*
X71780000Y-85880000D01*
X68780000Y-85880000D02*
X68780000Y-78760000D01*
X71780000Y-85880000D02*
X68780000Y-85880000D01*
X68780000Y-78760000D02*
X74740000Y-78760000D01*
X74740000Y-78760000D02*
X75020000Y-78480000D01*
%TO.N,Net-(J3-Pin_1)*%
X77590000Y-82340000D02*
X77260000Y-82670000D01*
X77260000Y-82670000D02*
X73270000Y-82670000D01*
X77590000Y-63140000D02*
X77590000Y-82340000D01*
D21*
%TO.N,Net-(J1-Pin_18)*%
X88190000Y-106440000D02*
X101230000Y-106440000D01*
X120750000Y-86920000D02*
X120750000Y-77690000D01*
X101230000Y-106440000D02*
X120750000Y-86920000D01*
X172420000Y-75470000D02*
X173150000Y-76200000D01*
X120750000Y-77690000D02*
X128390000Y-77690000D01*
X128390000Y-77690000D02*
X130610000Y-75470000D01*
X130610000Y-75470000D02*
X172420000Y-75470000D01*
X173150000Y-76200000D02*
X173150000Y-81140000D01*
%TO.N,Net-(J1-Pin_13)*%
X201470000Y-70750000D02*
X201900000Y-70750000D01*
X201900000Y-84370000D02*
X197830000Y-88440000D01*
X201900000Y-70750000D02*
X201900000Y-84370000D01*
X197830000Y-88440000D02*
X182990000Y-88440000D01*
X182990000Y-88440000D02*
X178230000Y-83680000D01*
%TO.N,Net-(J1-Pin_11)*%
X184810000Y-87720000D02*
X197310000Y-87720000D01*
X197310000Y-87720000D02*
X200830000Y-84200000D01*
X200830000Y-71830000D02*
X117810000Y-71830000D01*
X180770000Y-83680000D02*
X184810000Y-87720000D01*
X200830000Y-84200000D02*
X200830000Y-71830000D01*
X117810000Y-71830000D02*
X97600000Y-92040000D01*
X97600000Y-92040000D02*
X88260000Y-92040000D01*
%TO.N,Net-(J1-Pin_13)*%
X201470000Y-70750000D02*
X117540000Y-70750000D01*
X105650000Y-82640000D02*
X88260000Y-82640000D01*
X117540000Y-70750000D02*
X105650000Y-82640000D01*
%TO.N,Net-(J1-Pin_16)*%
X84890000Y-101640000D02*
X90590000Y-101640000D01*
X80090000Y-106440000D02*
X84890000Y-101640000D01*
X73190000Y-106440000D02*
X80090000Y-106440000D01*
X175690000Y-74770000D02*
X175690000Y-81140000D01*
X90590000Y-101640000D02*
X117740000Y-74490000D01*
X117740000Y-74490000D02*
X175410000Y-74490000D01*
X175410000Y-74490000D02*
X175690000Y-74770000D01*
D22*
%TO.N,Net-(J1-Pin_38)*%
X142690000Y-106440000D02*
X143080000Y-106050000D01*
D21*
X147750000Y-78880000D02*
X147750000Y-81140000D01*
X143080000Y-106050000D02*
X143080000Y-78880000D01*
X143080000Y-78880000D02*
X147750000Y-78880000D01*
%TO.N,Net-(J1-Pin_36)*%
X142170000Y-77390000D02*
X142040000Y-77520000D01*
X142040000Y-77520000D02*
X142040000Y-85990000D01*
X127690000Y-91920000D02*
X127690000Y-106440000D01*
X133620000Y-85990000D02*
X142040000Y-85990000D01*
X127690000Y-91920000D02*
X133620000Y-85990000D01*
%TO.N,Net-(J1-Pin_32)*%
X136200000Y-76600000D02*
X129450000Y-83350000D01*
X129450000Y-83350000D02*
X129450000Y-87870000D01*
X155370000Y-76600000D02*
X136200000Y-76600000D01*
X155370000Y-81140000D02*
X155370000Y-76600000D01*
X129450000Y-87870000D02*
X112690000Y-104630000D01*
D22*
X112690000Y-104630000D02*
X112690000Y-106440000D01*
D21*
%TO.N,Net-(J1-Pin_36)*%
X142170000Y-77390000D02*
X149950000Y-77390000D01*
%TO.N,Net-(J1-Pin_12)*%
X117630000Y-73200000D02*
X180460000Y-73200000D01*
X180460000Y-73200000D02*
X180770000Y-73510000D01*
X91200000Y-99630000D02*
X84870000Y-99630000D01*
%TO.N,Net-(D16-A)*%
X58180000Y-78110000D02*
X58180000Y-86090000D01*
D22*
X58180000Y-86090000D02*
X58190000Y-86100000D01*
D20*
%TO.N,Net-(J3-Pin_2)*%
X75050000Y-63140000D02*
X75050000Y-78450000D01*
D22*
X75050000Y-78450000D02*
X75020000Y-78480000D01*
D20*
%TO.N,Net-(J3-Pin_3)*%
X72510000Y-63140000D02*
X72510000Y-71360000D01*
X66970000Y-89730000D02*
X69310000Y-92070000D01*
X72510000Y-71360000D02*
X66970000Y-76900000D01*
X66970000Y-76900000D02*
X66970000Y-89730000D01*
X69310000Y-92070000D02*
X73270000Y-92070000D01*
D21*
%TO.N,Net-(J1-Pin_36)*%
X150290000Y-81140000D02*
X150290000Y-77730000D01*
X150290000Y-77730000D02*
X149950000Y-77390000D01*
%TO.N,Net-(J1-Pin_12)*%
X58170000Y-106400000D02*
X64730000Y-106400000D01*
X180770000Y-73510000D02*
X180770000Y-81140000D01*
X68970000Y-102160000D02*
X82340000Y-102160000D01*
X64730000Y-106400000D02*
X68970000Y-102160000D01*
X91200000Y-99630000D02*
X117630000Y-73200000D01*
X82340000Y-102160000D02*
X84870000Y-99630000D01*
%TD*%
M02*
