%TF.GenerationSoftware,KiCad,Pcbnew,9.0.6*%
%TF.CreationDate,2025-11-28T12:10:43-05:00*%
%TF.ProjectId,AltairDrive,416c7461-6972-4447-9269-76652e6b6963,rev?*%
%TF.SameCoordinates,Original*%
%TF.FileFunction,Soldermask,Bot*%
%TF.FilePolarity,Negative*%
%FSLAX46Y46*%
G04 Gerber Fmt 4.6, Leading zero omitted, Abs format (unit mm)*
G04 Created by KiCad (PCBNEW 9.0.6) date 2025-11-28 12:10:43*
%MOMM*%
%LPD*%
G01*
G04 APERTURE LIST*
G04 APERTURE END LIST*
G36*
X59090000Y-129540000D02*
G01*
X57290000Y-129540000D01*
X57290000Y-127740000D01*
X59090000Y-127740000D01*
X59090000Y-129540000D01*
G37*
G36*
X74090000Y-129540000D02*
G01*
X72290000Y-129540000D01*
X72290000Y-127740000D01*
X74090000Y-127740000D01*
X74090000Y-129540000D01*
G37*
G36*
X89090000Y-129540000D02*
G01*
X87290000Y-129540000D01*
X87290000Y-127740000D01*
X89090000Y-127740000D01*
X89090000Y-129540000D01*
G37*
G36*
X113590000Y-129540000D02*
G01*
X111790000Y-129540000D01*
X111790000Y-127740000D01*
X113590000Y-127740000D01*
X113590000Y-129540000D01*
G37*
G36*
X128590000Y-129540000D02*
G01*
X126790000Y-129540000D01*
X126790000Y-127740000D01*
X128590000Y-127740000D01*
X128590000Y-129540000D01*
G37*
G36*
X143590000Y-129540000D02*
G01*
X141790000Y-129540000D01*
X141790000Y-127740000D01*
X143590000Y-127740000D01*
X143590000Y-129540000D01*
G37*
G36*
X168590000Y-129540000D02*
G01*
X166790000Y-129540000D01*
X166790000Y-127740000D01*
X168590000Y-127740000D01*
X168590000Y-129540000D01*
G37*
G36*
X183590000Y-129540000D02*
G01*
X181790000Y-129540000D01*
X181790000Y-127740000D01*
X183590000Y-127740000D01*
X183590000Y-129540000D01*
G37*
G36*
X198590000Y-129540000D02*
G01*
X196790000Y-129540000D01*
X196790000Y-127740000D01*
X198590000Y-127740000D01*
X198590000Y-129540000D01*
G37*
G36*
X223590000Y-129540000D02*
G01*
X221790000Y-129540000D01*
X221790000Y-127740000D01*
X223590000Y-127740000D01*
X223590000Y-129540000D01*
G37*
G36*
X238590000Y-129540000D02*
G01*
X236790000Y-129540000D01*
X236790000Y-127740000D01*
X238590000Y-127740000D01*
X238590000Y-129540000D01*
G37*
G36*
X253590000Y-129540000D02*
G01*
X251790000Y-129540000D01*
X251790000Y-127740000D01*
X253590000Y-127740000D01*
X253590000Y-129540000D01*
G37*
G36*
X58451256Y-125238754D02*
G01*
X58614257Y-125306271D01*
X58760954Y-125404291D01*
X58885709Y-125529046D01*
X58983729Y-125675743D01*
X59051246Y-125838744D01*
X59085666Y-126011785D01*
X59085666Y-126188215D01*
X59051246Y-126361256D01*
X58983729Y-126524257D01*
X58885709Y-126670954D01*
X58760954Y-126795709D01*
X58614257Y-126893729D01*
X58451256Y-126961246D01*
X58278215Y-126995666D01*
X58101785Y-126995666D01*
X57928744Y-126961246D01*
X57765743Y-126893729D01*
X57619046Y-126795709D01*
X57494291Y-126670954D01*
X57396271Y-126524257D01*
X57328754Y-126361256D01*
X57294334Y-126188215D01*
X57294334Y-126011785D01*
X57328754Y-125838744D01*
X57396271Y-125675743D01*
X57494291Y-125529046D01*
X57619046Y-125404291D01*
X57765743Y-125306271D01*
X57928744Y-125238754D01*
X58101785Y-125204334D01*
X58278215Y-125204334D01*
X58451256Y-125238754D01*
G37*
G36*
X73451256Y-125238754D02*
G01*
X73614257Y-125306271D01*
X73760954Y-125404291D01*
X73885709Y-125529046D01*
X73983729Y-125675743D01*
X74051246Y-125838744D01*
X74085666Y-126011785D01*
X74085666Y-126188215D01*
X74051246Y-126361256D01*
X73983729Y-126524257D01*
X73885709Y-126670954D01*
X73760954Y-126795709D01*
X73614257Y-126893729D01*
X73451256Y-126961246D01*
X73278215Y-126995666D01*
X73101785Y-126995666D01*
X72928744Y-126961246D01*
X72765743Y-126893729D01*
X72619046Y-126795709D01*
X72494291Y-126670954D01*
X72396271Y-126524257D01*
X72328754Y-126361256D01*
X72294334Y-126188215D01*
X72294334Y-126011785D01*
X72328754Y-125838744D01*
X72396271Y-125675743D01*
X72494291Y-125529046D01*
X72619046Y-125404291D01*
X72765743Y-125306271D01*
X72928744Y-125238754D01*
X73101785Y-125204334D01*
X73278215Y-125204334D01*
X73451256Y-125238754D01*
G37*
G36*
X88451256Y-125238754D02*
G01*
X88614257Y-125306271D01*
X88760954Y-125404291D01*
X88885709Y-125529046D01*
X88983729Y-125675743D01*
X89051246Y-125838744D01*
X89085666Y-126011785D01*
X89085666Y-126188215D01*
X89051246Y-126361256D01*
X88983729Y-126524257D01*
X88885709Y-126670954D01*
X88760954Y-126795709D01*
X88614257Y-126893729D01*
X88451256Y-126961246D01*
X88278215Y-126995666D01*
X88101785Y-126995666D01*
X87928744Y-126961246D01*
X87765743Y-126893729D01*
X87619046Y-126795709D01*
X87494291Y-126670954D01*
X87396271Y-126524257D01*
X87328754Y-126361256D01*
X87294334Y-126188215D01*
X87294334Y-126011785D01*
X87328754Y-125838744D01*
X87396271Y-125675743D01*
X87494291Y-125529046D01*
X87619046Y-125404291D01*
X87765743Y-125306271D01*
X87928744Y-125238754D01*
X88101785Y-125204334D01*
X88278215Y-125204334D01*
X88451256Y-125238754D01*
G37*
G36*
X112951256Y-125238754D02*
G01*
X113114257Y-125306271D01*
X113260954Y-125404291D01*
X113385709Y-125529046D01*
X113483729Y-125675743D01*
X113551246Y-125838744D01*
X113585666Y-126011785D01*
X113585666Y-126188215D01*
X113551246Y-126361256D01*
X113483729Y-126524257D01*
X113385709Y-126670954D01*
X113260954Y-126795709D01*
X113114257Y-126893729D01*
X112951256Y-126961246D01*
X112778215Y-126995666D01*
X112601785Y-126995666D01*
X112428744Y-126961246D01*
X112265743Y-126893729D01*
X112119046Y-126795709D01*
X111994291Y-126670954D01*
X111896271Y-126524257D01*
X111828754Y-126361256D01*
X111794334Y-126188215D01*
X111794334Y-126011785D01*
X111828754Y-125838744D01*
X111896271Y-125675743D01*
X111994291Y-125529046D01*
X112119046Y-125404291D01*
X112265743Y-125306271D01*
X112428744Y-125238754D01*
X112601785Y-125204334D01*
X112778215Y-125204334D01*
X112951256Y-125238754D01*
G37*
G36*
X127951256Y-125238754D02*
G01*
X128114257Y-125306271D01*
X128260954Y-125404291D01*
X128385709Y-125529046D01*
X128483729Y-125675743D01*
X128551246Y-125838744D01*
X128585666Y-126011785D01*
X128585666Y-126188215D01*
X128551246Y-126361256D01*
X128483729Y-126524257D01*
X128385709Y-126670954D01*
X128260954Y-126795709D01*
X128114257Y-126893729D01*
X127951256Y-126961246D01*
X127778215Y-126995666D01*
X127601785Y-126995666D01*
X127428744Y-126961246D01*
X127265743Y-126893729D01*
X127119046Y-126795709D01*
X126994291Y-126670954D01*
X126896271Y-126524257D01*
X126828754Y-126361256D01*
X126794334Y-126188215D01*
X126794334Y-126011785D01*
X126828754Y-125838744D01*
X126896271Y-125675743D01*
X126994291Y-125529046D01*
X127119046Y-125404291D01*
X127265743Y-125306271D01*
X127428744Y-125238754D01*
X127601785Y-125204334D01*
X127778215Y-125204334D01*
X127951256Y-125238754D01*
G37*
G36*
X142951256Y-125238754D02*
G01*
X143114257Y-125306271D01*
X143260954Y-125404291D01*
X143385709Y-125529046D01*
X143483729Y-125675743D01*
X143551246Y-125838744D01*
X143585666Y-126011785D01*
X143585666Y-126188215D01*
X143551246Y-126361256D01*
X143483729Y-126524257D01*
X143385709Y-126670954D01*
X143260954Y-126795709D01*
X143114257Y-126893729D01*
X142951256Y-126961246D01*
X142778215Y-126995666D01*
X142601785Y-126995666D01*
X142428744Y-126961246D01*
X142265743Y-126893729D01*
X142119046Y-126795709D01*
X141994291Y-126670954D01*
X141896271Y-126524257D01*
X141828754Y-126361256D01*
X141794334Y-126188215D01*
X141794334Y-126011785D01*
X141828754Y-125838744D01*
X141896271Y-125675743D01*
X141994291Y-125529046D01*
X142119046Y-125404291D01*
X142265743Y-125306271D01*
X142428744Y-125238754D01*
X142601785Y-125204334D01*
X142778215Y-125204334D01*
X142951256Y-125238754D01*
G37*
G36*
X167951256Y-125238754D02*
G01*
X168114257Y-125306271D01*
X168260954Y-125404291D01*
X168385709Y-125529046D01*
X168483729Y-125675743D01*
X168551246Y-125838744D01*
X168585666Y-126011785D01*
X168585666Y-126188215D01*
X168551246Y-126361256D01*
X168483729Y-126524257D01*
X168385709Y-126670954D01*
X168260954Y-126795709D01*
X168114257Y-126893729D01*
X167951256Y-126961246D01*
X167778215Y-126995666D01*
X167601785Y-126995666D01*
X167428744Y-126961246D01*
X167265743Y-126893729D01*
X167119046Y-126795709D01*
X166994291Y-126670954D01*
X166896271Y-126524257D01*
X166828754Y-126361256D01*
X166794334Y-126188215D01*
X166794334Y-126011785D01*
X166828754Y-125838744D01*
X166896271Y-125675743D01*
X166994291Y-125529046D01*
X167119046Y-125404291D01*
X167265743Y-125306271D01*
X167428744Y-125238754D01*
X167601785Y-125204334D01*
X167778215Y-125204334D01*
X167951256Y-125238754D01*
G37*
G36*
X182951256Y-125238754D02*
G01*
X183114257Y-125306271D01*
X183260954Y-125404291D01*
X183385709Y-125529046D01*
X183483729Y-125675743D01*
X183551246Y-125838744D01*
X183585666Y-126011785D01*
X183585666Y-126188215D01*
X183551246Y-126361256D01*
X183483729Y-126524257D01*
X183385709Y-126670954D01*
X183260954Y-126795709D01*
X183114257Y-126893729D01*
X182951256Y-126961246D01*
X182778215Y-126995666D01*
X182601785Y-126995666D01*
X182428744Y-126961246D01*
X182265743Y-126893729D01*
X182119046Y-126795709D01*
X181994291Y-126670954D01*
X181896271Y-126524257D01*
X181828754Y-126361256D01*
X181794334Y-126188215D01*
X181794334Y-126011785D01*
X181828754Y-125838744D01*
X181896271Y-125675743D01*
X181994291Y-125529046D01*
X182119046Y-125404291D01*
X182265743Y-125306271D01*
X182428744Y-125238754D01*
X182601785Y-125204334D01*
X182778215Y-125204334D01*
X182951256Y-125238754D01*
G37*
G36*
X197951256Y-125238754D02*
G01*
X198114257Y-125306271D01*
X198260954Y-125404291D01*
X198385709Y-125529046D01*
X198483729Y-125675743D01*
X198551246Y-125838744D01*
X198585666Y-126011785D01*
X198585666Y-126188215D01*
X198551246Y-126361256D01*
X198483729Y-126524257D01*
X198385709Y-126670954D01*
X198260954Y-126795709D01*
X198114257Y-126893729D01*
X197951256Y-126961246D01*
X197778215Y-126995666D01*
X197601785Y-126995666D01*
X197428744Y-126961246D01*
X197265743Y-126893729D01*
X197119046Y-126795709D01*
X196994291Y-126670954D01*
X196896271Y-126524257D01*
X196828754Y-126361256D01*
X196794334Y-126188215D01*
X196794334Y-126011785D01*
X196828754Y-125838744D01*
X196896271Y-125675743D01*
X196994291Y-125529046D01*
X197119046Y-125404291D01*
X197265743Y-125306271D01*
X197428744Y-125238754D01*
X197601785Y-125204334D01*
X197778215Y-125204334D01*
X197951256Y-125238754D01*
G37*
G36*
X222951256Y-125238754D02*
G01*
X223114257Y-125306271D01*
X223260954Y-125404291D01*
X223385709Y-125529046D01*
X223483729Y-125675743D01*
X223551246Y-125838744D01*
X223585666Y-126011785D01*
X223585666Y-126188215D01*
X223551246Y-126361256D01*
X223483729Y-126524257D01*
X223385709Y-126670954D01*
X223260954Y-126795709D01*
X223114257Y-126893729D01*
X222951256Y-126961246D01*
X222778215Y-126995666D01*
X222601785Y-126995666D01*
X222428744Y-126961246D01*
X222265743Y-126893729D01*
X222119046Y-126795709D01*
X221994291Y-126670954D01*
X221896271Y-126524257D01*
X221828754Y-126361256D01*
X221794334Y-126188215D01*
X221794334Y-126011785D01*
X221828754Y-125838744D01*
X221896271Y-125675743D01*
X221994291Y-125529046D01*
X222119046Y-125404291D01*
X222265743Y-125306271D01*
X222428744Y-125238754D01*
X222601785Y-125204334D01*
X222778215Y-125204334D01*
X222951256Y-125238754D01*
G37*
G36*
X237951256Y-125238754D02*
G01*
X238114257Y-125306271D01*
X238260954Y-125404291D01*
X238385709Y-125529046D01*
X238483729Y-125675743D01*
X238551246Y-125838744D01*
X238585666Y-126011785D01*
X238585666Y-126188215D01*
X238551246Y-126361256D01*
X238483729Y-126524257D01*
X238385709Y-126670954D01*
X238260954Y-126795709D01*
X238114257Y-126893729D01*
X237951256Y-126961246D01*
X237778215Y-126995666D01*
X237601785Y-126995666D01*
X237428744Y-126961246D01*
X237265743Y-126893729D01*
X237119046Y-126795709D01*
X236994291Y-126670954D01*
X236896271Y-126524257D01*
X236828754Y-126361256D01*
X236794334Y-126188215D01*
X236794334Y-126011785D01*
X236828754Y-125838744D01*
X236896271Y-125675743D01*
X236994291Y-125529046D01*
X237119046Y-125404291D01*
X237265743Y-125306271D01*
X237428744Y-125238754D01*
X237601785Y-125204334D01*
X237778215Y-125204334D01*
X237951256Y-125238754D01*
G37*
G36*
X252951256Y-125238754D02*
G01*
X253114257Y-125306271D01*
X253260954Y-125404291D01*
X253385709Y-125529046D01*
X253483729Y-125675743D01*
X253551246Y-125838744D01*
X253585666Y-126011785D01*
X253585666Y-126188215D01*
X253551246Y-126361256D01*
X253483729Y-126524257D01*
X253385709Y-126670954D01*
X253260954Y-126795709D01*
X253114257Y-126893729D01*
X252951256Y-126961246D01*
X252778215Y-126995666D01*
X252601785Y-126995666D01*
X252428744Y-126961246D01*
X252265743Y-126893729D01*
X252119046Y-126795709D01*
X251994291Y-126670954D01*
X251896271Y-126524257D01*
X251828754Y-126361256D01*
X251794334Y-126188215D01*
X251794334Y-126011785D01*
X251828754Y-125838744D01*
X251896271Y-125675743D01*
X251994291Y-125529046D01*
X252119046Y-125404291D01*
X252265743Y-125306271D01*
X252428744Y-125238754D01*
X252601785Y-125204334D01*
X252778215Y-125204334D01*
X252951256Y-125238754D01*
G37*
G36*
X73540168Y-116381445D02*
G01*
X73764025Y-116454181D01*
X73973748Y-116561040D01*
X74164172Y-116699391D01*
X74330609Y-116865828D01*
X74468960Y-117056252D01*
X74575819Y-117265975D01*
X74648555Y-117489832D01*
X74685376Y-117722311D01*
X74685376Y-117957689D01*
X74648555Y-118190168D01*
X74575819Y-118414025D01*
X74468960Y-118623748D01*
X74330609Y-118814172D01*
X74164172Y-118980609D01*
X73973748Y-119118960D01*
X73764025Y-119225819D01*
X73540168Y-119298555D01*
X73307689Y-119335376D01*
X73072311Y-119335376D01*
X72839832Y-119298555D01*
X72615975Y-119225819D01*
X72406252Y-119118960D01*
X72215828Y-118980609D01*
X72049391Y-118814172D01*
X71911040Y-118623748D01*
X71804181Y-118414025D01*
X71731445Y-118190168D01*
X71694624Y-117957689D01*
X71694624Y-117722311D01*
X71731445Y-117489832D01*
X71804181Y-117265975D01*
X71911040Y-117056252D01*
X72049391Y-116865828D01*
X72215828Y-116699391D01*
X72406252Y-116561040D01*
X72615975Y-116454181D01*
X72839832Y-116381445D01*
X73072311Y-116344624D01*
X73307689Y-116344624D01*
X73540168Y-116381445D01*
G37*
G36*
X88540168Y-116381445D02*
G01*
X88764025Y-116454181D01*
X88973748Y-116561040D01*
X89164172Y-116699391D01*
X89330609Y-116865828D01*
X89468960Y-117056252D01*
X89575819Y-117265975D01*
X89648555Y-117489832D01*
X89685376Y-117722311D01*
X89685376Y-117957689D01*
X89648555Y-118190168D01*
X89575819Y-118414025D01*
X89468960Y-118623748D01*
X89330609Y-118814172D01*
X89164172Y-118980609D01*
X88973748Y-119118960D01*
X88764025Y-119225819D01*
X88540168Y-119298555D01*
X88307689Y-119335376D01*
X88072311Y-119335376D01*
X87839832Y-119298555D01*
X87615975Y-119225819D01*
X87406252Y-119118960D01*
X87215828Y-118980609D01*
X87049391Y-118814172D01*
X86911040Y-118623748D01*
X86804181Y-118414025D01*
X86731445Y-118190168D01*
X86694624Y-117957689D01*
X86694624Y-117722311D01*
X86731445Y-117489832D01*
X86804181Y-117265975D01*
X86911040Y-117056252D01*
X87049391Y-116865828D01*
X87215828Y-116699391D01*
X87406252Y-116561040D01*
X87615975Y-116454181D01*
X87839832Y-116381445D01*
X88072311Y-116344624D01*
X88307689Y-116344624D01*
X88540168Y-116381445D01*
G37*
G36*
X113040168Y-116381445D02*
G01*
X113264025Y-116454181D01*
X113473748Y-116561040D01*
X113664172Y-116699391D01*
X113830609Y-116865828D01*
X113968960Y-117056252D01*
X114075819Y-117265975D01*
X114148555Y-117489832D01*
X114185376Y-117722311D01*
X114185376Y-117957689D01*
X114148555Y-118190168D01*
X114075819Y-118414025D01*
X113968960Y-118623748D01*
X113830609Y-118814172D01*
X113664172Y-118980609D01*
X113473748Y-119118960D01*
X113264025Y-119225819D01*
X113040168Y-119298555D01*
X112807689Y-119335376D01*
X112572311Y-119335376D01*
X112339832Y-119298555D01*
X112115975Y-119225819D01*
X111906252Y-119118960D01*
X111715828Y-118980609D01*
X111549391Y-118814172D01*
X111411040Y-118623748D01*
X111304181Y-118414025D01*
X111231445Y-118190168D01*
X111194624Y-117957689D01*
X111194624Y-117722311D01*
X111231445Y-117489832D01*
X111304181Y-117265975D01*
X111411040Y-117056252D01*
X111549391Y-116865828D01*
X111715828Y-116699391D01*
X111906252Y-116561040D01*
X112115975Y-116454181D01*
X112339832Y-116381445D01*
X112572311Y-116344624D01*
X112807689Y-116344624D01*
X113040168Y-116381445D01*
G37*
G36*
X128040168Y-116381445D02*
G01*
X128264025Y-116454181D01*
X128473748Y-116561040D01*
X128664172Y-116699391D01*
X128830609Y-116865828D01*
X128968960Y-117056252D01*
X129075819Y-117265975D01*
X129148555Y-117489832D01*
X129185376Y-117722311D01*
X129185376Y-117957689D01*
X129148555Y-118190168D01*
X129075819Y-118414025D01*
X128968960Y-118623748D01*
X128830609Y-118814172D01*
X128664172Y-118980609D01*
X128473748Y-119118960D01*
X128264025Y-119225819D01*
X128040168Y-119298555D01*
X127807689Y-119335376D01*
X127572311Y-119335376D01*
X127339832Y-119298555D01*
X127115975Y-119225819D01*
X126906252Y-119118960D01*
X126715828Y-118980609D01*
X126549391Y-118814172D01*
X126411040Y-118623748D01*
X126304181Y-118414025D01*
X126231445Y-118190168D01*
X126194624Y-117957689D01*
X126194624Y-117722311D01*
X126231445Y-117489832D01*
X126304181Y-117265975D01*
X126411040Y-117056252D01*
X126549391Y-116865828D01*
X126715828Y-116699391D01*
X126906252Y-116561040D01*
X127115975Y-116454181D01*
X127339832Y-116381445D01*
X127572311Y-116344624D01*
X127807689Y-116344624D01*
X128040168Y-116381445D01*
G37*
G36*
X143040168Y-116381445D02*
G01*
X143264025Y-116454181D01*
X143473748Y-116561040D01*
X143664172Y-116699391D01*
X143830609Y-116865828D01*
X143968960Y-117056252D01*
X144075819Y-117265975D01*
X144148555Y-117489832D01*
X144185376Y-117722311D01*
X144185376Y-117957689D01*
X144148555Y-118190168D01*
X144075819Y-118414025D01*
X143968960Y-118623748D01*
X143830609Y-118814172D01*
X143664172Y-118980609D01*
X143473748Y-119118960D01*
X143264025Y-119225819D01*
X143040168Y-119298555D01*
X142807689Y-119335376D01*
X142572311Y-119335376D01*
X142339832Y-119298555D01*
X142115975Y-119225819D01*
X141906252Y-119118960D01*
X141715828Y-118980609D01*
X141549391Y-118814172D01*
X141411040Y-118623748D01*
X141304181Y-118414025D01*
X141231445Y-118190168D01*
X141194624Y-117957689D01*
X141194624Y-117722311D01*
X141231445Y-117489832D01*
X141304181Y-117265975D01*
X141411040Y-117056252D01*
X141549391Y-116865828D01*
X141715828Y-116699391D01*
X141906252Y-116561040D01*
X142115975Y-116454181D01*
X142339832Y-116381445D01*
X142572311Y-116344624D01*
X142807689Y-116344624D01*
X143040168Y-116381445D01*
G37*
G36*
X168040168Y-116381445D02*
G01*
X168264025Y-116454181D01*
X168473748Y-116561040D01*
X168664172Y-116699391D01*
X168830609Y-116865828D01*
X168968960Y-117056252D01*
X169075819Y-117265975D01*
X169148555Y-117489832D01*
X169185376Y-117722311D01*
X169185376Y-117957689D01*
X169148555Y-118190168D01*
X169075819Y-118414025D01*
X168968960Y-118623748D01*
X168830609Y-118814172D01*
X168664172Y-118980609D01*
X168473748Y-119118960D01*
X168264025Y-119225819D01*
X168040168Y-119298555D01*
X167807689Y-119335376D01*
X167572311Y-119335376D01*
X167339832Y-119298555D01*
X167115975Y-119225819D01*
X166906252Y-119118960D01*
X166715828Y-118980609D01*
X166549391Y-118814172D01*
X166411040Y-118623748D01*
X166304181Y-118414025D01*
X166231445Y-118190168D01*
X166194624Y-117957689D01*
X166194624Y-117722311D01*
X166231445Y-117489832D01*
X166304181Y-117265975D01*
X166411040Y-117056252D01*
X166549391Y-116865828D01*
X166715828Y-116699391D01*
X166906252Y-116561040D01*
X167115975Y-116454181D01*
X167339832Y-116381445D01*
X167572311Y-116344624D01*
X167807689Y-116344624D01*
X168040168Y-116381445D01*
G37*
G36*
X183040168Y-116381445D02*
G01*
X183264025Y-116454181D01*
X183473748Y-116561040D01*
X183664172Y-116699391D01*
X183830609Y-116865828D01*
X183968960Y-117056252D01*
X184075819Y-117265975D01*
X184148555Y-117489832D01*
X184185376Y-117722311D01*
X184185376Y-117957689D01*
X184148555Y-118190168D01*
X184075819Y-118414025D01*
X183968960Y-118623748D01*
X183830609Y-118814172D01*
X183664172Y-118980609D01*
X183473748Y-119118960D01*
X183264025Y-119225819D01*
X183040168Y-119298555D01*
X182807689Y-119335376D01*
X182572311Y-119335376D01*
X182339832Y-119298555D01*
X182115975Y-119225819D01*
X181906252Y-119118960D01*
X181715828Y-118980609D01*
X181549391Y-118814172D01*
X181411040Y-118623748D01*
X181304181Y-118414025D01*
X181231445Y-118190168D01*
X181194624Y-117957689D01*
X181194624Y-117722311D01*
X181231445Y-117489832D01*
X181304181Y-117265975D01*
X181411040Y-117056252D01*
X181549391Y-116865828D01*
X181715828Y-116699391D01*
X181906252Y-116561040D01*
X182115975Y-116454181D01*
X182339832Y-116381445D01*
X182572311Y-116344624D01*
X182807689Y-116344624D01*
X183040168Y-116381445D01*
G37*
G36*
X198040168Y-116381445D02*
G01*
X198264025Y-116454181D01*
X198473748Y-116561040D01*
X198664172Y-116699391D01*
X198830609Y-116865828D01*
X198968960Y-117056252D01*
X199075819Y-117265975D01*
X199148555Y-117489832D01*
X199185376Y-117722311D01*
X199185376Y-117957689D01*
X199148555Y-118190168D01*
X199075819Y-118414025D01*
X198968960Y-118623748D01*
X198830609Y-118814172D01*
X198664172Y-118980609D01*
X198473748Y-119118960D01*
X198264025Y-119225819D01*
X198040168Y-119298555D01*
X197807689Y-119335376D01*
X197572311Y-119335376D01*
X197339832Y-119298555D01*
X197115975Y-119225819D01*
X196906252Y-119118960D01*
X196715828Y-118980609D01*
X196549391Y-118814172D01*
X196411040Y-118623748D01*
X196304181Y-118414025D01*
X196231445Y-118190168D01*
X196194624Y-117957689D01*
X196194624Y-117722311D01*
X196231445Y-117489832D01*
X196304181Y-117265975D01*
X196411040Y-117056252D01*
X196549391Y-116865828D01*
X196715828Y-116699391D01*
X196906252Y-116561040D01*
X197115975Y-116454181D01*
X197339832Y-116381445D01*
X197572311Y-116344624D01*
X197807689Y-116344624D01*
X198040168Y-116381445D01*
G37*
G36*
X223040168Y-116381445D02*
G01*
X223264025Y-116454181D01*
X223473748Y-116561040D01*
X223664172Y-116699391D01*
X223830609Y-116865828D01*
X223968960Y-117056252D01*
X224075819Y-117265975D01*
X224148555Y-117489832D01*
X224185376Y-117722311D01*
X224185376Y-117957689D01*
X224148555Y-118190168D01*
X224075819Y-118414025D01*
X223968960Y-118623748D01*
X223830609Y-118814172D01*
X223664172Y-118980609D01*
X223473748Y-119118960D01*
X223264025Y-119225819D01*
X223040168Y-119298555D01*
X222807689Y-119335376D01*
X222572311Y-119335376D01*
X222339832Y-119298555D01*
X222115975Y-119225819D01*
X221906252Y-119118960D01*
X221715828Y-118980609D01*
X221549391Y-118814172D01*
X221411040Y-118623748D01*
X221304181Y-118414025D01*
X221231445Y-118190168D01*
X221194624Y-117957689D01*
X221194624Y-117722311D01*
X221231445Y-117489832D01*
X221304181Y-117265975D01*
X221411040Y-117056252D01*
X221549391Y-116865828D01*
X221715828Y-116699391D01*
X221906252Y-116561040D01*
X222115975Y-116454181D01*
X222339832Y-116381445D01*
X222572311Y-116344624D01*
X222807689Y-116344624D01*
X223040168Y-116381445D01*
G37*
G36*
X238040168Y-116381445D02*
G01*
X238264025Y-116454181D01*
X238473748Y-116561040D01*
X238664172Y-116699391D01*
X238830609Y-116865828D01*
X238968960Y-117056252D01*
X239075819Y-117265975D01*
X239148555Y-117489832D01*
X239185376Y-117722311D01*
X239185376Y-117957689D01*
X239148555Y-118190168D01*
X239075819Y-118414025D01*
X238968960Y-118623748D01*
X238830609Y-118814172D01*
X238664172Y-118980609D01*
X238473748Y-119118960D01*
X238264025Y-119225819D01*
X238040168Y-119298555D01*
X237807689Y-119335376D01*
X237572311Y-119335376D01*
X237339832Y-119298555D01*
X237115975Y-119225819D01*
X236906252Y-119118960D01*
X236715828Y-118980609D01*
X236549391Y-118814172D01*
X236411040Y-118623748D01*
X236304181Y-118414025D01*
X236231445Y-118190168D01*
X236194624Y-117957689D01*
X236194624Y-117722311D01*
X236231445Y-117489832D01*
X236304181Y-117265975D01*
X236411040Y-117056252D01*
X236549391Y-116865828D01*
X236715828Y-116699391D01*
X236906252Y-116561040D01*
X237115975Y-116454181D01*
X237339832Y-116381445D01*
X237572311Y-116344624D01*
X237807689Y-116344624D01*
X238040168Y-116381445D01*
G37*
G36*
X253040168Y-116381445D02*
G01*
X253264025Y-116454181D01*
X253473748Y-116561040D01*
X253664172Y-116699391D01*
X253830609Y-116865828D01*
X253968960Y-117056252D01*
X254075819Y-117265975D01*
X254148555Y-117489832D01*
X254185376Y-117722311D01*
X254185376Y-117957689D01*
X254148555Y-118190168D01*
X254075819Y-118414025D01*
X253968960Y-118623748D01*
X253830609Y-118814172D01*
X253664172Y-118980609D01*
X253473748Y-119118960D01*
X253264025Y-119225819D01*
X253040168Y-119298555D01*
X252807689Y-119335376D01*
X252572311Y-119335376D01*
X252339832Y-119298555D01*
X252115975Y-119225819D01*
X251906252Y-119118960D01*
X251715828Y-118980609D01*
X251549391Y-118814172D01*
X251411040Y-118623748D01*
X251304181Y-118414025D01*
X251231445Y-118190168D01*
X251194624Y-117957689D01*
X251194624Y-117722311D01*
X251231445Y-117489832D01*
X251304181Y-117265975D01*
X251411040Y-117056252D01*
X251549391Y-116865828D01*
X251715828Y-116699391D01*
X251906252Y-116561040D01*
X252115975Y-116454181D01*
X252339832Y-116381445D01*
X252572311Y-116344624D01*
X252807689Y-116344624D01*
X253040168Y-116381445D01*
G37*
G36*
X58520168Y-116341445D02*
G01*
X58744025Y-116414181D01*
X58953748Y-116521040D01*
X59144172Y-116659391D01*
X59310609Y-116825828D01*
X59448960Y-117016252D01*
X59555819Y-117225975D01*
X59628555Y-117449832D01*
X59665376Y-117682311D01*
X59665376Y-117917689D01*
X59628555Y-118150168D01*
X59555819Y-118374025D01*
X59448960Y-118583748D01*
X59310609Y-118774172D01*
X59144172Y-118940609D01*
X58953748Y-119078960D01*
X58744025Y-119185819D01*
X58520168Y-119258555D01*
X58287689Y-119295376D01*
X58052311Y-119295376D01*
X57819832Y-119258555D01*
X57595975Y-119185819D01*
X57386252Y-119078960D01*
X57195828Y-118940609D01*
X57029391Y-118774172D01*
X56891040Y-118583748D01*
X56784181Y-118374025D01*
X56711445Y-118150168D01*
X56674624Y-117917689D01*
X56674624Y-117682311D01*
X56711445Y-117449832D01*
X56784181Y-117225975D01*
X56891040Y-117016252D01*
X57029391Y-116825828D01*
X57195828Y-116659391D01*
X57386252Y-116521040D01*
X57595975Y-116414181D01*
X57819832Y-116341445D01*
X58052311Y-116304624D01*
X58287689Y-116304624D01*
X58520168Y-116341445D01*
G37*
G36*
X73540168Y-104981445D02*
G01*
X73764025Y-105054181D01*
X73973748Y-105161040D01*
X74164172Y-105299391D01*
X74330609Y-105465828D01*
X74468960Y-105656252D01*
X74575819Y-105865975D01*
X74648555Y-106089832D01*
X74685376Y-106322311D01*
X74685376Y-106557689D01*
X74648555Y-106790168D01*
X74575819Y-107014025D01*
X74468960Y-107223748D01*
X74330609Y-107414172D01*
X74164172Y-107580609D01*
X73973748Y-107718960D01*
X73764025Y-107825819D01*
X73540168Y-107898555D01*
X73307689Y-107935376D01*
X73072311Y-107935376D01*
X72839832Y-107898555D01*
X72615975Y-107825819D01*
X72406252Y-107718960D01*
X72215828Y-107580609D01*
X72049391Y-107414172D01*
X71911040Y-107223748D01*
X71804181Y-107014025D01*
X71731445Y-106790168D01*
X71694624Y-106557689D01*
X71694624Y-106322311D01*
X71731445Y-106089832D01*
X71804181Y-105865975D01*
X71911040Y-105656252D01*
X72049391Y-105465828D01*
X72215828Y-105299391D01*
X72406252Y-105161040D01*
X72615975Y-105054181D01*
X72839832Y-104981445D01*
X73072311Y-104944624D01*
X73307689Y-104944624D01*
X73540168Y-104981445D01*
G37*
G36*
X88540168Y-104981445D02*
G01*
X88764025Y-105054181D01*
X88973748Y-105161040D01*
X89164172Y-105299391D01*
X89330609Y-105465828D01*
X89468960Y-105656252D01*
X89575819Y-105865975D01*
X89648555Y-106089832D01*
X89685376Y-106322311D01*
X89685376Y-106557689D01*
X89648555Y-106790168D01*
X89575819Y-107014025D01*
X89468960Y-107223748D01*
X89330609Y-107414172D01*
X89164172Y-107580609D01*
X88973748Y-107718960D01*
X88764025Y-107825819D01*
X88540168Y-107898555D01*
X88307689Y-107935376D01*
X88072311Y-107935376D01*
X87839832Y-107898555D01*
X87615975Y-107825819D01*
X87406252Y-107718960D01*
X87215828Y-107580609D01*
X87049391Y-107414172D01*
X86911040Y-107223748D01*
X86804181Y-107014025D01*
X86731445Y-106790168D01*
X86694624Y-106557689D01*
X86694624Y-106322311D01*
X86731445Y-106089832D01*
X86804181Y-105865975D01*
X86911040Y-105656252D01*
X87049391Y-105465828D01*
X87215828Y-105299391D01*
X87406252Y-105161040D01*
X87615975Y-105054181D01*
X87839832Y-104981445D01*
X88072311Y-104944624D01*
X88307689Y-104944624D01*
X88540168Y-104981445D01*
G37*
G36*
X113040168Y-104981445D02*
G01*
X113264025Y-105054181D01*
X113473748Y-105161040D01*
X113664172Y-105299391D01*
X113830609Y-105465828D01*
X113968960Y-105656252D01*
X114075819Y-105865975D01*
X114148555Y-106089832D01*
X114185376Y-106322311D01*
X114185376Y-106557689D01*
X114148555Y-106790168D01*
X114075819Y-107014025D01*
X113968960Y-107223748D01*
X113830609Y-107414172D01*
X113664172Y-107580609D01*
X113473748Y-107718960D01*
X113264025Y-107825819D01*
X113040168Y-107898555D01*
X112807689Y-107935376D01*
X112572311Y-107935376D01*
X112339832Y-107898555D01*
X112115975Y-107825819D01*
X111906252Y-107718960D01*
X111715828Y-107580609D01*
X111549391Y-107414172D01*
X111411040Y-107223748D01*
X111304181Y-107014025D01*
X111231445Y-106790168D01*
X111194624Y-106557689D01*
X111194624Y-106322311D01*
X111231445Y-106089832D01*
X111304181Y-105865975D01*
X111411040Y-105656252D01*
X111549391Y-105465828D01*
X111715828Y-105299391D01*
X111906252Y-105161040D01*
X112115975Y-105054181D01*
X112339832Y-104981445D01*
X112572311Y-104944624D01*
X112807689Y-104944624D01*
X113040168Y-104981445D01*
G37*
G36*
X128040168Y-104981445D02*
G01*
X128264025Y-105054181D01*
X128473748Y-105161040D01*
X128664172Y-105299391D01*
X128830609Y-105465828D01*
X128968960Y-105656252D01*
X129075819Y-105865975D01*
X129148555Y-106089832D01*
X129185376Y-106322311D01*
X129185376Y-106557689D01*
X129148555Y-106790168D01*
X129075819Y-107014025D01*
X128968960Y-107223748D01*
X128830609Y-107414172D01*
X128664172Y-107580609D01*
X128473748Y-107718960D01*
X128264025Y-107825819D01*
X128040168Y-107898555D01*
X127807689Y-107935376D01*
X127572311Y-107935376D01*
X127339832Y-107898555D01*
X127115975Y-107825819D01*
X126906252Y-107718960D01*
X126715828Y-107580609D01*
X126549391Y-107414172D01*
X126411040Y-107223748D01*
X126304181Y-107014025D01*
X126231445Y-106790168D01*
X126194624Y-106557689D01*
X126194624Y-106322311D01*
X126231445Y-106089832D01*
X126304181Y-105865975D01*
X126411040Y-105656252D01*
X126549391Y-105465828D01*
X126715828Y-105299391D01*
X126906252Y-105161040D01*
X127115975Y-105054181D01*
X127339832Y-104981445D01*
X127572311Y-104944624D01*
X127807689Y-104944624D01*
X128040168Y-104981445D01*
G37*
G36*
X143040168Y-104981445D02*
G01*
X143264025Y-105054181D01*
X143473748Y-105161040D01*
X143664172Y-105299391D01*
X143830609Y-105465828D01*
X143968960Y-105656252D01*
X144075819Y-105865975D01*
X144148555Y-106089832D01*
X144185376Y-106322311D01*
X144185376Y-106557689D01*
X144148555Y-106790168D01*
X144075819Y-107014025D01*
X143968960Y-107223748D01*
X143830609Y-107414172D01*
X143664172Y-107580609D01*
X143473748Y-107718960D01*
X143264025Y-107825819D01*
X143040168Y-107898555D01*
X142807689Y-107935376D01*
X142572311Y-107935376D01*
X142339832Y-107898555D01*
X142115975Y-107825819D01*
X141906252Y-107718960D01*
X141715828Y-107580609D01*
X141549391Y-107414172D01*
X141411040Y-107223748D01*
X141304181Y-107014025D01*
X141231445Y-106790168D01*
X141194624Y-106557689D01*
X141194624Y-106322311D01*
X141231445Y-106089832D01*
X141304181Y-105865975D01*
X141411040Y-105656252D01*
X141549391Y-105465828D01*
X141715828Y-105299391D01*
X141906252Y-105161040D01*
X142115975Y-105054181D01*
X142339832Y-104981445D01*
X142572311Y-104944624D01*
X142807689Y-104944624D01*
X143040168Y-104981445D01*
G37*
G36*
X168040168Y-104981445D02*
G01*
X168264025Y-105054181D01*
X168473748Y-105161040D01*
X168664172Y-105299391D01*
X168830609Y-105465828D01*
X168968960Y-105656252D01*
X169075819Y-105865975D01*
X169148555Y-106089832D01*
X169185376Y-106322311D01*
X169185376Y-106557689D01*
X169148555Y-106790168D01*
X169075819Y-107014025D01*
X168968960Y-107223748D01*
X168830609Y-107414172D01*
X168664172Y-107580609D01*
X168473748Y-107718960D01*
X168264025Y-107825819D01*
X168040168Y-107898555D01*
X167807689Y-107935376D01*
X167572311Y-107935376D01*
X167339832Y-107898555D01*
X167115975Y-107825819D01*
X166906252Y-107718960D01*
X166715828Y-107580609D01*
X166549391Y-107414172D01*
X166411040Y-107223748D01*
X166304181Y-107014025D01*
X166231445Y-106790168D01*
X166194624Y-106557689D01*
X166194624Y-106322311D01*
X166231445Y-106089832D01*
X166304181Y-105865975D01*
X166411040Y-105656252D01*
X166549391Y-105465828D01*
X166715828Y-105299391D01*
X166906252Y-105161040D01*
X167115975Y-105054181D01*
X167339832Y-104981445D01*
X167572311Y-104944624D01*
X167807689Y-104944624D01*
X168040168Y-104981445D01*
G37*
G36*
X183040168Y-104981445D02*
G01*
X183264025Y-105054181D01*
X183473748Y-105161040D01*
X183664172Y-105299391D01*
X183830609Y-105465828D01*
X183968960Y-105656252D01*
X184075819Y-105865975D01*
X184148555Y-106089832D01*
X184185376Y-106322311D01*
X184185376Y-106557689D01*
X184148555Y-106790168D01*
X184075819Y-107014025D01*
X183968960Y-107223748D01*
X183830609Y-107414172D01*
X183664172Y-107580609D01*
X183473748Y-107718960D01*
X183264025Y-107825819D01*
X183040168Y-107898555D01*
X182807689Y-107935376D01*
X182572311Y-107935376D01*
X182339832Y-107898555D01*
X182115975Y-107825819D01*
X181906252Y-107718960D01*
X181715828Y-107580609D01*
X181549391Y-107414172D01*
X181411040Y-107223748D01*
X181304181Y-107014025D01*
X181231445Y-106790168D01*
X181194624Y-106557689D01*
X181194624Y-106322311D01*
X181231445Y-106089832D01*
X181304181Y-105865975D01*
X181411040Y-105656252D01*
X181549391Y-105465828D01*
X181715828Y-105299391D01*
X181906252Y-105161040D01*
X182115975Y-105054181D01*
X182339832Y-104981445D01*
X182572311Y-104944624D01*
X182807689Y-104944624D01*
X183040168Y-104981445D01*
G37*
G36*
X198040168Y-104981445D02*
G01*
X198264025Y-105054181D01*
X198473748Y-105161040D01*
X198664172Y-105299391D01*
X198830609Y-105465828D01*
X198968960Y-105656252D01*
X199075819Y-105865975D01*
X199148555Y-106089832D01*
X199185376Y-106322311D01*
X199185376Y-106557689D01*
X199148555Y-106790168D01*
X199075819Y-107014025D01*
X198968960Y-107223748D01*
X198830609Y-107414172D01*
X198664172Y-107580609D01*
X198473748Y-107718960D01*
X198264025Y-107825819D01*
X198040168Y-107898555D01*
X197807689Y-107935376D01*
X197572311Y-107935376D01*
X197339832Y-107898555D01*
X197115975Y-107825819D01*
X196906252Y-107718960D01*
X196715828Y-107580609D01*
X196549391Y-107414172D01*
X196411040Y-107223748D01*
X196304181Y-107014025D01*
X196231445Y-106790168D01*
X196194624Y-106557689D01*
X196194624Y-106322311D01*
X196231445Y-106089832D01*
X196304181Y-105865975D01*
X196411040Y-105656252D01*
X196549391Y-105465828D01*
X196715828Y-105299391D01*
X196906252Y-105161040D01*
X197115975Y-105054181D01*
X197339832Y-104981445D01*
X197572311Y-104944624D01*
X197807689Y-104944624D01*
X198040168Y-104981445D01*
G37*
G36*
X223040168Y-104981445D02*
G01*
X223264025Y-105054181D01*
X223473748Y-105161040D01*
X223664172Y-105299391D01*
X223830609Y-105465828D01*
X223968960Y-105656252D01*
X224075819Y-105865975D01*
X224148555Y-106089832D01*
X224185376Y-106322311D01*
X224185376Y-106557689D01*
X224148555Y-106790168D01*
X224075819Y-107014025D01*
X223968960Y-107223748D01*
X223830609Y-107414172D01*
X223664172Y-107580609D01*
X223473748Y-107718960D01*
X223264025Y-107825819D01*
X223040168Y-107898555D01*
X222807689Y-107935376D01*
X222572311Y-107935376D01*
X222339832Y-107898555D01*
X222115975Y-107825819D01*
X221906252Y-107718960D01*
X221715828Y-107580609D01*
X221549391Y-107414172D01*
X221411040Y-107223748D01*
X221304181Y-107014025D01*
X221231445Y-106790168D01*
X221194624Y-106557689D01*
X221194624Y-106322311D01*
X221231445Y-106089832D01*
X221304181Y-105865975D01*
X221411040Y-105656252D01*
X221549391Y-105465828D01*
X221715828Y-105299391D01*
X221906252Y-105161040D01*
X222115975Y-105054181D01*
X222339832Y-104981445D01*
X222572311Y-104944624D01*
X222807689Y-104944624D01*
X223040168Y-104981445D01*
G37*
G36*
X238040168Y-104981445D02*
G01*
X238264025Y-105054181D01*
X238473748Y-105161040D01*
X238664172Y-105299391D01*
X238830609Y-105465828D01*
X238968960Y-105656252D01*
X239075819Y-105865975D01*
X239148555Y-106089832D01*
X239185376Y-106322311D01*
X239185376Y-106557689D01*
X239148555Y-106790168D01*
X239075819Y-107014025D01*
X238968960Y-107223748D01*
X238830609Y-107414172D01*
X238664172Y-107580609D01*
X238473748Y-107718960D01*
X238264025Y-107825819D01*
X238040168Y-107898555D01*
X237807689Y-107935376D01*
X237572311Y-107935376D01*
X237339832Y-107898555D01*
X237115975Y-107825819D01*
X236906252Y-107718960D01*
X236715828Y-107580609D01*
X236549391Y-107414172D01*
X236411040Y-107223748D01*
X236304181Y-107014025D01*
X236231445Y-106790168D01*
X236194624Y-106557689D01*
X236194624Y-106322311D01*
X236231445Y-106089832D01*
X236304181Y-105865975D01*
X236411040Y-105656252D01*
X236549391Y-105465828D01*
X236715828Y-105299391D01*
X236906252Y-105161040D01*
X237115975Y-105054181D01*
X237339832Y-104981445D01*
X237572311Y-104944624D01*
X237807689Y-104944624D01*
X238040168Y-104981445D01*
G37*
G36*
X253040168Y-104981445D02*
G01*
X253264025Y-105054181D01*
X253473748Y-105161040D01*
X253664172Y-105299391D01*
X253830609Y-105465828D01*
X253968960Y-105656252D01*
X254075819Y-105865975D01*
X254148555Y-106089832D01*
X254185376Y-106322311D01*
X254185376Y-106557689D01*
X254148555Y-106790168D01*
X254075819Y-107014025D01*
X253968960Y-107223748D01*
X253830609Y-107414172D01*
X253664172Y-107580609D01*
X253473748Y-107718960D01*
X253264025Y-107825819D01*
X253040168Y-107898555D01*
X252807689Y-107935376D01*
X252572311Y-107935376D01*
X252339832Y-107898555D01*
X252115975Y-107825819D01*
X251906252Y-107718960D01*
X251715828Y-107580609D01*
X251549391Y-107414172D01*
X251411040Y-107223748D01*
X251304181Y-107014025D01*
X251231445Y-106790168D01*
X251194624Y-106557689D01*
X251194624Y-106322311D01*
X251231445Y-106089832D01*
X251304181Y-105865975D01*
X251411040Y-105656252D01*
X251549391Y-105465828D01*
X251715828Y-105299391D01*
X251906252Y-105161040D01*
X252115975Y-105054181D01*
X252339832Y-104981445D01*
X252572311Y-104944624D01*
X252807689Y-104944624D01*
X253040168Y-104981445D01*
G37*
G36*
X58520168Y-104941445D02*
G01*
X58744025Y-105014181D01*
X58953748Y-105121040D01*
X59144172Y-105259391D01*
X59310609Y-105425828D01*
X59448960Y-105616252D01*
X59555819Y-105825975D01*
X59628555Y-106049832D01*
X59665376Y-106282311D01*
X59665376Y-106517689D01*
X59628555Y-106750168D01*
X59555819Y-106974025D01*
X59448960Y-107183748D01*
X59310609Y-107374172D01*
X59144172Y-107540609D01*
X58953748Y-107678960D01*
X58744025Y-107785819D01*
X58520168Y-107858555D01*
X58287689Y-107895376D01*
X58052311Y-107895376D01*
X57819832Y-107858555D01*
X57595975Y-107785819D01*
X57386252Y-107678960D01*
X57195828Y-107540609D01*
X57029391Y-107374172D01*
X56891040Y-107183748D01*
X56784181Y-106974025D01*
X56711445Y-106750168D01*
X56674624Y-106517689D01*
X56674624Y-106282311D01*
X56711445Y-106049832D01*
X56784181Y-105825975D01*
X56891040Y-105616252D01*
X57029391Y-105425828D01*
X57195828Y-105259391D01*
X57386252Y-105121040D01*
X57595975Y-105014181D01*
X57819832Y-104941445D01*
X58052311Y-104904624D01*
X58287689Y-104904624D01*
X58520168Y-104941445D01*
G37*
G36*
X73611408Y-90353626D02*
G01*
X73832519Y-90412872D01*
X74044005Y-90500473D01*
X74242248Y-90614928D01*
X74423855Y-90754280D01*
X74585720Y-90916145D01*
X74725072Y-91097752D01*
X74839527Y-91295995D01*
X74927128Y-91507481D01*
X74986374Y-91728592D01*
X75016253Y-91955545D01*
X75016253Y-92184455D01*
X74986374Y-92411408D01*
X74927128Y-92632519D01*
X74839527Y-92844005D01*
X74725072Y-93042248D01*
X74585720Y-93223855D01*
X74423855Y-93385720D01*
X74242248Y-93525072D01*
X74044005Y-93639527D01*
X73832519Y-93727128D01*
X73611408Y-93786374D01*
X73384455Y-93816253D01*
X73155545Y-93816253D01*
X72928592Y-93786374D01*
X72707481Y-93727128D01*
X72495995Y-93639527D01*
X72297752Y-93525072D01*
X72116145Y-93385720D01*
X71954280Y-93223855D01*
X71814928Y-93042248D01*
X71700473Y-92844005D01*
X71612872Y-92632519D01*
X71553626Y-92411408D01*
X71523747Y-92184455D01*
X71523747Y-91955545D01*
X71553626Y-91728592D01*
X71612872Y-91507481D01*
X71700473Y-91295995D01*
X71814928Y-91097752D01*
X71954280Y-90916145D01*
X72116145Y-90754280D01*
X72297752Y-90614928D01*
X72495995Y-90500473D01*
X72707481Y-90412872D01*
X72928592Y-90353626D01*
X73155545Y-90323747D01*
X73384455Y-90323747D01*
X73611408Y-90353626D01*
G37*
G36*
X88601408Y-90323626D02*
G01*
X88822519Y-90382872D01*
X89034005Y-90470473D01*
X89232248Y-90584928D01*
X89413855Y-90724280D01*
X89575720Y-90886145D01*
X89715072Y-91067752D01*
X89829527Y-91265995D01*
X89917128Y-91477481D01*
X89976374Y-91698592D01*
X90006253Y-91925545D01*
X90006253Y-92154455D01*
X89976374Y-92381408D01*
X89917128Y-92602519D01*
X89829527Y-92814005D01*
X89715072Y-93012248D01*
X89575720Y-93193855D01*
X89413855Y-93355720D01*
X89232248Y-93495072D01*
X89034005Y-93609527D01*
X88822519Y-93697128D01*
X88601408Y-93756374D01*
X88374455Y-93786253D01*
X88145545Y-93786253D01*
X87918592Y-93756374D01*
X87697481Y-93697128D01*
X87485995Y-93609527D01*
X87287752Y-93495072D01*
X87106145Y-93355720D01*
X86944280Y-93193855D01*
X86804928Y-93012248D01*
X86690473Y-92814005D01*
X86602872Y-92602519D01*
X86543626Y-92381408D01*
X86513747Y-92154455D01*
X86513747Y-91925545D01*
X86543626Y-91698592D01*
X86602872Y-91477481D01*
X86690473Y-91265995D01*
X86804928Y-91067752D01*
X86944280Y-90886145D01*
X87106145Y-90724280D01*
X87287752Y-90584928D01*
X87485995Y-90470473D01*
X87697481Y-90382872D01*
X87918592Y-90323626D01*
X88145545Y-90293747D01*
X88374455Y-90293747D01*
X88601408Y-90323626D01*
G37*
G36*
X59090000Y-89540000D02*
G01*
X57290000Y-89540000D01*
X57290000Y-87740000D01*
X59090000Y-87740000D01*
X59090000Y-89540000D01*
G37*
G36*
X113590000Y-89540000D02*
G01*
X111790000Y-89540000D01*
X111790000Y-87740000D01*
X113590000Y-87740000D01*
X113590000Y-89540000D01*
G37*
G36*
X223590000Y-89540000D02*
G01*
X221790000Y-89540000D01*
X221790000Y-87740000D01*
X223590000Y-87740000D01*
X223590000Y-89540000D01*
G37*
G36*
X238590000Y-89540000D02*
G01*
X236790000Y-89540000D01*
X236790000Y-87740000D01*
X238590000Y-87740000D01*
X238590000Y-89540000D01*
G37*
G36*
X253590000Y-89540000D02*
G01*
X251790000Y-89540000D01*
X251790000Y-87740000D01*
X253590000Y-87740000D01*
X253590000Y-89540000D01*
G37*
G36*
X73611408Y-85653626D02*
G01*
X73832519Y-85712872D01*
X74044005Y-85800473D01*
X74242248Y-85914928D01*
X74423855Y-86054280D01*
X74585720Y-86216145D01*
X74725072Y-86397752D01*
X74839527Y-86595995D01*
X74927128Y-86807481D01*
X74986374Y-87028592D01*
X75016253Y-87255545D01*
X75016253Y-87484455D01*
X74986374Y-87711408D01*
X74927128Y-87932519D01*
X74839527Y-88144005D01*
X74725072Y-88342248D01*
X74585720Y-88523855D01*
X74423855Y-88685720D01*
X74242248Y-88825072D01*
X74044005Y-88939527D01*
X73832519Y-89027128D01*
X73611408Y-89086374D01*
X73384455Y-89116253D01*
X73155545Y-89116253D01*
X72928592Y-89086374D01*
X72707481Y-89027128D01*
X72495995Y-88939527D01*
X72297752Y-88825072D01*
X72116145Y-88685720D01*
X71954280Y-88523855D01*
X71814928Y-88342248D01*
X71700473Y-88144005D01*
X71612872Y-87932519D01*
X71553626Y-87711408D01*
X71523747Y-87484455D01*
X71523747Y-87255545D01*
X71553626Y-87028592D01*
X71612872Y-86807481D01*
X71700473Y-86595995D01*
X71814928Y-86397752D01*
X71954280Y-86216145D01*
X72116145Y-86054280D01*
X72297752Y-85914928D01*
X72495995Y-85800473D01*
X72707481Y-85712872D01*
X72928592Y-85653626D01*
X73155545Y-85623747D01*
X73384455Y-85623747D01*
X73611408Y-85653626D01*
G37*
G36*
X88601408Y-85623626D02*
G01*
X88822519Y-85682872D01*
X89034005Y-85770473D01*
X89232248Y-85884928D01*
X89413855Y-86024280D01*
X89575720Y-86186145D01*
X89715072Y-86367752D01*
X89829527Y-86565995D01*
X89917128Y-86777481D01*
X89976374Y-86998592D01*
X90006253Y-87225545D01*
X90006253Y-87454455D01*
X89976374Y-87681408D01*
X89917128Y-87902519D01*
X89829527Y-88114005D01*
X89715072Y-88312248D01*
X89575720Y-88493855D01*
X89413855Y-88655720D01*
X89232248Y-88795072D01*
X89034005Y-88909527D01*
X88822519Y-88997128D01*
X88601408Y-89056374D01*
X88374455Y-89086253D01*
X88145545Y-89086253D01*
X87918592Y-89056374D01*
X87697481Y-88997128D01*
X87485995Y-88909527D01*
X87287752Y-88795072D01*
X87106145Y-88655720D01*
X86944280Y-88493855D01*
X86804928Y-88312248D01*
X86690473Y-88114005D01*
X86602872Y-87902519D01*
X86543626Y-87681408D01*
X86513747Y-87454455D01*
X86513747Y-87225545D01*
X86543626Y-86998592D01*
X86602872Y-86777481D01*
X86690473Y-86565995D01*
X86804928Y-86367752D01*
X86944280Y-86186145D01*
X87106145Y-86024280D01*
X87287752Y-85884928D01*
X87485995Y-85770473D01*
X87697481Y-85682872D01*
X87918592Y-85623626D01*
X88145545Y-85593747D01*
X88374455Y-85593747D01*
X88601408Y-85623626D01*
G37*
G36*
X58451256Y-85238754D02*
G01*
X58614257Y-85306271D01*
X58760954Y-85404291D01*
X58885709Y-85529046D01*
X58983729Y-85675743D01*
X59051246Y-85838744D01*
X59085666Y-86011785D01*
X59085666Y-86188215D01*
X59051246Y-86361256D01*
X58983729Y-86524257D01*
X58885709Y-86670954D01*
X58760954Y-86795709D01*
X58614257Y-86893729D01*
X58451256Y-86961246D01*
X58278215Y-86995666D01*
X58101785Y-86995666D01*
X57928744Y-86961246D01*
X57765743Y-86893729D01*
X57619046Y-86795709D01*
X57494291Y-86670954D01*
X57396271Y-86524257D01*
X57328754Y-86361256D01*
X57294334Y-86188215D01*
X57294334Y-86011785D01*
X57328754Y-85838744D01*
X57396271Y-85675743D01*
X57494291Y-85529046D01*
X57619046Y-85404291D01*
X57765743Y-85306271D01*
X57928744Y-85238754D01*
X58101785Y-85204334D01*
X58278215Y-85204334D01*
X58451256Y-85238754D01*
G37*
G36*
X112951256Y-85238754D02*
G01*
X113114257Y-85306271D01*
X113260954Y-85404291D01*
X113385709Y-85529046D01*
X113483729Y-85675743D01*
X113551246Y-85838744D01*
X113585666Y-86011785D01*
X113585666Y-86188215D01*
X113551246Y-86361256D01*
X113483729Y-86524257D01*
X113385709Y-86670954D01*
X113260954Y-86795709D01*
X113114257Y-86893729D01*
X112951256Y-86961246D01*
X112778215Y-86995666D01*
X112601785Y-86995666D01*
X112428744Y-86961246D01*
X112265743Y-86893729D01*
X112119046Y-86795709D01*
X111994291Y-86670954D01*
X111896271Y-86524257D01*
X111828754Y-86361256D01*
X111794334Y-86188215D01*
X111794334Y-86011785D01*
X111828754Y-85838744D01*
X111896271Y-85675743D01*
X111994291Y-85529046D01*
X112119046Y-85404291D01*
X112265743Y-85306271D01*
X112428744Y-85238754D01*
X112601785Y-85204334D01*
X112778215Y-85204334D01*
X112951256Y-85238754D01*
G37*
G36*
X222951256Y-85238754D02*
G01*
X223114257Y-85306271D01*
X223260954Y-85404291D01*
X223385709Y-85529046D01*
X223483729Y-85675743D01*
X223551246Y-85838744D01*
X223585666Y-86011785D01*
X223585666Y-86188215D01*
X223551246Y-86361256D01*
X223483729Y-86524257D01*
X223385709Y-86670954D01*
X223260954Y-86795709D01*
X223114257Y-86893729D01*
X222951256Y-86961246D01*
X222778215Y-86995666D01*
X222601785Y-86995666D01*
X222428744Y-86961246D01*
X222265743Y-86893729D01*
X222119046Y-86795709D01*
X221994291Y-86670954D01*
X221896271Y-86524257D01*
X221828754Y-86361256D01*
X221794334Y-86188215D01*
X221794334Y-86011785D01*
X221828754Y-85838744D01*
X221896271Y-85675743D01*
X221994291Y-85529046D01*
X222119046Y-85404291D01*
X222265743Y-85306271D01*
X222428744Y-85238754D01*
X222601785Y-85204334D01*
X222778215Y-85204334D01*
X222951256Y-85238754D01*
G37*
G36*
X237951256Y-85238754D02*
G01*
X238114257Y-85306271D01*
X238260954Y-85404291D01*
X238385709Y-85529046D01*
X238483729Y-85675743D01*
X238551246Y-85838744D01*
X238585666Y-86011785D01*
X238585666Y-86188215D01*
X238551246Y-86361256D01*
X238483729Y-86524257D01*
X238385709Y-86670954D01*
X238260954Y-86795709D01*
X238114257Y-86893729D01*
X237951256Y-86961246D01*
X237778215Y-86995666D01*
X237601785Y-86995666D01*
X237428744Y-86961246D01*
X237265743Y-86893729D01*
X237119046Y-86795709D01*
X236994291Y-86670954D01*
X236896271Y-86524257D01*
X236828754Y-86361256D01*
X236794334Y-86188215D01*
X236794334Y-86011785D01*
X236828754Y-85838744D01*
X236896271Y-85675743D01*
X236994291Y-85529046D01*
X237119046Y-85404291D01*
X237265743Y-85306271D01*
X237428744Y-85238754D01*
X237601785Y-85204334D01*
X237778215Y-85204334D01*
X237951256Y-85238754D01*
G37*
G36*
X252951256Y-85238754D02*
G01*
X253114257Y-85306271D01*
X253260954Y-85404291D01*
X253385709Y-85529046D01*
X253483729Y-85675743D01*
X253551246Y-85838744D01*
X253585666Y-86011785D01*
X253585666Y-86188215D01*
X253551246Y-86361256D01*
X253483729Y-86524257D01*
X253385709Y-86670954D01*
X253260954Y-86795709D01*
X253114257Y-86893729D01*
X252951256Y-86961246D01*
X252778215Y-86995666D01*
X252601785Y-86995666D01*
X252428744Y-86961246D01*
X252265743Y-86893729D01*
X252119046Y-86795709D01*
X251994291Y-86670954D01*
X251896271Y-86524257D01*
X251828754Y-86361256D01*
X251794334Y-86188215D01*
X251794334Y-86011785D01*
X251828754Y-85838744D01*
X251896271Y-85675743D01*
X251994291Y-85529046D01*
X252119046Y-85404291D01*
X252265743Y-85306271D01*
X252428744Y-85238754D01*
X252601785Y-85204334D01*
X252778215Y-85204334D01*
X252951256Y-85238754D01*
G37*
G36*
X194320000Y-84530000D02*
G01*
X192620000Y-84530000D01*
X192620000Y-82830000D01*
X194320000Y-82830000D01*
X194320000Y-84530000D01*
G37*
G36*
X145456742Y-82866601D02*
G01*
X145610687Y-82930367D01*
X145749234Y-83022941D01*
X145867059Y-83140766D01*
X145959633Y-83279313D01*
X146023399Y-83433258D01*
X146055907Y-83596685D01*
X146055907Y-83763315D01*
X146023399Y-83926742D01*
X145959633Y-84080687D01*
X145867059Y-84219234D01*
X145749234Y-84337059D01*
X145610687Y-84429633D01*
X145456742Y-84493399D01*
X145293315Y-84525907D01*
X145126685Y-84525907D01*
X144963258Y-84493399D01*
X144809313Y-84429633D01*
X144670766Y-84337059D01*
X144552941Y-84219234D01*
X144460367Y-84080687D01*
X144396601Y-83926742D01*
X144364093Y-83763315D01*
X144364093Y-83596685D01*
X144396601Y-83433258D01*
X144460367Y-83279313D01*
X144552941Y-83140766D01*
X144670766Y-83022941D01*
X144809313Y-82930367D01*
X144963258Y-82866601D01*
X145126685Y-82834093D01*
X145293315Y-82834093D01*
X145456742Y-82866601D01*
G37*
G36*
X147996742Y-82866601D02*
G01*
X148150687Y-82930367D01*
X148289234Y-83022941D01*
X148407059Y-83140766D01*
X148499633Y-83279313D01*
X148563399Y-83433258D01*
X148595907Y-83596685D01*
X148595907Y-83763315D01*
X148563399Y-83926742D01*
X148499633Y-84080687D01*
X148407059Y-84219234D01*
X148289234Y-84337059D01*
X148150687Y-84429633D01*
X147996742Y-84493399D01*
X147833315Y-84525907D01*
X147666685Y-84525907D01*
X147503258Y-84493399D01*
X147349313Y-84429633D01*
X147210766Y-84337059D01*
X147092941Y-84219234D01*
X147000367Y-84080687D01*
X146936601Y-83926742D01*
X146904093Y-83763315D01*
X146904093Y-83596685D01*
X146936601Y-83433258D01*
X147000367Y-83279313D01*
X147092941Y-83140766D01*
X147210766Y-83022941D01*
X147349313Y-82930367D01*
X147503258Y-82866601D01*
X147666685Y-82834093D01*
X147833315Y-82834093D01*
X147996742Y-82866601D01*
G37*
G36*
X150536742Y-82866601D02*
G01*
X150690687Y-82930367D01*
X150829234Y-83022941D01*
X150947059Y-83140766D01*
X151039633Y-83279313D01*
X151103399Y-83433258D01*
X151135907Y-83596685D01*
X151135907Y-83763315D01*
X151103399Y-83926742D01*
X151039633Y-84080687D01*
X150947059Y-84219234D01*
X150829234Y-84337059D01*
X150690687Y-84429633D01*
X150536742Y-84493399D01*
X150373315Y-84525907D01*
X150206685Y-84525907D01*
X150043258Y-84493399D01*
X149889313Y-84429633D01*
X149750766Y-84337059D01*
X149632941Y-84219234D01*
X149540367Y-84080687D01*
X149476601Y-83926742D01*
X149444093Y-83763315D01*
X149444093Y-83596685D01*
X149476601Y-83433258D01*
X149540367Y-83279313D01*
X149632941Y-83140766D01*
X149750766Y-83022941D01*
X149889313Y-82930367D01*
X150043258Y-82866601D01*
X150206685Y-82834093D01*
X150373315Y-82834093D01*
X150536742Y-82866601D01*
G37*
G36*
X153076742Y-82866601D02*
G01*
X153230687Y-82930367D01*
X153369234Y-83022941D01*
X153487059Y-83140766D01*
X153579633Y-83279313D01*
X153643399Y-83433258D01*
X153675907Y-83596685D01*
X153675907Y-83763315D01*
X153643399Y-83926742D01*
X153579633Y-84080687D01*
X153487059Y-84219234D01*
X153369234Y-84337059D01*
X153230687Y-84429633D01*
X153076742Y-84493399D01*
X152913315Y-84525907D01*
X152746685Y-84525907D01*
X152583258Y-84493399D01*
X152429313Y-84429633D01*
X152290766Y-84337059D01*
X152172941Y-84219234D01*
X152080367Y-84080687D01*
X152016601Y-83926742D01*
X151984093Y-83763315D01*
X151984093Y-83596685D01*
X152016601Y-83433258D01*
X152080367Y-83279313D01*
X152172941Y-83140766D01*
X152290766Y-83022941D01*
X152429313Y-82930367D01*
X152583258Y-82866601D01*
X152746685Y-82834093D01*
X152913315Y-82834093D01*
X153076742Y-82866601D01*
G37*
G36*
X155616742Y-82866601D02*
G01*
X155770687Y-82930367D01*
X155909234Y-83022941D01*
X156027059Y-83140766D01*
X156119633Y-83279313D01*
X156183399Y-83433258D01*
X156215907Y-83596685D01*
X156215907Y-83763315D01*
X156183399Y-83926742D01*
X156119633Y-84080687D01*
X156027059Y-84219234D01*
X155909234Y-84337059D01*
X155770687Y-84429633D01*
X155616742Y-84493399D01*
X155453315Y-84525907D01*
X155286685Y-84525907D01*
X155123258Y-84493399D01*
X154969313Y-84429633D01*
X154830766Y-84337059D01*
X154712941Y-84219234D01*
X154620367Y-84080687D01*
X154556601Y-83926742D01*
X154524093Y-83763315D01*
X154524093Y-83596685D01*
X154556601Y-83433258D01*
X154620367Y-83279313D01*
X154712941Y-83140766D01*
X154830766Y-83022941D01*
X154969313Y-82930367D01*
X155123258Y-82866601D01*
X155286685Y-82834093D01*
X155453315Y-82834093D01*
X155616742Y-82866601D01*
G37*
G36*
X158156742Y-82866601D02*
G01*
X158310687Y-82930367D01*
X158449234Y-83022941D01*
X158567059Y-83140766D01*
X158659633Y-83279313D01*
X158723399Y-83433258D01*
X158755907Y-83596685D01*
X158755907Y-83763315D01*
X158723399Y-83926742D01*
X158659633Y-84080687D01*
X158567059Y-84219234D01*
X158449234Y-84337059D01*
X158310687Y-84429633D01*
X158156742Y-84493399D01*
X157993315Y-84525907D01*
X157826685Y-84525907D01*
X157663258Y-84493399D01*
X157509313Y-84429633D01*
X157370766Y-84337059D01*
X157252941Y-84219234D01*
X157160367Y-84080687D01*
X157096601Y-83926742D01*
X157064093Y-83763315D01*
X157064093Y-83596685D01*
X157096601Y-83433258D01*
X157160367Y-83279313D01*
X157252941Y-83140766D01*
X157370766Y-83022941D01*
X157509313Y-82930367D01*
X157663258Y-82866601D01*
X157826685Y-82834093D01*
X157993315Y-82834093D01*
X158156742Y-82866601D01*
G37*
G36*
X160696742Y-82866601D02*
G01*
X160850687Y-82930367D01*
X160989234Y-83022941D01*
X161107059Y-83140766D01*
X161199633Y-83279313D01*
X161263399Y-83433258D01*
X161295907Y-83596685D01*
X161295907Y-83763315D01*
X161263399Y-83926742D01*
X161199633Y-84080687D01*
X161107059Y-84219234D01*
X160989234Y-84337059D01*
X160850687Y-84429633D01*
X160696742Y-84493399D01*
X160533315Y-84525907D01*
X160366685Y-84525907D01*
X160203258Y-84493399D01*
X160049313Y-84429633D01*
X159910766Y-84337059D01*
X159792941Y-84219234D01*
X159700367Y-84080687D01*
X159636601Y-83926742D01*
X159604093Y-83763315D01*
X159604093Y-83596685D01*
X159636601Y-83433258D01*
X159700367Y-83279313D01*
X159792941Y-83140766D01*
X159910766Y-83022941D01*
X160049313Y-82930367D01*
X160203258Y-82866601D01*
X160366685Y-82834093D01*
X160533315Y-82834093D01*
X160696742Y-82866601D01*
G37*
G36*
X163236742Y-82866601D02*
G01*
X163390687Y-82930367D01*
X163529234Y-83022941D01*
X163647059Y-83140766D01*
X163739633Y-83279313D01*
X163803399Y-83433258D01*
X163835907Y-83596685D01*
X163835907Y-83763315D01*
X163803399Y-83926742D01*
X163739633Y-84080687D01*
X163647059Y-84219234D01*
X163529234Y-84337059D01*
X163390687Y-84429633D01*
X163236742Y-84493399D01*
X163073315Y-84525907D01*
X162906685Y-84525907D01*
X162743258Y-84493399D01*
X162589313Y-84429633D01*
X162450766Y-84337059D01*
X162332941Y-84219234D01*
X162240367Y-84080687D01*
X162176601Y-83926742D01*
X162144093Y-83763315D01*
X162144093Y-83596685D01*
X162176601Y-83433258D01*
X162240367Y-83279313D01*
X162332941Y-83140766D01*
X162450766Y-83022941D01*
X162589313Y-82930367D01*
X162743258Y-82866601D01*
X162906685Y-82834093D01*
X163073315Y-82834093D01*
X163236742Y-82866601D01*
G37*
G36*
X165776742Y-82866601D02*
G01*
X165930687Y-82930367D01*
X166069234Y-83022941D01*
X166187059Y-83140766D01*
X166279633Y-83279313D01*
X166343399Y-83433258D01*
X166375907Y-83596685D01*
X166375907Y-83763315D01*
X166343399Y-83926742D01*
X166279633Y-84080687D01*
X166187059Y-84219234D01*
X166069234Y-84337059D01*
X165930687Y-84429633D01*
X165776742Y-84493399D01*
X165613315Y-84525907D01*
X165446685Y-84525907D01*
X165283258Y-84493399D01*
X165129313Y-84429633D01*
X164990766Y-84337059D01*
X164872941Y-84219234D01*
X164780367Y-84080687D01*
X164716601Y-83926742D01*
X164684093Y-83763315D01*
X164684093Y-83596685D01*
X164716601Y-83433258D01*
X164780367Y-83279313D01*
X164872941Y-83140766D01*
X164990766Y-83022941D01*
X165129313Y-82930367D01*
X165283258Y-82866601D01*
X165446685Y-82834093D01*
X165613315Y-82834093D01*
X165776742Y-82866601D01*
G37*
G36*
X168316742Y-82866601D02*
G01*
X168470687Y-82930367D01*
X168609234Y-83022941D01*
X168727059Y-83140766D01*
X168819633Y-83279313D01*
X168883399Y-83433258D01*
X168915907Y-83596685D01*
X168915907Y-83763315D01*
X168883399Y-83926742D01*
X168819633Y-84080687D01*
X168727059Y-84219234D01*
X168609234Y-84337059D01*
X168470687Y-84429633D01*
X168316742Y-84493399D01*
X168153315Y-84525907D01*
X167986685Y-84525907D01*
X167823258Y-84493399D01*
X167669313Y-84429633D01*
X167530766Y-84337059D01*
X167412941Y-84219234D01*
X167320367Y-84080687D01*
X167256601Y-83926742D01*
X167224093Y-83763315D01*
X167224093Y-83596685D01*
X167256601Y-83433258D01*
X167320367Y-83279313D01*
X167412941Y-83140766D01*
X167530766Y-83022941D01*
X167669313Y-82930367D01*
X167823258Y-82866601D01*
X167986685Y-82834093D01*
X168153315Y-82834093D01*
X168316742Y-82866601D01*
G37*
G36*
X170856742Y-82866601D02*
G01*
X171010687Y-82930367D01*
X171149234Y-83022941D01*
X171267059Y-83140766D01*
X171359633Y-83279313D01*
X171423399Y-83433258D01*
X171455907Y-83596685D01*
X171455907Y-83763315D01*
X171423399Y-83926742D01*
X171359633Y-84080687D01*
X171267059Y-84219234D01*
X171149234Y-84337059D01*
X171010687Y-84429633D01*
X170856742Y-84493399D01*
X170693315Y-84525907D01*
X170526685Y-84525907D01*
X170363258Y-84493399D01*
X170209313Y-84429633D01*
X170070766Y-84337059D01*
X169952941Y-84219234D01*
X169860367Y-84080687D01*
X169796601Y-83926742D01*
X169764093Y-83763315D01*
X169764093Y-83596685D01*
X169796601Y-83433258D01*
X169860367Y-83279313D01*
X169952941Y-83140766D01*
X170070766Y-83022941D01*
X170209313Y-82930367D01*
X170363258Y-82866601D01*
X170526685Y-82834093D01*
X170693315Y-82834093D01*
X170856742Y-82866601D01*
G37*
G36*
X173396742Y-82866601D02*
G01*
X173550687Y-82930367D01*
X173689234Y-83022941D01*
X173807059Y-83140766D01*
X173899633Y-83279313D01*
X173963399Y-83433258D01*
X173995907Y-83596685D01*
X173995907Y-83763315D01*
X173963399Y-83926742D01*
X173899633Y-84080687D01*
X173807059Y-84219234D01*
X173689234Y-84337059D01*
X173550687Y-84429633D01*
X173396742Y-84493399D01*
X173233315Y-84525907D01*
X173066685Y-84525907D01*
X172903258Y-84493399D01*
X172749313Y-84429633D01*
X172610766Y-84337059D01*
X172492941Y-84219234D01*
X172400367Y-84080687D01*
X172336601Y-83926742D01*
X172304093Y-83763315D01*
X172304093Y-83596685D01*
X172336601Y-83433258D01*
X172400367Y-83279313D01*
X172492941Y-83140766D01*
X172610766Y-83022941D01*
X172749313Y-82930367D01*
X172903258Y-82866601D01*
X173066685Y-82834093D01*
X173233315Y-82834093D01*
X173396742Y-82866601D01*
G37*
G36*
X175936742Y-82866601D02*
G01*
X176090687Y-82930367D01*
X176229234Y-83022941D01*
X176347059Y-83140766D01*
X176439633Y-83279313D01*
X176503399Y-83433258D01*
X176535907Y-83596685D01*
X176535907Y-83763315D01*
X176503399Y-83926742D01*
X176439633Y-84080687D01*
X176347059Y-84219234D01*
X176229234Y-84337059D01*
X176090687Y-84429633D01*
X175936742Y-84493399D01*
X175773315Y-84525907D01*
X175606685Y-84525907D01*
X175443258Y-84493399D01*
X175289313Y-84429633D01*
X175150766Y-84337059D01*
X175032941Y-84219234D01*
X174940367Y-84080687D01*
X174876601Y-83926742D01*
X174844093Y-83763315D01*
X174844093Y-83596685D01*
X174876601Y-83433258D01*
X174940367Y-83279313D01*
X175032941Y-83140766D01*
X175150766Y-83022941D01*
X175289313Y-82930367D01*
X175443258Y-82866601D01*
X175606685Y-82834093D01*
X175773315Y-82834093D01*
X175936742Y-82866601D01*
G37*
G36*
X178476742Y-82866601D02*
G01*
X178630687Y-82930367D01*
X178769234Y-83022941D01*
X178887059Y-83140766D01*
X178979633Y-83279313D01*
X179043399Y-83433258D01*
X179075907Y-83596685D01*
X179075907Y-83763315D01*
X179043399Y-83926742D01*
X178979633Y-84080687D01*
X178887059Y-84219234D01*
X178769234Y-84337059D01*
X178630687Y-84429633D01*
X178476742Y-84493399D01*
X178313315Y-84525907D01*
X178146685Y-84525907D01*
X177983258Y-84493399D01*
X177829313Y-84429633D01*
X177690766Y-84337059D01*
X177572941Y-84219234D01*
X177480367Y-84080687D01*
X177416601Y-83926742D01*
X177384093Y-83763315D01*
X177384093Y-83596685D01*
X177416601Y-83433258D01*
X177480367Y-83279313D01*
X177572941Y-83140766D01*
X177690766Y-83022941D01*
X177829313Y-82930367D01*
X177983258Y-82866601D01*
X178146685Y-82834093D01*
X178313315Y-82834093D01*
X178476742Y-82866601D01*
G37*
G36*
X181016742Y-82866601D02*
G01*
X181170687Y-82930367D01*
X181309234Y-83022941D01*
X181427059Y-83140766D01*
X181519633Y-83279313D01*
X181583399Y-83433258D01*
X181615907Y-83596685D01*
X181615907Y-83763315D01*
X181583399Y-83926742D01*
X181519633Y-84080687D01*
X181427059Y-84219234D01*
X181309234Y-84337059D01*
X181170687Y-84429633D01*
X181016742Y-84493399D01*
X180853315Y-84525907D01*
X180686685Y-84525907D01*
X180523258Y-84493399D01*
X180369313Y-84429633D01*
X180230766Y-84337059D01*
X180112941Y-84219234D01*
X180020367Y-84080687D01*
X179956601Y-83926742D01*
X179924093Y-83763315D01*
X179924093Y-83596685D01*
X179956601Y-83433258D01*
X180020367Y-83279313D01*
X180112941Y-83140766D01*
X180230766Y-83022941D01*
X180369313Y-82930367D01*
X180523258Y-82866601D01*
X180686685Y-82834093D01*
X180853315Y-82834093D01*
X181016742Y-82866601D01*
G37*
G36*
X183556742Y-82866601D02*
G01*
X183710687Y-82930367D01*
X183849234Y-83022941D01*
X183967059Y-83140766D01*
X184059633Y-83279313D01*
X184123399Y-83433258D01*
X184155907Y-83596685D01*
X184155907Y-83763315D01*
X184123399Y-83926742D01*
X184059633Y-84080687D01*
X183967059Y-84219234D01*
X183849234Y-84337059D01*
X183710687Y-84429633D01*
X183556742Y-84493399D01*
X183393315Y-84525907D01*
X183226685Y-84525907D01*
X183063258Y-84493399D01*
X182909313Y-84429633D01*
X182770766Y-84337059D01*
X182652941Y-84219234D01*
X182560367Y-84080687D01*
X182496601Y-83926742D01*
X182464093Y-83763315D01*
X182464093Y-83596685D01*
X182496601Y-83433258D01*
X182560367Y-83279313D01*
X182652941Y-83140766D01*
X182770766Y-83022941D01*
X182909313Y-82930367D01*
X183063258Y-82866601D01*
X183226685Y-82834093D01*
X183393315Y-82834093D01*
X183556742Y-82866601D01*
G37*
G36*
X186096742Y-82866601D02*
G01*
X186250687Y-82930367D01*
X186389234Y-83022941D01*
X186507059Y-83140766D01*
X186599633Y-83279313D01*
X186663399Y-83433258D01*
X186695907Y-83596685D01*
X186695907Y-83763315D01*
X186663399Y-83926742D01*
X186599633Y-84080687D01*
X186507059Y-84219234D01*
X186389234Y-84337059D01*
X186250687Y-84429633D01*
X186096742Y-84493399D01*
X185933315Y-84525907D01*
X185766685Y-84525907D01*
X185603258Y-84493399D01*
X185449313Y-84429633D01*
X185310766Y-84337059D01*
X185192941Y-84219234D01*
X185100367Y-84080687D01*
X185036601Y-83926742D01*
X185004093Y-83763315D01*
X185004093Y-83596685D01*
X185036601Y-83433258D01*
X185100367Y-83279313D01*
X185192941Y-83140766D01*
X185310766Y-83022941D01*
X185449313Y-82930367D01*
X185603258Y-82866601D01*
X185766685Y-82834093D01*
X185933315Y-82834093D01*
X186096742Y-82866601D01*
G37*
G36*
X188636742Y-82866601D02*
G01*
X188790687Y-82930367D01*
X188929234Y-83022941D01*
X189047059Y-83140766D01*
X189139633Y-83279313D01*
X189203399Y-83433258D01*
X189235907Y-83596685D01*
X189235907Y-83763315D01*
X189203399Y-83926742D01*
X189139633Y-84080687D01*
X189047059Y-84219234D01*
X188929234Y-84337059D01*
X188790687Y-84429633D01*
X188636742Y-84493399D01*
X188473315Y-84525907D01*
X188306685Y-84525907D01*
X188143258Y-84493399D01*
X187989313Y-84429633D01*
X187850766Y-84337059D01*
X187732941Y-84219234D01*
X187640367Y-84080687D01*
X187576601Y-83926742D01*
X187544093Y-83763315D01*
X187544093Y-83596685D01*
X187576601Y-83433258D01*
X187640367Y-83279313D01*
X187732941Y-83140766D01*
X187850766Y-83022941D01*
X187989313Y-82930367D01*
X188143258Y-82866601D01*
X188306685Y-82834093D01*
X188473315Y-82834093D01*
X188636742Y-82866601D01*
G37*
G36*
X191176742Y-82866601D02*
G01*
X191330687Y-82930367D01*
X191469234Y-83022941D01*
X191587059Y-83140766D01*
X191679633Y-83279313D01*
X191743399Y-83433258D01*
X191775907Y-83596685D01*
X191775907Y-83763315D01*
X191743399Y-83926742D01*
X191679633Y-84080687D01*
X191587059Y-84219234D01*
X191469234Y-84337059D01*
X191330687Y-84429633D01*
X191176742Y-84493399D01*
X191013315Y-84525907D01*
X190846685Y-84525907D01*
X190683258Y-84493399D01*
X190529313Y-84429633D01*
X190390766Y-84337059D01*
X190272941Y-84219234D01*
X190180367Y-84080687D01*
X190116601Y-83926742D01*
X190084093Y-83763315D01*
X190084093Y-83596685D01*
X190116601Y-83433258D01*
X190180367Y-83279313D01*
X190272941Y-83140766D01*
X190390766Y-83022941D01*
X190529313Y-82930367D01*
X190683258Y-82866601D01*
X190846685Y-82834093D01*
X191013315Y-82834093D01*
X191176742Y-82866601D01*
G37*
G36*
X73611408Y-80953626D02*
G01*
X73832519Y-81012872D01*
X74044005Y-81100473D01*
X74242248Y-81214928D01*
X74423855Y-81354280D01*
X74585720Y-81516145D01*
X74725072Y-81697752D01*
X74839527Y-81895995D01*
X74927128Y-82107481D01*
X74986374Y-82328592D01*
X75016253Y-82555545D01*
X75016253Y-82784455D01*
X74986374Y-83011408D01*
X74927128Y-83232519D01*
X74839527Y-83444005D01*
X74725072Y-83642248D01*
X74585720Y-83823855D01*
X74423855Y-83985720D01*
X74242248Y-84125072D01*
X74044005Y-84239527D01*
X73832519Y-84327128D01*
X73611408Y-84386374D01*
X73384455Y-84416253D01*
X73155545Y-84416253D01*
X72928592Y-84386374D01*
X72707481Y-84327128D01*
X72495995Y-84239527D01*
X72297752Y-84125072D01*
X72116145Y-83985720D01*
X71954280Y-83823855D01*
X71814928Y-83642248D01*
X71700473Y-83444005D01*
X71612872Y-83232519D01*
X71553626Y-83011408D01*
X71523747Y-82784455D01*
X71523747Y-82555545D01*
X71553626Y-82328592D01*
X71612872Y-82107481D01*
X71700473Y-81895995D01*
X71814928Y-81697752D01*
X71954280Y-81516145D01*
X72116145Y-81354280D01*
X72297752Y-81214928D01*
X72495995Y-81100473D01*
X72707481Y-81012872D01*
X72928592Y-80953626D01*
X73155545Y-80923747D01*
X73384455Y-80923747D01*
X73611408Y-80953626D01*
G37*
G36*
X88601408Y-80923626D02*
G01*
X88822519Y-80982872D01*
X89034005Y-81070473D01*
X89232248Y-81184928D01*
X89413855Y-81324280D01*
X89575720Y-81486145D01*
X89715072Y-81667752D01*
X89829527Y-81865995D01*
X89917128Y-82077481D01*
X89976374Y-82298592D01*
X90006253Y-82525545D01*
X90006253Y-82754455D01*
X89976374Y-82981408D01*
X89917128Y-83202519D01*
X89829527Y-83414005D01*
X89715072Y-83612248D01*
X89575720Y-83793855D01*
X89413855Y-83955720D01*
X89232248Y-84095072D01*
X89034005Y-84209527D01*
X88822519Y-84297128D01*
X88601408Y-84356374D01*
X88374455Y-84386253D01*
X88145545Y-84386253D01*
X87918592Y-84356374D01*
X87697481Y-84297128D01*
X87485995Y-84209527D01*
X87287752Y-84095072D01*
X87106145Y-83955720D01*
X86944280Y-83793855D01*
X86804928Y-83612248D01*
X86690473Y-83414005D01*
X86602872Y-83202519D01*
X86543626Y-82981408D01*
X86513747Y-82754455D01*
X86513747Y-82525545D01*
X86543626Y-82298592D01*
X86602872Y-82077481D01*
X86690473Y-81865995D01*
X86804928Y-81667752D01*
X86944280Y-81486145D01*
X87106145Y-81324280D01*
X87287752Y-81184928D01*
X87485995Y-81070473D01*
X87697481Y-80982872D01*
X87918592Y-80923626D01*
X88145545Y-80893747D01*
X88374455Y-80893747D01*
X88601408Y-80923626D01*
G37*
G36*
X126220168Y-80071445D02*
G01*
X126444025Y-80144181D01*
X126653748Y-80251040D01*
X126844172Y-80389391D01*
X127010609Y-80555828D01*
X127148960Y-80746252D01*
X127255819Y-80955975D01*
X127328555Y-81179832D01*
X127365376Y-81412311D01*
X127365376Y-81647689D01*
X127328555Y-81880168D01*
X127255819Y-82104025D01*
X127148960Y-82313748D01*
X127010609Y-82504172D01*
X126844172Y-82670609D01*
X126653748Y-82808960D01*
X126444025Y-82915819D01*
X126220168Y-82988555D01*
X125987689Y-83025376D01*
X125752311Y-83025376D01*
X125519832Y-82988555D01*
X125295975Y-82915819D01*
X125086252Y-82808960D01*
X124895828Y-82670609D01*
X124729391Y-82504172D01*
X124591040Y-82313748D01*
X124484181Y-82104025D01*
X124411445Y-81880168D01*
X124374624Y-81647689D01*
X124374624Y-81412311D01*
X124411445Y-81179832D01*
X124484181Y-80955975D01*
X124591040Y-80746252D01*
X124729391Y-80555828D01*
X124895828Y-80389391D01*
X125086252Y-80251040D01*
X125295975Y-80144181D01*
X125519832Y-80071445D01*
X125752311Y-80034624D01*
X125987689Y-80034624D01*
X126220168Y-80071445D01*
G37*
G36*
X137620168Y-80071445D02*
G01*
X137844025Y-80144181D01*
X138053748Y-80251040D01*
X138244172Y-80389391D01*
X138410609Y-80555828D01*
X138548960Y-80746252D01*
X138655819Y-80955975D01*
X138728555Y-81179832D01*
X138765376Y-81412311D01*
X138765376Y-81647689D01*
X138728555Y-81880168D01*
X138655819Y-82104025D01*
X138548960Y-82313748D01*
X138410609Y-82504172D01*
X138244172Y-82670609D01*
X138053748Y-82808960D01*
X137844025Y-82915819D01*
X137620168Y-82988555D01*
X137387689Y-83025376D01*
X137152311Y-83025376D01*
X136919832Y-82988555D01*
X136695975Y-82915819D01*
X136486252Y-82808960D01*
X136295828Y-82670609D01*
X136129391Y-82504172D01*
X135991040Y-82313748D01*
X135884181Y-82104025D01*
X135811445Y-81880168D01*
X135774624Y-81647689D01*
X135774624Y-81412311D01*
X135811445Y-81179832D01*
X135884181Y-80955975D01*
X135991040Y-80746252D01*
X136129391Y-80555828D01*
X136295828Y-80389391D01*
X136486252Y-80251040D01*
X136695975Y-80144181D01*
X136919832Y-80071445D01*
X137152311Y-80034624D01*
X137387689Y-80034624D01*
X137620168Y-80071445D01*
G37*
G36*
X145456742Y-80326601D02*
G01*
X145610687Y-80390367D01*
X145749234Y-80482941D01*
X145867059Y-80600766D01*
X145959633Y-80739313D01*
X146023399Y-80893258D01*
X146055907Y-81056685D01*
X146055907Y-81223315D01*
X146023399Y-81386742D01*
X145959633Y-81540687D01*
X145867059Y-81679234D01*
X145749234Y-81797059D01*
X145610687Y-81889633D01*
X145456742Y-81953399D01*
X145293315Y-81985907D01*
X145126685Y-81985907D01*
X144963258Y-81953399D01*
X144809313Y-81889633D01*
X144670766Y-81797059D01*
X144552941Y-81679234D01*
X144460367Y-81540687D01*
X144396601Y-81386742D01*
X144364093Y-81223315D01*
X144364093Y-81056685D01*
X144396601Y-80893258D01*
X144460367Y-80739313D01*
X144552941Y-80600766D01*
X144670766Y-80482941D01*
X144809313Y-80390367D01*
X144963258Y-80326601D01*
X145126685Y-80294093D01*
X145293315Y-80294093D01*
X145456742Y-80326601D01*
G37*
G36*
X147996742Y-80326601D02*
G01*
X148150687Y-80390367D01*
X148289234Y-80482941D01*
X148407059Y-80600766D01*
X148499633Y-80739313D01*
X148563399Y-80893258D01*
X148595907Y-81056685D01*
X148595907Y-81223315D01*
X148563399Y-81386742D01*
X148499633Y-81540687D01*
X148407059Y-81679234D01*
X148289234Y-81797059D01*
X148150687Y-81889633D01*
X147996742Y-81953399D01*
X147833315Y-81985907D01*
X147666685Y-81985907D01*
X147503258Y-81953399D01*
X147349313Y-81889633D01*
X147210766Y-81797059D01*
X147092941Y-81679234D01*
X147000367Y-81540687D01*
X146936601Y-81386742D01*
X146904093Y-81223315D01*
X146904093Y-81056685D01*
X146936601Y-80893258D01*
X147000367Y-80739313D01*
X147092941Y-80600766D01*
X147210766Y-80482941D01*
X147349313Y-80390367D01*
X147503258Y-80326601D01*
X147666685Y-80294093D01*
X147833315Y-80294093D01*
X147996742Y-80326601D01*
G37*
G36*
X150536742Y-80326601D02*
G01*
X150690687Y-80390367D01*
X150829234Y-80482941D01*
X150947059Y-80600766D01*
X151039633Y-80739313D01*
X151103399Y-80893258D01*
X151135907Y-81056685D01*
X151135907Y-81223315D01*
X151103399Y-81386742D01*
X151039633Y-81540687D01*
X150947059Y-81679234D01*
X150829234Y-81797059D01*
X150690687Y-81889633D01*
X150536742Y-81953399D01*
X150373315Y-81985907D01*
X150206685Y-81985907D01*
X150043258Y-81953399D01*
X149889313Y-81889633D01*
X149750766Y-81797059D01*
X149632941Y-81679234D01*
X149540367Y-81540687D01*
X149476601Y-81386742D01*
X149444093Y-81223315D01*
X149444093Y-81056685D01*
X149476601Y-80893258D01*
X149540367Y-80739313D01*
X149632941Y-80600766D01*
X149750766Y-80482941D01*
X149889313Y-80390367D01*
X150043258Y-80326601D01*
X150206685Y-80294093D01*
X150373315Y-80294093D01*
X150536742Y-80326601D01*
G37*
G36*
X153076742Y-80326601D02*
G01*
X153230687Y-80390367D01*
X153369234Y-80482941D01*
X153487059Y-80600766D01*
X153579633Y-80739313D01*
X153643399Y-80893258D01*
X153675907Y-81056685D01*
X153675907Y-81223315D01*
X153643399Y-81386742D01*
X153579633Y-81540687D01*
X153487059Y-81679234D01*
X153369234Y-81797059D01*
X153230687Y-81889633D01*
X153076742Y-81953399D01*
X152913315Y-81985907D01*
X152746685Y-81985907D01*
X152583258Y-81953399D01*
X152429313Y-81889633D01*
X152290766Y-81797059D01*
X152172941Y-81679234D01*
X152080367Y-81540687D01*
X152016601Y-81386742D01*
X151984093Y-81223315D01*
X151984093Y-81056685D01*
X152016601Y-80893258D01*
X152080367Y-80739313D01*
X152172941Y-80600766D01*
X152290766Y-80482941D01*
X152429313Y-80390367D01*
X152583258Y-80326601D01*
X152746685Y-80294093D01*
X152913315Y-80294093D01*
X153076742Y-80326601D01*
G37*
G36*
X155616742Y-80326601D02*
G01*
X155770687Y-80390367D01*
X155909234Y-80482941D01*
X156027059Y-80600766D01*
X156119633Y-80739313D01*
X156183399Y-80893258D01*
X156215907Y-81056685D01*
X156215907Y-81223315D01*
X156183399Y-81386742D01*
X156119633Y-81540687D01*
X156027059Y-81679234D01*
X155909234Y-81797059D01*
X155770687Y-81889633D01*
X155616742Y-81953399D01*
X155453315Y-81985907D01*
X155286685Y-81985907D01*
X155123258Y-81953399D01*
X154969313Y-81889633D01*
X154830766Y-81797059D01*
X154712941Y-81679234D01*
X154620367Y-81540687D01*
X154556601Y-81386742D01*
X154524093Y-81223315D01*
X154524093Y-81056685D01*
X154556601Y-80893258D01*
X154620367Y-80739313D01*
X154712941Y-80600766D01*
X154830766Y-80482941D01*
X154969313Y-80390367D01*
X155123258Y-80326601D01*
X155286685Y-80294093D01*
X155453315Y-80294093D01*
X155616742Y-80326601D01*
G37*
G36*
X158156742Y-80326601D02*
G01*
X158310687Y-80390367D01*
X158449234Y-80482941D01*
X158567059Y-80600766D01*
X158659633Y-80739313D01*
X158723399Y-80893258D01*
X158755907Y-81056685D01*
X158755907Y-81223315D01*
X158723399Y-81386742D01*
X158659633Y-81540687D01*
X158567059Y-81679234D01*
X158449234Y-81797059D01*
X158310687Y-81889633D01*
X158156742Y-81953399D01*
X157993315Y-81985907D01*
X157826685Y-81985907D01*
X157663258Y-81953399D01*
X157509313Y-81889633D01*
X157370766Y-81797059D01*
X157252941Y-81679234D01*
X157160367Y-81540687D01*
X157096601Y-81386742D01*
X157064093Y-81223315D01*
X157064093Y-81056685D01*
X157096601Y-80893258D01*
X157160367Y-80739313D01*
X157252941Y-80600766D01*
X157370766Y-80482941D01*
X157509313Y-80390367D01*
X157663258Y-80326601D01*
X157826685Y-80294093D01*
X157993315Y-80294093D01*
X158156742Y-80326601D01*
G37*
G36*
X160696742Y-80326601D02*
G01*
X160850687Y-80390367D01*
X160989234Y-80482941D01*
X161107059Y-80600766D01*
X161199633Y-80739313D01*
X161263399Y-80893258D01*
X161295907Y-81056685D01*
X161295907Y-81223315D01*
X161263399Y-81386742D01*
X161199633Y-81540687D01*
X161107059Y-81679234D01*
X160989234Y-81797059D01*
X160850687Y-81889633D01*
X160696742Y-81953399D01*
X160533315Y-81985907D01*
X160366685Y-81985907D01*
X160203258Y-81953399D01*
X160049313Y-81889633D01*
X159910766Y-81797059D01*
X159792941Y-81679234D01*
X159700367Y-81540687D01*
X159636601Y-81386742D01*
X159604093Y-81223315D01*
X159604093Y-81056685D01*
X159636601Y-80893258D01*
X159700367Y-80739313D01*
X159792941Y-80600766D01*
X159910766Y-80482941D01*
X160049313Y-80390367D01*
X160203258Y-80326601D01*
X160366685Y-80294093D01*
X160533315Y-80294093D01*
X160696742Y-80326601D01*
G37*
G36*
X163236742Y-80326601D02*
G01*
X163390687Y-80390367D01*
X163529234Y-80482941D01*
X163647059Y-80600766D01*
X163739633Y-80739313D01*
X163803399Y-80893258D01*
X163835907Y-81056685D01*
X163835907Y-81223315D01*
X163803399Y-81386742D01*
X163739633Y-81540687D01*
X163647059Y-81679234D01*
X163529234Y-81797059D01*
X163390687Y-81889633D01*
X163236742Y-81953399D01*
X163073315Y-81985907D01*
X162906685Y-81985907D01*
X162743258Y-81953399D01*
X162589313Y-81889633D01*
X162450766Y-81797059D01*
X162332941Y-81679234D01*
X162240367Y-81540687D01*
X162176601Y-81386742D01*
X162144093Y-81223315D01*
X162144093Y-81056685D01*
X162176601Y-80893258D01*
X162240367Y-80739313D01*
X162332941Y-80600766D01*
X162450766Y-80482941D01*
X162589313Y-80390367D01*
X162743258Y-80326601D01*
X162906685Y-80294093D01*
X163073315Y-80294093D01*
X163236742Y-80326601D01*
G37*
G36*
X165776742Y-80326601D02*
G01*
X165930687Y-80390367D01*
X166069234Y-80482941D01*
X166187059Y-80600766D01*
X166279633Y-80739313D01*
X166343399Y-80893258D01*
X166375907Y-81056685D01*
X166375907Y-81223315D01*
X166343399Y-81386742D01*
X166279633Y-81540687D01*
X166187059Y-81679234D01*
X166069234Y-81797059D01*
X165930687Y-81889633D01*
X165776742Y-81953399D01*
X165613315Y-81985907D01*
X165446685Y-81985907D01*
X165283258Y-81953399D01*
X165129313Y-81889633D01*
X164990766Y-81797059D01*
X164872941Y-81679234D01*
X164780367Y-81540687D01*
X164716601Y-81386742D01*
X164684093Y-81223315D01*
X164684093Y-81056685D01*
X164716601Y-80893258D01*
X164780367Y-80739313D01*
X164872941Y-80600766D01*
X164990766Y-80482941D01*
X165129313Y-80390367D01*
X165283258Y-80326601D01*
X165446685Y-80294093D01*
X165613315Y-80294093D01*
X165776742Y-80326601D01*
G37*
G36*
X168316742Y-80326601D02*
G01*
X168470687Y-80390367D01*
X168609234Y-80482941D01*
X168727059Y-80600766D01*
X168819633Y-80739313D01*
X168883399Y-80893258D01*
X168915907Y-81056685D01*
X168915907Y-81223315D01*
X168883399Y-81386742D01*
X168819633Y-81540687D01*
X168727059Y-81679234D01*
X168609234Y-81797059D01*
X168470687Y-81889633D01*
X168316742Y-81953399D01*
X168153315Y-81985907D01*
X167986685Y-81985907D01*
X167823258Y-81953399D01*
X167669313Y-81889633D01*
X167530766Y-81797059D01*
X167412941Y-81679234D01*
X167320367Y-81540687D01*
X167256601Y-81386742D01*
X167224093Y-81223315D01*
X167224093Y-81056685D01*
X167256601Y-80893258D01*
X167320367Y-80739313D01*
X167412941Y-80600766D01*
X167530766Y-80482941D01*
X167669313Y-80390367D01*
X167823258Y-80326601D01*
X167986685Y-80294093D01*
X168153315Y-80294093D01*
X168316742Y-80326601D01*
G37*
G36*
X170856742Y-80326601D02*
G01*
X171010687Y-80390367D01*
X171149234Y-80482941D01*
X171267059Y-80600766D01*
X171359633Y-80739313D01*
X171423399Y-80893258D01*
X171455907Y-81056685D01*
X171455907Y-81223315D01*
X171423399Y-81386742D01*
X171359633Y-81540687D01*
X171267059Y-81679234D01*
X171149234Y-81797059D01*
X171010687Y-81889633D01*
X170856742Y-81953399D01*
X170693315Y-81985907D01*
X170526685Y-81985907D01*
X170363258Y-81953399D01*
X170209313Y-81889633D01*
X170070766Y-81797059D01*
X169952941Y-81679234D01*
X169860367Y-81540687D01*
X169796601Y-81386742D01*
X169764093Y-81223315D01*
X169764093Y-81056685D01*
X169796601Y-80893258D01*
X169860367Y-80739313D01*
X169952941Y-80600766D01*
X170070766Y-80482941D01*
X170209313Y-80390367D01*
X170363258Y-80326601D01*
X170526685Y-80294093D01*
X170693315Y-80294093D01*
X170856742Y-80326601D01*
G37*
G36*
X173396742Y-80326601D02*
G01*
X173550687Y-80390367D01*
X173689234Y-80482941D01*
X173807059Y-80600766D01*
X173899633Y-80739313D01*
X173963399Y-80893258D01*
X173995907Y-81056685D01*
X173995907Y-81223315D01*
X173963399Y-81386742D01*
X173899633Y-81540687D01*
X173807059Y-81679234D01*
X173689234Y-81797059D01*
X173550687Y-81889633D01*
X173396742Y-81953399D01*
X173233315Y-81985907D01*
X173066685Y-81985907D01*
X172903258Y-81953399D01*
X172749313Y-81889633D01*
X172610766Y-81797059D01*
X172492941Y-81679234D01*
X172400367Y-81540687D01*
X172336601Y-81386742D01*
X172304093Y-81223315D01*
X172304093Y-81056685D01*
X172336601Y-80893258D01*
X172400367Y-80739313D01*
X172492941Y-80600766D01*
X172610766Y-80482941D01*
X172749313Y-80390367D01*
X172903258Y-80326601D01*
X173066685Y-80294093D01*
X173233315Y-80294093D01*
X173396742Y-80326601D01*
G37*
G36*
X175936742Y-80326601D02*
G01*
X176090687Y-80390367D01*
X176229234Y-80482941D01*
X176347059Y-80600766D01*
X176439633Y-80739313D01*
X176503399Y-80893258D01*
X176535907Y-81056685D01*
X176535907Y-81223315D01*
X176503399Y-81386742D01*
X176439633Y-81540687D01*
X176347059Y-81679234D01*
X176229234Y-81797059D01*
X176090687Y-81889633D01*
X175936742Y-81953399D01*
X175773315Y-81985907D01*
X175606685Y-81985907D01*
X175443258Y-81953399D01*
X175289313Y-81889633D01*
X175150766Y-81797059D01*
X175032941Y-81679234D01*
X174940367Y-81540687D01*
X174876601Y-81386742D01*
X174844093Y-81223315D01*
X174844093Y-81056685D01*
X174876601Y-80893258D01*
X174940367Y-80739313D01*
X175032941Y-80600766D01*
X175150766Y-80482941D01*
X175289313Y-80390367D01*
X175443258Y-80326601D01*
X175606685Y-80294093D01*
X175773315Y-80294093D01*
X175936742Y-80326601D01*
G37*
G36*
X178476742Y-80326601D02*
G01*
X178630687Y-80390367D01*
X178769234Y-80482941D01*
X178887059Y-80600766D01*
X178979633Y-80739313D01*
X179043399Y-80893258D01*
X179075907Y-81056685D01*
X179075907Y-81223315D01*
X179043399Y-81386742D01*
X178979633Y-81540687D01*
X178887059Y-81679234D01*
X178769234Y-81797059D01*
X178630687Y-81889633D01*
X178476742Y-81953399D01*
X178313315Y-81985907D01*
X178146685Y-81985907D01*
X177983258Y-81953399D01*
X177829313Y-81889633D01*
X177690766Y-81797059D01*
X177572941Y-81679234D01*
X177480367Y-81540687D01*
X177416601Y-81386742D01*
X177384093Y-81223315D01*
X177384093Y-81056685D01*
X177416601Y-80893258D01*
X177480367Y-80739313D01*
X177572941Y-80600766D01*
X177690766Y-80482941D01*
X177829313Y-80390367D01*
X177983258Y-80326601D01*
X178146685Y-80294093D01*
X178313315Y-80294093D01*
X178476742Y-80326601D01*
G37*
G36*
X181016742Y-80326601D02*
G01*
X181170687Y-80390367D01*
X181309234Y-80482941D01*
X181427059Y-80600766D01*
X181519633Y-80739313D01*
X181583399Y-80893258D01*
X181615907Y-81056685D01*
X181615907Y-81223315D01*
X181583399Y-81386742D01*
X181519633Y-81540687D01*
X181427059Y-81679234D01*
X181309234Y-81797059D01*
X181170687Y-81889633D01*
X181016742Y-81953399D01*
X180853315Y-81985907D01*
X180686685Y-81985907D01*
X180523258Y-81953399D01*
X180369313Y-81889633D01*
X180230766Y-81797059D01*
X180112941Y-81679234D01*
X180020367Y-81540687D01*
X179956601Y-81386742D01*
X179924093Y-81223315D01*
X179924093Y-81056685D01*
X179956601Y-80893258D01*
X180020367Y-80739313D01*
X180112941Y-80600766D01*
X180230766Y-80482941D01*
X180369313Y-80390367D01*
X180523258Y-80326601D01*
X180686685Y-80294093D01*
X180853315Y-80294093D01*
X181016742Y-80326601D01*
G37*
G36*
X183556742Y-80326601D02*
G01*
X183710687Y-80390367D01*
X183849234Y-80482941D01*
X183967059Y-80600766D01*
X184059633Y-80739313D01*
X184123399Y-80893258D01*
X184155907Y-81056685D01*
X184155907Y-81223315D01*
X184123399Y-81386742D01*
X184059633Y-81540687D01*
X183967059Y-81679234D01*
X183849234Y-81797059D01*
X183710687Y-81889633D01*
X183556742Y-81953399D01*
X183393315Y-81985907D01*
X183226685Y-81985907D01*
X183063258Y-81953399D01*
X182909313Y-81889633D01*
X182770766Y-81797059D01*
X182652941Y-81679234D01*
X182560367Y-81540687D01*
X182496601Y-81386742D01*
X182464093Y-81223315D01*
X182464093Y-81056685D01*
X182496601Y-80893258D01*
X182560367Y-80739313D01*
X182652941Y-80600766D01*
X182770766Y-80482941D01*
X182909313Y-80390367D01*
X183063258Y-80326601D01*
X183226685Y-80294093D01*
X183393315Y-80294093D01*
X183556742Y-80326601D01*
G37*
G36*
X186096742Y-80326601D02*
G01*
X186250687Y-80390367D01*
X186389234Y-80482941D01*
X186507059Y-80600766D01*
X186599633Y-80739313D01*
X186663399Y-80893258D01*
X186695907Y-81056685D01*
X186695907Y-81223315D01*
X186663399Y-81386742D01*
X186599633Y-81540687D01*
X186507059Y-81679234D01*
X186389234Y-81797059D01*
X186250687Y-81889633D01*
X186096742Y-81953399D01*
X185933315Y-81985907D01*
X185766685Y-81985907D01*
X185603258Y-81953399D01*
X185449313Y-81889633D01*
X185310766Y-81797059D01*
X185192941Y-81679234D01*
X185100367Y-81540687D01*
X185036601Y-81386742D01*
X185004093Y-81223315D01*
X185004093Y-81056685D01*
X185036601Y-80893258D01*
X185100367Y-80739313D01*
X185192941Y-80600766D01*
X185310766Y-80482941D01*
X185449313Y-80390367D01*
X185603258Y-80326601D01*
X185766685Y-80294093D01*
X185933315Y-80294093D01*
X186096742Y-80326601D01*
G37*
G36*
X188636742Y-80326601D02*
G01*
X188790687Y-80390367D01*
X188929234Y-80482941D01*
X189047059Y-80600766D01*
X189139633Y-80739313D01*
X189203399Y-80893258D01*
X189235907Y-81056685D01*
X189235907Y-81223315D01*
X189203399Y-81386742D01*
X189139633Y-81540687D01*
X189047059Y-81679234D01*
X188929234Y-81797059D01*
X188790687Y-81889633D01*
X188636742Y-81953399D01*
X188473315Y-81985907D01*
X188306685Y-81985907D01*
X188143258Y-81953399D01*
X187989313Y-81889633D01*
X187850766Y-81797059D01*
X187732941Y-81679234D01*
X187640367Y-81540687D01*
X187576601Y-81386742D01*
X187544093Y-81223315D01*
X187544093Y-81056685D01*
X187576601Y-80893258D01*
X187640367Y-80739313D01*
X187732941Y-80600766D01*
X187850766Y-80482941D01*
X187989313Y-80390367D01*
X188143258Y-80326601D01*
X188306685Y-80294093D01*
X188473315Y-80294093D01*
X188636742Y-80326601D01*
G37*
G36*
X191176742Y-80326601D02*
G01*
X191330687Y-80390367D01*
X191469234Y-80482941D01*
X191587059Y-80600766D01*
X191679633Y-80739313D01*
X191743399Y-80893258D01*
X191775907Y-81056685D01*
X191775907Y-81223315D01*
X191743399Y-81386742D01*
X191679633Y-81540687D01*
X191587059Y-81679234D01*
X191469234Y-81797059D01*
X191330687Y-81889633D01*
X191176742Y-81953399D01*
X191013315Y-81985907D01*
X190846685Y-81985907D01*
X190683258Y-81953399D01*
X190529313Y-81889633D01*
X190390766Y-81797059D01*
X190272941Y-81679234D01*
X190180367Y-81540687D01*
X190116601Y-81386742D01*
X190084093Y-81223315D01*
X190084093Y-81056685D01*
X190116601Y-80893258D01*
X190180367Y-80739313D01*
X190272941Y-80600766D01*
X190390766Y-80482941D01*
X190529313Y-80390367D01*
X190683258Y-80326601D01*
X190846685Y-80294093D01*
X191013315Y-80294093D01*
X191176742Y-80326601D01*
G37*
G36*
X193716742Y-80326601D02*
G01*
X193870687Y-80390367D01*
X194009234Y-80482941D01*
X194127059Y-80600766D01*
X194219633Y-80739313D01*
X194283399Y-80893258D01*
X194315907Y-81056685D01*
X194315907Y-81223315D01*
X194283399Y-81386742D01*
X194219633Y-81540687D01*
X194127059Y-81679234D01*
X194009234Y-81797059D01*
X193870687Y-81889633D01*
X193716742Y-81953399D01*
X193553315Y-81985907D01*
X193386685Y-81985907D01*
X193223258Y-81953399D01*
X193069313Y-81889633D01*
X192930766Y-81797059D01*
X192812941Y-81679234D01*
X192720367Y-81540687D01*
X192656601Y-81386742D01*
X192624093Y-81223315D01*
X192624093Y-81056685D01*
X192656601Y-80893258D01*
X192720367Y-80739313D01*
X192812941Y-80600766D01*
X192930766Y-80482941D01*
X193069313Y-80390367D01*
X193223258Y-80326601D01*
X193386685Y-80294093D01*
X193553315Y-80294093D01*
X193716742Y-80326601D01*
G37*
G36*
X223040168Y-77621445D02*
G01*
X223264025Y-77694181D01*
X223473748Y-77801040D01*
X223664172Y-77939391D01*
X223830609Y-78105828D01*
X223968960Y-78296252D01*
X224075819Y-78505975D01*
X224148555Y-78729832D01*
X224185376Y-78962311D01*
X224185376Y-79197689D01*
X224148555Y-79430168D01*
X224075819Y-79654025D01*
X223968960Y-79863748D01*
X223830609Y-80054172D01*
X223664172Y-80220609D01*
X223473748Y-80358960D01*
X223264025Y-80465819D01*
X223040168Y-80538555D01*
X222807689Y-80575376D01*
X222572311Y-80575376D01*
X222339832Y-80538555D01*
X222115975Y-80465819D01*
X221906252Y-80358960D01*
X221715828Y-80220609D01*
X221549391Y-80054172D01*
X221411040Y-79863748D01*
X221304181Y-79654025D01*
X221231445Y-79430168D01*
X221194624Y-79197689D01*
X221194624Y-78962311D01*
X221231445Y-78729832D01*
X221304181Y-78505975D01*
X221411040Y-78296252D01*
X221549391Y-78105828D01*
X221715828Y-77939391D01*
X221906252Y-77801040D01*
X222115975Y-77694181D01*
X222339832Y-77621445D01*
X222572311Y-77584624D01*
X222807689Y-77584624D01*
X223040168Y-77621445D01*
G37*
G36*
X204722308Y-78468240D02*
G01*
X204879732Y-78533447D01*
X205021403Y-78628108D01*
X205141891Y-78748596D01*
X205236552Y-78890267D01*
X205236553Y-78890269D01*
X205239626Y-78897689D01*
X205301759Y-79047691D01*
X205335000Y-79214804D01*
X205335000Y-79685195D01*
X205321280Y-79754172D01*
X205301758Y-79852311D01*
X205236553Y-80009731D01*
X205206858Y-80054172D01*
X205141891Y-80151403D01*
X205021403Y-80271891D01*
X204939523Y-80326601D01*
X204879731Y-80366553D01*
X204722311Y-80431758D01*
X204722309Y-80431758D01*
X204722308Y-80431759D01*
X204555196Y-80465000D01*
X204555195Y-80465000D01*
X204384805Y-80465000D01*
X204384804Y-80465000D01*
X204217691Y-80431759D01*
X204060267Y-80366552D01*
X203918596Y-80271891D01*
X203798108Y-80151403D01*
X203703447Y-80009732D01*
X203638240Y-79852308D01*
X203605000Y-79685195D01*
X203605000Y-79214804D01*
X203638240Y-79047691D01*
X203703447Y-78890267D01*
X203798108Y-78748596D01*
X203918596Y-78628108D01*
X204060267Y-78533447D01*
X204217691Y-78468240D01*
X204384804Y-78435000D01*
X204555196Y-78435000D01*
X204722308Y-78468240D01*
G37*
G36*
X207262308Y-78468240D02*
G01*
X207419732Y-78533447D01*
X207561403Y-78628108D01*
X207681891Y-78748596D01*
X207776552Y-78890267D01*
X207776553Y-78890269D01*
X207779626Y-78897689D01*
X207841759Y-79047691D01*
X207875000Y-79214804D01*
X207875000Y-79685195D01*
X207861280Y-79754172D01*
X207841758Y-79852311D01*
X207776553Y-80009731D01*
X207746858Y-80054172D01*
X207681891Y-80151403D01*
X207561403Y-80271891D01*
X207479523Y-80326601D01*
X207419731Y-80366553D01*
X207262311Y-80431758D01*
X207262309Y-80431758D01*
X207262308Y-80431759D01*
X207095196Y-80465000D01*
X207095195Y-80465000D01*
X206924805Y-80465000D01*
X206924804Y-80465000D01*
X206757691Y-80431759D01*
X206600267Y-80366552D01*
X206458596Y-80271891D01*
X206338108Y-80151403D01*
X206243447Y-80009732D01*
X206178240Y-79852308D01*
X206145000Y-79685195D01*
X206145000Y-79214804D01*
X206178240Y-79047691D01*
X206243447Y-78890267D01*
X206338108Y-78748596D01*
X206458596Y-78628108D01*
X206600267Y-78533447D01*
X206757691Y-78468240D01*
X206924804Y-78435000D01*
X207095196Y-78435000D01*
X207262308Y-78468240D01*
G37*
G36*
X209802308Y-78468240D02*
G01*
X209959732Y-78533447D01*
X210101403Y-78628108D01*
X210221891Y-78748596D01*
X210316552Y-78890267D01*
X210316553Y-78890269D01*
X210319626Y-78897689D01*
X210381759Y-79047691D01*
X210415000Y-79214804D01*
X210415000Y-79685195D01*
X210401280Y-79754172D01*
X210381758Y-79852311D01*
X210316553Y-80009731D01*
X210286858Y-80054172D01*
X210221891Y-80151403D01*
X210101403Y-80271891D01*
X210019523Y-80326601D01*
X209959731Y-80366553D01*
X209802311Y-80431758D01*
X209802309Y-80431758D01*
X209802308Y-80431759D01*
X209635196Y-80465000D01*
X209635195Y-80465000D01*
X209464805Y-80465000D01*
X209464804Y-80465000D01*
X209297691Y-80431759D01*
X209140267Y-80366552D01*
X208998596Y-80271891D01*
X208878108Y-80151403D01*
X208783447Y-80009732D01*
X208718240Y-79852308D01*
X208685000Y-79685195D01*
X208685000Y-79214804D01*
X208718240Y-79047691D01*
X208783447Y-78890267D01*
X208878108Y-78748596D01*
X208998596Y-78628108D01*
X209140267Y-78533447D01*
X209297691Y-78468240D01*
X209464804Y-78435000D01*
X209635196Y-78435000D01*
X209802308Y-78468240D01*
G37*
G36*
X212955000Y-80465000D02*
G01*
X212954996Y-80465000D01*
X211225004Y-80465000D01*
X211225000Y-80465000D01*
X211225000Y-78435000D01*
X212955000Y-78435000D01*
X212955000Y-80465000D01*
G37*
G36*
X238040168Y-77321445D02*
G01*
X238264025Y-77394181D01*
X238473748Y-77501040D01*
X238664172Y-77639391D01*
X238830609Y-77805828D01*
X238968960Y-77996252D01*
X239075819Y-78205975D01*
X239148555Y-78429832D01*
X239185376Y-78662311D01*
X239185376Y-78897689D01*
X239148555Y-79130168D01*
X239075819Y-79354025D01*
X238968960Y-79563748D01*
X238830609Y-79754172D01*
X238664172Y-79920609D01*
X238473748Y-80058960D01*
X238264025Y-80165819D01*
X238040168Y-80238555D01*
X237807689Y-80275376D01*
X237572311Y-80275376D01*
X237339832Y-80238555D01*
X237115975Y-80165819D01*
X236906252Y-80058960D01*
X236715828Y-79920609D01*
X236549391Y-79754172D01*
X236411040Y-79563748D01*
X236304181Y-79354025D01*
X236231445Y-79130168D01*
X236194624Y-78897689D01*
X236194624Y-78662311D01*
X236231445Y-78429832D01*
X236304181Y-78205975D01*
X236411040Y-77996252D01*
X236549391Y-77805828D01*
X236715828Y-77639391D01*
X236906252Y-77501040D01*
X237115975Y-77394181D01*
X237339832Y-77321445D01*
X237572311Y-77284624D01*
X237807689Y-77284624D01*
X238040168Y-77321445D01*
G37*
G36*
X253040168Y-77321445D02*
G01*
X253264025Y-77394181D01*
X253473748Y-77501040D01*
X253664172Y-77639391D01*
X253830609Y-77805828D01*
X253968960Y-77996252D01*
X254075819Y-78205975D01*
X254148555Y-78429832D01*
X254185376Y-78662311D01*
X254185376Y-78897689D01*
X254148555Y-79130168D01*
X254075819Y-79354025D01*
X253968960Y-79563748D01*
X253830609Y-79754172D01*
X253664172Y-79920609D01*
X253473748Y-80058960D01*
X253264025Y-80165819D01*
X253040168Y-80238555D01*
X252807689Y-80275376D01*
X252572311Y-80275376D01*
X252339832Y-80238555D01*
X252115975Y-80165819D01*
X251906252Y-80058960D01*
X251715828Y-79920609D01*
X251549391Y-79754172D01*
X251411040Y-79563748D01*
X251304181Y-79354025D01*
X251231445Y-79130168D01*
X251194624Y-78897689D01*
X251194624Y-78662311D01*
X251231445Y-78429832D01*
X251304181Y-78205975D01*
X251411040Y-77996252D01*
X251549391Y-77805828D01*
X251715828Y-77639391D01*
X251906252Y-77501040D01*
X252115975Y-77394181D01*
X252339832Y-77321445D01*
X252572311Y-77284624D01*
X252807689Y-77284624D01*
X253040168Y-77321445D01*
G37*
G36*
X58530168Y-76651445D02*
G01*
X58754025Y-76724181D01*
X58963748Y-76831040D01*
X59154172Y-76969391D01*
X59320609Y-77135828D01*
X59458960Y-77326252D01*
X59565819Y-77535975D01*
X59638555Y-77759832D01*
X59675376Y-77992311D01*
X59675376Y-78227689D01*
X59638555Y-78460168D01*
X59565819Y-78684025D01*
X59458960Y-78893748D01*
X59320609Y-79084172D01*
X59154172Y-79250609D01*
X58963748Y-79388960D01*
X58754025Y-79495819D01*
X58530168Y-79568555D01*
X58297689Y-79605376D01*
X58062311Y-79605376D01*
X57829832Y-79568555D01*
X57605975Y-79495819D01*
X57396252Y-79388960D01*
X57205828Y-79250609D01*
X57039391Y-79084172D01*
X56901040Y-78893748D01*
X56794181Y-78684025D01*
X56721445Y-78460168D01*
X56684624Y-78227689D01*
X56684624Y-77992311D01*
X56721445Y-77759832D01*
X56794181Y-77535975D01*
X56901040Y-77326252D01*
X57039391Y-77135828D01*
X57205828Y-76969391D01*
X57396252Y-76831040D01*
X57605975Y-76724181D01*
X57829832Y-76651445D01*
X58062311Y-76614624D01*
X58297689Y-76614624D01*
X58530168Y-76651445D01*
G37*
G36*
X207134939Y-76754075D02*
G01*
X207170426Y-76761134D01*
X207187179Y-76768073D01*
X207222292Y-76777482D01*
X207253774Y-76795657D01*
X207270524Y-76802596D01*
X207300605Y-76822695D01*
X207347708Y-76849890D01*
X207450110Y-76952292D01*
X207477306Y-76999398D01*
X207497403Y-77029475D01*
X207504339Y-77046222D01*
X207522518Y-77077708D01*
X207531927Y-77112824D01*
X207538865Y-77129573D01*
X207545922Y-77165052D01*
X207560000Y-77217591D01*
X207560000Y-77362409D01*
X207545921Y-77414950D01*
X207538865Y-77450426D01*
X207531928Y-77467172D01*
X207522518Y-77502292D01*
X207504338Y-77533780D01*
X207497403Y-77550524D01*
X207477310Y-77580594D01*
X207450110Y-77627708D01*
X207347708Y-77730110D01*
X207300594Y-77757310D01*
X207270524Y-77777403D01*
X207253780Y-77784338D01*
X207222292Y-77802518D01*
X207187172Y-77811928D01*
X207170426Y-77818865D01*
X207134949Y-77825921D01*
X207082409Y-77840000D01*
X207064172Y-77840000D01*
X206955828Y-77840000D01*
X206937591Y-77840000D01*
X206885052Y-77825922D01*
X206849573Y-77818865D01*
X206832824Y-77811927D01*
X206797708Y-77802518D01*
X206766222Y-77784339D01*
X206749475Y-77777403D01*
X206719398Y-77757306D01*
X206672292Y-77730110D01*
X206569890Y-77627708D01*
X206542695Y-77580605D01*
X206522596Y-77550524D01*
X206515657Y-77533774D01*
X206497482Y-77502292D01*
X206488073Y-77467179D01*
X206481134Y-77450426D01*
X206474076Y-77414940D01*
X206460000Y-77362409D01*
X206460000Y-77217591D01*
X206474075Y-77165061D01*
X206481134Y-77129573D01*
X206488074Y-77112817D01*
X206497482Y-77077708D01*
X206515656Y-77046228D01*
X206522596Y-77029475D01*
X206542699Y-76999387D01*
X206569890Y-76952292D01*
X206582781Y-76939400D01*
X206582784Y-76939397D01*
X206659397Y-76862784D01*
X206659400Y-76862781D01*
X206672292Y-76849890D01*
X206719387Y-76822699D01*
X206749475Y-76802596D01*
X206766228Y-76795656D01*
X206797708Y-76777482D01*
X206832817Y-76768074D01*
X206849573Y-76761134D01*
X206885061Y-76754075D01*
X206937591Y-76740000D01*
X207082409Y-76740000D01*
X207134939Y-76754075D01*
G37*
G36*
X223040168Y-66221445D02*
G01*
X223264025Y-66294181D01*
X223473748Y-66401040D01*
X223664172Y-66539391D01*
X223830609Y-66705828D01*
X223968960Y-66896252D01*
X224075819Y-67105975D01*
X224148555Y-67329832D01*
X224185376Y-67562311D01*
X224185376Y-67797689D01*
X224148555Y-68030168D01*
X224075819Y-68254025D01*
X223968960Y-68463748D01*
X223830609Y-68654172D01*
X223664172Y-68820609D01*
X223473748Y-68958960D01*
X223264025Y-69065819D01*
X223040168Y-69138555D01*
X222807689Y-69175376D01*
X222572311Y-69175376D01*
X222339832Y-69138555D01*
X222115975Y-69065819D01*
X221906252Y-68958960D01*
X221715828Y-68820609D01*
X221549391Y-68654172D01*
X221411040Y-68463748D01*
X221304181Y-68254025D01*
X221231445Y-68030168D01*
X221194624Y-67797689D01*
X221194624Y-67562311D01*
X221231445Y-67329832D01*
X221304181Y-67105975D01*
X221411040Y-66896252D01*
X221549391Y-66705828D01*
X221715828Y-66539391D01*
X221906252Y-66401040D01*
X222115975Y-66294181D01*
X222339832Y-66221445D01*
X222572311Y-66184624D01*
X222807689Y-66184624D01*
X223040168Y-66221445D01*
G37*
G36*
X238040168Y-65921445D02*
G01*
X238264025Y-65994181D01*
X238473748Y-66101040D01*
X238664172Y-66239391D01*
X238830609Y-66405828D01*
X238968960Y-66596252D01*
X239075819Y-66805975D01*
X239148555Y-67029832D01*
X239185376Y-67262311D01*
X239185376Y-67497689D01*
X239148555Y-67730168D01*
X239075819Y-67954025D01*
X238968960Y-68163748D01*
X238830609Y-68354172D01*
X238664172Y-68520609D01*
X238473748Y-68658960D01*
X238264025Y-68765819D01*
X238040168Y-68838555D01*
X237807689Y-68875376D01*
X237572311Y-68875376D01*
X237339832Y-68838555D01*
X237115975Y-68765819D01*
X236906252Y-68658960D01*
X236715828Y-68520609D01*
X236549391Y-68354172D01*
X236411040Y-68163748D01*
X236304181Y-67954025D01*
X236231445Y-67730168D01*
X236194624Y-67497689D01*
X236194624Y-67262311D01*
X236231445Y-67029832D01*
X236304181Y-66805975D01*
X236411040Y-66596252D01*
X236549391Y-66405828D01*
X236715828Y-66239391D01*
X236906252Y-66101040D01*
X237115975Y-65994181D01*
X237339832Y-65921445D01*
X237572311Y-65884624D01*
X237807689Y-65884624D01*
X238040168Y-65921445D01*
G37*
G36*
X253040168Y-65921445D02*
G01*
X253264025Y-65994181D01*
X253473748Y-66101040D01*
X253664172Y-66239391D01*
X253830609Y-66405828D01*
X253968960Y-66596252D01*
X254075819Y-66805975D01*
X254148555Y-67029832D01*
X254185376Y-67262311D01*
X254185376Y-67497689D01*
X254148555Y-67730168D01*
X254075819Y-67954025D01*
X253968960Y-68163748D01*
X253830609Y-68354172D01*
X253664172Y-68520609D01*
X253473748Y-68658960D01*
X253264025Y-68765819D01*
X253040168Y-68838555D01*
X252807689Y-68875376D01*
X252572311Y-68875376D01*
X252339832Y-68838555D01*
X252115975Y-68765819D01*
X251906252Y-68658960D01*
X251715828Y-68520609D01*
X251549391Y-68354172D01*
X251411040Y-68163748D01*
X251304181Y-67954025D01*
X251231445Y-67730168D01*
X251194624Y-67497689D01*
X251194624Y-67262311D01*
X251231445Y-67029832D01*
X251304181Y-66805975D01*
X251411040Y-66596252D01*
X251549391Y-66405828D01*
X251715828Y-66239391D01*
X251906252Y-66101040D01*
X252115975Y-65994181D01*
X252339832Y-65921445D01*
X252572311Y-65884624D01*
X252807689Y-65884624D01*
X253040168Y-65921445D01*
G37*
G36*
X58530168Y-65251445D02*
G01*
X58754025Y-65324181D01*
X58963748Y-65431040D01*
X59154172Y-65569391D01*
X59320609Y-65735828D01*
X59458960Y-65926252D01*
X59565819Y-66135975D01*
X59638555Y-66359832D01*
X59675376Y-66592311D01*
X59675376Y-66827689D01*
X59638555Y-67060168D01*
X59565819Y-67284025D01*
X59458960Y-67493748D01*
X59320609Y-67684172D01*
X59154172Y-67850609D01*
X58963748Y-67988960D01*
X58754025Y-68095819D01*
X58530168Y-68168555D01*
X58297689Y-68205376D01*
X58062311Y-68205376D01*
X57829832Y-68168555D01*
X57605975Y-68095819D01*
X57396252Y-67988960D01*
X57205828Y-67850609D01*
X57039391Y-67684172D01*
X56901040Y-67493748D01*
X56794181Y-67284025D01*
X56721445Y-67060168D01*
X56684624Y-66827689D01*
X56684624Y-66592311D01*
X56721445Y-66359832D01*
X56794181Y-66135975D01*
X56901040Y-65926252D01*
X57039391Y-65735828D01*
X57205828Y-65569391D01*
X57396252Y-65431040D01*
X57605975Y-65324181D01*
X57829832Y-65251445D01*
X58062311Y-65214624D01*
X58297689Y-65214624D01*
X58530168Y-65251445D01*
G37*
G36*
X72762308Y-62158240D02*
G01*
X72919732Y-62223447D01*
X73061403Y-62318108D01*
X73181891Y-62438596D01*
X73276552Y-62580267D01*
X73341759Y-62737691D01*
X73375000Y-62904804D01*
X73375000Y-62904805D01*
X73375000Y-63375195D01*
X73341758Y-63542311D01*
X73276553Y-63699731D01*
X73276552Y-63699732D01*
X73181891Y-63841403D01*
X73061403Y-63961891D01*
X72966955Y-64024998D01*
X72919731Y-64056553D01*
X72762311Y-64121758D01*
X72762309Y-64121758D01*
X72762308Y-64121759D01*
X72595196Y-64155000D01*
X72595195Y-64155000D01*
X72424805Y-64155000D01*
X72424804Y-64155000D01*
X72257691Y-64121759D01*
X72100267Y-64056552D01*
X71958596Y-63961891D01*
X71838108Y-63841403D01*
X71743447Y-63699732D01*
X71678240Y-63542308D01*
X71645000Y-63375195D01*
X71645000Y-62904804D01*
X71678240Y-62737691D01*
X71743447Y-62580267D01*
X71838108Y-62438596D01*
X71958596Y-62318108D01*
X72100267Y-62223447D01*
X72257691Y-62158240D01*
X72424804Y-62125000D01*
X72595196Y-62125000D01*
X72762308Y-62158240D01*
G37*
G36*
X75302308Y-62158240D02*
G01*
X75459732Y-62223447D01*
X75601403Y-62318108D01*
X75721891Y-62438596D01*
X75816552Y-62580267D01*
X75881759Y-62737691D01*
X75915000Y-62904804D01*
X75915000Y-62904805D01*
X75915000Y-63375195D01*
X75881758Y-63542311D01*
X75816553Y-63699731D01*
X75816552Y-63699732D01*
X75721891Y-63841403D01*
X75601403Y-63961891D01*
X75506955Y-64024998D01*
X75459731Y-64056553D01*
X75302311Y-64121758D01*
X75302309Y-64121758D01*
X75302308Y-64121759D01*
X75135196Y-64155000D01*
X75135195Y-64155000D01*
X74964805Y-64155000D01*
X74964804Y-64155000D01*
X74797691Y-64121759D01*
X74640267Y-64056552D01*
X74498596Y-63961891D01*
X74378108Y-63841403D01*
X74283447Y-63699732D01*
X74218240Y-63542308D01*
X74185000Y-63375195D01*
X74185000Y-62904804D01*
X74218240Y-62737691D01*
X74283447Y-62580267D01*
X74378108Y-62438596D01*
X74498596Y-62318108D01*
X74640267Y-62223447D01*
X74797691Y-62158240D01*
X74964804Y-62125000D01*
X75135196Y-62125000D01*
X75302308Y-62158240D01*
G37*
G36*
X78455000Y-64155000D02*
G01*
X78454996Y-64155000D01*
X76725004Y-64155000D01*
X76725000Y-64155000D01*
X76725000Y-62125000D01*
X78455000Y-62125000D01*
X78455000Y-64155000D01*
G37*
G36*
X190842308Y-62158240D02*
G01*
X190999732Y-62223447D01*
X191141403Y-62318108D01*
X191261891Y-62438596D01*
X191356552Y-62580267D01*
X191421759Y-62737691D01*
X191455000Y-62904804D01*
X191455000Y-62904805D01*
X191455000Y-63375195D01*
X191421758Y-63542311D01*
X191356553Y-63699731D01*
X191356552Y-63699732D01*
X191261891Y-63841403D01*
X191141403Y-63961891D01*
X191046955Y-64024998D01*
X190999731Y-64056553D01*
X190842311Y-64121758D01*
X190842309Y-64121758D01*
X190842308Y-64121759D01*
X190675196Y-64155000D01*
X190675195Y-64155000D01*
X190504805Y-64155000D01*
X190504804Y-64155000D01*
X190337691Y-64121759D01*
X190180267Y-64056552D01*
X190038596Y-63961891D01*
X189918108Y-63841403D01*
X189823447Y-63699732D01*
X189758240Y-63542308D01*
X189725000Y-63375195D01*
X189725000Y-62904804D01*
X189758240Y-62737691D01*
X189823447Y-62580267D01*
X189918108Y-62438596D01*
X190038596Y-62318108D01*
X190180267Y-62223447D01*
X190337691Y-62158240D01*
X190504804Y-62125000D01*
X190675196Y-62125000D01*
X190842308Y-62158240D01*
G37*
G36*
X193382308Y-62158240D02*
G01*
X193539732Y-62223447D01*
X193681403Y-62318108D01*
X193801891Y-62438596D01*
X193896552Y-62580267D01*
X193961759Y-62737691D01*
X193995000Y-62904804D01*
X193995000Y-62904805D01*
X193995000Y-63375195D01*
X193961758Y-63542311D01*
X193896553Y-63699731D01*
X193896552Y-63699732D01*
X193801891Y-63841403D01*
X193681403Y-63961891D01*
X193586955Y-64024998D01*
X193539731Y-64056553D01*
X193382311Y-64121758D01*
X193382309Y-64121758D01*
X193382308Y-64121759D01*
X193215196Y-64155000D01*
X193215195Y-64155000D01*
X193044805Y-64155000D01*
X193044804Y-64155000D01*
X192877691Y-64121759D01*
X192720267Y-64056552D01*
X192578596Y-63961891D01*
X192458108Y-63841403D01*
X192363447Y-63699732D01*
X192298240Y-63542308D01*
X192265000Y-63375195D01*
X192265000Y-62904804D01*
X192298240Y-62737691D01*
X192363447Y-62580267D01*
X192458108Y-62438596D01*
X192578596Y-62318108D01*
X192720267Y-62223447D01*
X192877691Y-62158240D01*
X193044804Y-62125000D01*
X193215196Y-62125000D01*
X193382308Y-62158240D01*
G37*
G36*
X196535000Y-64155000D02*
G01*
X196534996Y-64155000D01*
X194805004Y-64155000D01*
X194805000Y-64155000D01*
X194805000Y-62125000D01*
X196535000Y-62125000D01*
X196535000Y-64155000D01*
G37*
M02*
