%TF.GenerationSoftware,KiCad,Pcbnew,9.0.6*%
%TF.CreationDate,2025-11-28T12:10:43-05:00*%
%TF.ProjectId,AltairDrive,416c7461-6972-4447-9269-76652e6b6963,rev?*%
%TF.SameCoordinates,Original*%
%TF.FileFunction,Copper,L2,Bot*%
%TF.FilePolarity,Positive*%
%FSLAX46Y46*%
G04 Gerber Fmt 4.6, Leading zero omitted, Abs format (unit mm)*
G04 Created by KiCad (PCBNEW 9.0.6) date 2025-11-28 12:10:43*
%MOMM*%
%LPD*%
G01*
G04 APERTURE LIST*
%ADD10C,0.304800*%
%TA.AperFunction,NonConductor*%
%ADD11C,0.304800*%
%TD*%
%TA.AperFunction,ComponentPad*%
%ADD12R,1.730000X2.030000*%
%TD*%
%TA.AperFunction,ComponentPad*%
%ADD13O,1.730000X2.030000*%
%TD*%
%TA.AperFunction,ComponentPad*%
%ADD14C,3.000000*%
%TD*%
%TA.AperFunction,ComponentPad*%
%ADD15R,1.800000X1.800000*%
%TD*%
%TA.AperFunction,ComponentPad*%
%ADD16C,1.800000*%
%TD*%
%TA.AperFunction,ComponentPad*%
%ADD17C,3.500000*%
%TD*%
%TA.AperFunction,ComponentPad*%
%ADD18C,1.700000*%
%TD*%
%TA.AperFunction,ComponentPad*%
%ADD19R,1.700000X1.700000*%
%TD*%
%TA.AperFunction,Conductor*%
%ADD20C,0.200000*%
%TD*%
%TA.AperFunction,Conductor*%
%ADD21C,0.400000*%
%TD*%
%TA.AperFunction,Conductor*%
%ADD22C,0.127000*%
%TD*%
G04 APERTURE END LIST*
D10*
D11*
X211786616Y-85457641D02*
X211786616Y-83933641D01*
X211133474Y-84078784D02*
X211060902Y-84006212D01*
X211060902Y-84006212D02*
X210915760Y-83933641D01*
X210915760Y-83933641D02*
X210552902Y-83933641D01*
X210552902Y-83933641D02*
X210407760Y-84006212D01*
X210407760Y-84006212D02*
X210335188Y-84078784D01*
X210335188Y-84078784D02*
X210262617Y-84223927D01*
X210262617Y-84223927D02*
X210262617Y-84369070D01*
X210262617Y-84369070D02*
X210335188Y-84586784D01*
X210335188Y-84586784D02*
X211206045Y-85457641D01*
X211206045Y-85457641D02*
X210262617Y-85457641D01*
X208738616Y-85312498D02*
X208811188Y-85385070D01*
X208811188Y-85385070D02*
X209028902Y-85457641D01*
X209028902Y-85457641D02*
X209174045Y-85457641D01*
X209174045Y-85457641D02*
X209391759Y-85385070D01*
X209391759Y-85385070D02*
X209536902Y-85239927D01*
X209536902Y-85239927D02*
X209609473Y-85094784D01*
X209609473Y-85094784D02*
X209682045Y-84804498D01*
X209682045Y-84804498D02*
X209682045Y-84586784D01*
X209682045Y-84586784D02*
X209609473Y-84296498D01*
X209609473Y-84296498D02*
X209536902Y-84151355D01*
X209536902Y-84151355D02*
X209391759Y-84006212D01*
X209391759Y-84006212D02*
X209174045Y-83933641D01*
X209174045Y-83933641D02*
X209028902Y-83933641D01*
X209028902Y-83933641D02*
X208811188Y-84006212D01*
X208811188Y-84006212D02*
X208738616Y-84078784D01*
D10*
D11*
X69756616Y-63312641D02*
X69756616Y-61788641D01*
X69756616Y-61788641D02*
X69176045Y-61788641D01*
X69176045Y-61788641D02*
X69030902Y-61861212D01*
X69030902Y-61861212D02*
X68958331Y-61933784D01*
X68958331Y-61933784D02*
X68885759Y-62078927D01*
X68885759Y-62078927D02*
X68885759Y-62296641D01*
X68885759Y-62296641D02*
X68958331Y-62441784D01*
X68958331Y-62441784D02*
X69030902Y-62514355D01*
X69030902Y-62514355D02*
X69176045Y-62586927D01*
X69176045Y-62586927D02*
X69756616Y-62586927D01*
X68377759Y-61788641D02*
X68014902Y-63312641D01*
X68014902Y-63312641D02*
X67724616Y-62224070D01*
X67724616Y-62224070D02*
X67434331Y-63312641D01*
X67434331Y-63312641D02*
X67071474Y-61788641D01*
X65620045Y-63312641D02*
X66128045Y-62586927D01*
X66490902Y-63312641D02*
X66490902Y-61788641D01*
X66490902Y-61788641D02*
X65910331Y-61788641D01*
X65910331Y-61788641D02*
X65765188Y-61861212D01*
X65765188Y-61861212D02*
X65692617Y-61933784D01*
X65692617Y-61933784D02*
X65620045Y-62078927D01*
X65620045Y-62078927D02*
X65620045Y-62296641D01*
X65620045Y-62296641D02*
X65692617Y-62441784D01*
X65692617Y-62441784D02*
X65765188Y-62514355D01*
X65765188Y-62514355D02*
X65910331Y-62586927D01*
X65910331Y-62586927D02*
X66490902Y-62586927D01*
D10*
D11*
X187629188Y-63905070D02*
X187411474Y-63977641D01*
X187411474Y-63977641D02*
X187048616Y-63977641D01*
X187048616Y-63977641D02*
X186903474Y-63905070D01*
X186903474Y-63905070D02*
X186830902Y-63832498D01*
X186830902Y-63832498D02*
X186758331Y-63687355D01*
X186758331Y-63687355D02*
X186758331Y-63542212D01*
X186758331Y-63542212D02*
X186830902Y-63397070D01*
X186830902Y-63397070D02*
X186903474Y-63324498D01*
X186903474Y-63324498D02*
X187048616Y-63251927D01*
X187048616Y-63251927D02*
X187338902Y-63179355D01*
X187338902Y-63179355D02*
X187484045Y-63106784D01*
X187484045Y-63106784D02*
X187556616Y-63034212D01*
X187556616Y-63034212D02*
X187629188Y-62889070D01*
X187629188Y-62889070D02*
X187629188Y-62743927D01*
X187629188Y-62743927D02*
X187556616Y-62598784D01*
X187556616Y-62598784D02*
X187484045Y-62526212D01*
X187484045Y-62526212D02*
X187338902Y-62453641D01*
X187338902Y-62453641D02*
X186976045Y-62453641D01*
X186976045Y-62453641D02*
X186758331Y-62526212D01*
X186105187Y-63179355D02*
X185597187Y-63179355D01*
X185379473Y-63977641D02*
X186105187Y-63977641D01*
X186105187Y-63977641D02*
X186105187Y-62453641D01*
X186105187Y-62453641D02*
X185379473Y-62453641D01*
X183855473Y-63977641D02*
X184363473Y-63251927D01*
X184726330Y-63977641D02*
X184726330Y-62453641D01*
X184726330Y-62453641D02*
X184145759Y-62453641D01*
X184145759Y-62453641D02*
X184000616Y-62526212D01*
X184000616Y-62526212D02*
X183928045Y-62598784D01*
X183928045Y-62598784D02*
X183855473Y-62743927D01*
X183855473Y-62743927D02*
X183855473Y-62961641D01*
X183855473Y-62961641D02*
X183928045Y-63106784D01*
X183928045Y-63106784D02*
X184000616Y-63179355D01*
X184000616Y-63179355D02*
X184145759Y-63251927D01*
X184145759Y-63251927D02*
X184726330Y-63251927D01*
X183202330Y-63977641D02*
X183202330Y-62453641D01*
X182549188Y-63542212D02*
X181823474Y-63542212D01*
X182694331Y-63977641D02*
X182186331Y-62453641D01*
X182186331Y-62453641D02*
X181678331Y-63977641D01*
X180444616Y-63977641D02*
X181170330Y-63977641D01*
X181170330Y-63977641D02*
X181170330Y-62453641D01*
D12*
%TO.P,J4,1,Pin_1*%
%TO.N,Net-(D1-K)*%
X212090000Y-79450000D03*
D13*
%TO.P,J4,2,Pin_2*%
%TO.N,Net-(J1-Pin_2)*%
X209550000Y-79450000D03*
%TO.P,J4,3,Pin_3*%
%TO.N,Net-(J1-Pin_5)*%
X207010000Y-79450000D03*
%TO.P,J4,4,Pin_4*%
%TO.N,Net-(J1-Pin_3)*%
X204470000Y-79450000D03*
%TD*%
D14*
%TO.P,R10,1*%
%TO.N,Net-(J1-Pin_31)*%
X222690000Y-106440000D03*
%TO.P,R10,2*%
%TO.N,Net-(D10-A)*%
X222690000Y-117840000D03*
%TD*%
%TO.P,R11,2*%
%TO.N,Net-(D11-A)*%
X237690000Y-117840000D03*
%TO.P,R11,1*%
%TO.N,Net-(J1-Pin_29)*%
X237690000Y-106440000D03*
%TD*%
%TO.P,R12,1*%
%TO.N,Net-(J1-Pin_23)*%
X252690000Y-106440000D03*
%TO.P,R12,2*%
%TO.N,Net-(D12-A)*%
X252690000Y-117840000D03*
%TD*%
%TO.P,R13,1*%
%TO.N,Net-(J1-Pin_21)*%
X222690000Y-67680000D03*
%TO.P,R13,2*%
%TO.N,Net-(D13-A)*%
X222690000Y-79080000D03*
%TD*%
%TO.P,R14,2*%
%TO.N,Net-(D14-A)*%
X237690000Y-78780000D03*
%TO.P,R14,1*%
%TO.N,Net-(J1-Pin_19)*%
X237690000Y-67380000D03*
%TD*%
%TO.P,R15,2*%
%TO.N,Net-(D15-A)*%
X252690000Y-78780000D03*
%TO.P,R15,1*%
%TO.N,Net-(J1-Pin_15)*%
X252690000Y-67380000D03*
%TD*%
D15*
%TO.P,D10,1,K*%
%TO.N,Net-(D1-K)*%
X222690000Y-128640000D03*
D16*
%TO.P,D10,2,A*%
%TO.N,Net-(D10-A)*%
X222690000Y-126100000D03*
%TD*%
D15*
%TO.P,D11,1,K*%
%TO.N,Net-(D1-K)*%
X237690000Y-128640000D03*
D16*
%TO.P,D11,2,A*%
%TO.N,Net-(D11-A)*%
X237690000Y-126100000D03*
%TD*%
D15*
%TO.P,D12,1,K*%
%TO.N,Net-(D1-K)*%
X252690000Y-128640000D03*
D16*
%TO.P,D12,2,A*%
%TO.N,Net-(D12-A)*%
X252690000Y-126100000D03*
%TD*%
D15*
%TO.P,D13,1,K*%
%TO.N,Net-(D1-K)*%
X222690000Y-88640000D03*
D16*
%TO.P,D13,2,A*%
%TO.N,Net-(D13-A)*%
X222690000Y-86100000D03*
%TD*%
D15*
%TO.P,D14,1,K*%
%TO.N,Net-(D1-K)*%
X237690000Y-88640000D03*
D16*
%TO.P,D14,2,A*%
%TO.N,Net-(D14-A)*%
X237690000Y-86100000D03*
%TD*%
%TO.P,D15,2,A*%
%TO.N,Net-(D15-A)*%
X252690000Y-86100000D03*
D15*
%TO.P,D15,1,K*%
%TO.N,Net-(D1-K)*%
X252690000Y-88640000D03*
%TD*%
D13*
%TO.P,J2,3,Pin_3*%
%TO.N,Net-(J1-Pin_10)*%
X190590000Y-63140000D03*
%TO.P,J2,2,Pin_2*%
%TO.N,Net-(J1-Pin_8)*%
X193130000Y-63140000D03*
D12*
%TO.P,J2,1,Pin_1*%
%TO.N,Net-(D1-K)*%
X195670000Y-63140000D03*
%TD*%
%TO.P,J3,1,Pin_1*%
%TO.N,Net-(J3-Pin_1)*%
X77590000Y-63140000D03*
D13*
%TO.P,J3,2,Pin_2*%
%TO.N,Net-(J3-Pin_2)*%
X75050000Y-63140000D03*
%TO.P,J3,3,Pin_3*%
%TO.N,Net-(J3-Pin_3)*%
X72510000Y-63140000D03*
%TD*%
D17*
%TO.P,SW2,1,A*%
%TO.N,Net-(J3-Pin_1)*%
X73270000Y-82670000D03*
%TO.P,SW2,2,B*%
%TO.N,Net-(J3-Pin_2)*%
X73270000Y-87370000D03*
%TO.P,SW2,3,C*%
%TO.N,Net-(J3-Pin_3)*%
X73270000Y-92070000D03*
%TD*%
%TO.P,SW3,1,A*%
%TO.N,Net-(J1-Pin_13)*%
X88260000Y-82640000D03*
%TO.P,SW3,2,B*%
%TO.N,Net-(D1-K)*%
X88260000Y-87340000D03*
%TO.P,SW3,3,C*%
%TO.N,Net-(J1-Pin_11)*%
X88260000Y-92040000D03*
%TD*%
D16*
%TO.P,D17,2,A*%
%TO.N,Net-(D17-A)*%
X112690000Y-86100000D03*
D15*
%TO.P,D17,1,K*%
%TO.N,Net-(D1-K)*%
X112690000Y-88640000D03*
%TD*%
D14*
%TO.P,R17,2*%
%TO.N,Net-(D17-A)*%
X125870000Y-81530000D03*
%TO.P,R17,1*%
%TO.N,Net-(J1-Pin_40)*%
X137270000Y-81530000D03*
%TD*%
D16*
%TO.P,D1,2,A*%
%TO.N,Net-(D1-A)*%
X58190000Y-126100000D03*
D15*
%TO.P,D1,1,K*%
%TO.N,Net-(D1-K)*%
X58190000Y-128640000D03*
%TD*%
D18*
%TO.P,J1,40,Pin_40*%
%TO.N,Net-(J1-Pin_40)*%
X145210000Y-81140000D03*
%TO.P,J1,39,Pin_39*%
%TO.N,unconnected-(J1-Pin_39-Pad39)*%
X145210000Y-83680000D03*
%TO.P,J1,38,Pin_38*%
%TO.N,Net-(J1-Pin_38)*%
X147750000Y-81140000D03*
%TO.P,J1,37,Pin_37*%
%TO.N,Net-(J1-Pin_37)*%
X147750000Y-83680000D03*
%TO.P,J1,36,Pin_36*%
%TO.N,Net-(J1-Pin_36)*%
X150290000Y-81140000D03*
%TO.P,J1,35,Pin_35*%
%TO.N,Net-(J1-Pin_35)*%
X150290000Y-83680000D03*
%TO.P,J1,34,Pin_34*%
%TO.N,unconnected-(J1-Pin_34-Pad34)*%
X152830000Y-81140000D03*
%TO.P,J1,33,Pin_33*%
%TO.N,Net-(J1-Pin_33)*%
X152830000Y-83680000D03*
%TO.P,J1,32,Pin_32*%
%TO.N,Net-(J1-Pin_32)*%
X155370000Y-81140000D03*
%TO.P,J1,31,Pin_31*%
%TO.N,Net-(J1-Pin_31)*%
X155370000Y-83680000D03*
%TO.P,J1,30,Pin_30*%
%TO.N,unconnected-(J1-Pin_30-Pad30)*%
X157910000Y-81140000D03*
%TO.P,J1,29,Pin_29*%
%TO.N,Net-(J1-Pin_29)*%
X157910000Y-83680000D03*
%TO.P,J1,28,Pin_28*%
%TO.N,unconnected-(J1-Pin_28-Pad28)*%
X160450000Y-81140000D03*
%TO.P,J1,27,Pin_27*%
%TO.N,unconnected-(J1-Pin_27-Pad27)*%
X160450000Y-83680000D03*
%TO.P,J1,26,Pin_26*%
%TO.N,unconnected-(J1-Pin_26-Pad26)*%
X162990000Y-81140000D03*
%TO.P,J1,25,Pin_25*%
%TO.N,unconnected-(J1-Pin_25-Pad25)*%
X162990000Y-83680000D03*
%TO.P,J1,24,Pin_24*%
%TO.N,unconnected-(J1-Pin_24-Pad24)*%
X165530000Y-81140000D03*
%TO.P,J1,23,Pin_23*%
%TO.N,Net-(J1-Pin_23)*%
X165530000Y-83680000D03*
%TO.P,J1,22,Pin_22*%
%TO.N,Net-(J1-Pin_22)*%
X168070000Y-81140000D03*
%TO.P,J1,21,Pin_21*%
%TO.N,Net-(J1-Pin_21)*%
X168070000Y-83680000D03*
%TO.P,J1,20,Pin_20*%
%TO.N,unconnected-(J1-Pin_20-Pad20)*%
X170610000Y-81140000D03*
%TO.P,J1,19,Pin_19*%
%TO.N,Net-(J1-Pin_19)*%
X170610000Y-83680000D03*
%TO.P,J1,18,Pin_18*%
%TO.N,Net-(J1-Pin_18)*%
X173150000Y-81140000D03*
%TO.P,J1,17,Pin_17*%
%TO.N,unconnected-(J1-Pin_17-Pad17)*%
X173150000Y-83680000D03*
%TO.P,J1,16,Pin_16*%
%TO.N,Net-(J1-Pin_16)*%
X175690000Y-81140000D03*
%TO.P,J1,15,Pin_15*%
%TO.N,Net-(J1-Pin_15)*%
X175690000Y-83680000D03*
%TO.P,J1,14,Pin_14*%
%TO.N,unconnected-(J1-Pin_14-Pad14)*%
X178230000Y-81140000D03*
%TO.P,J1,13,Pin_13*%
%TO.N,Net-(J1-Pin_13)*%
X178230000Y-83680000D03*
%TO.P,J1,12,Pin_12*%
%TO.N,Net-(J1-Pin_12)*%
X180770000Y-81140000D03*
%TO.P,J1,11,Pin_11*%
%TO.N,Net-(J1-Pin_11)*%
X180770000Y-83680000D03*
%TO.P,J1,10,Pin_10*%
%TO.N,Net-(J1-Pin_10)*%
X183310000Y-81140000D03*
%TO.P,J1,9,Pin_9*%
%TO.N,unconnected-(J1-Pin_9-Pad9)*%
X183310000Y-83680000D03*
%TO.P,J1,8,Pin_8*%
%TO.N,Net-(J1-Pin_8)*%
X185850000Y-81140000D03*
%TO.P,J1,7,Pin_7*%
%TO.N,unconnected-(J1-Pin_7-Pad7)*%
X185850000Y-83680000D03*
%TO.P,J1,6,Pin_6*%
%TO.N,Net-(D1-K)*%
X188390000Y-81140000D03*
%TO.P,J1,5,Pin_5*%
%TO.N,Net-(J1-Pin_5)*%
X188390000Y-83680000D03*
%TO.P,J1,4,Pin_4*%
%TO.N,unconnected-(J1-Pin_4-Pad4)*%
X190930000Y-81140000D03*
%TO.P,J1,3,Pin_3*%
%TO.N,Net-(J1-Pin_3)*%
X190930000Y-83680000D03*
%TO.P,J1,2,Pin_2*%
%TO.N,Net-(J1-Pin_2)*%
X193470000Y-81140000D03*
D19*
%TO.P,J1,1,Pin_1*%
%TO.N,unconnected-(J1-Pin_1-Pad1)*%
X193470000Y-83680000D03*
%TD*%
D14*
%TO.P,R16,1*%
%TO.N,Net-(J1-Pin_22)*%
X58180000Y-66710000D03*
%TO.P,R16,2*%
%TO.N,Net-(D16-A)*%
X58180000Y-78110000D03*
%TD*%
D15*
%TO.P,D16,1,K*%
%TO.N,Net-(D1-K)*%
X58190000Y-88640000D03*
D16*
%TO.P,D16,2,A*%
%TO.N,Net-(D16-A)*%
X58190000Y-86100000D03*
%TD*%
D14*
%TO.P,R6,2*%
%TO.N,Net-(D6-A)*%
X142690000Y-117840000D03*
%TO.P,R6,1*%
%TO.N,Net-(J1-Pin_38)*%
X142690000Y-106440000D03*
%TD*%
D16*
%TO.P,D6,2,A*%
%TO.N,Net-(D6-A)*%
X142690000Y-126100000D03*
D15*
%TO.P,D6,1,K*%
%TO.N,Net-(D1-K)*%
X142690000Y-128640000D03*
%TD*%
%TO.P,D3,1,K*%
%TO.N,Net-(D1-K)*%
X88190000Y-128640000D03*
D16*
%TO.P,D3,2,A*%
%TO.N,Net-(D3-A)*%
X88190000Y-126100000D03*
%TD*%
D15*
%TO.P,D8,1,K*%
%TO.N,Net-(D1-K)*%
X182690000Y-128640000D03*
D16*
%TO.P,D8,2,A*%
%TO.N,Net-(D8-A)*%
X182690000Y-126100000D03*
%TD*%
D15*
%TO.P,D9,1,K*%
%TO.N,Net-(D1-K)*%
X197690000Y-128640000D03*
D16*
%TO.P,D9,2,A*%
%TO.N,Net-(D9-A)*%
X197690000Y-126100000D03*
%TD*%
D15*
%TO.P,D4,1,K*%
%TO.N,Net-(D1-K)*%
X112690000Y-128640000D03*
D16*
%TO.P,D4,2,A*%
%TO.N,Net-(D4-A)*%
X112690000Y-126100000D03*
%TD*%
D15*
%TO.P,D7,1,K*%
%TO.N,Net-(D1-K)*%
X167690000Y-128640000D03*
D16*
%TO.P,D7,2,A*%
%TO.N,Net-(D7-A)*%
X167690000Y-126100000D03*
%TD*%
D15*
%TO.P,D2,1,K*%
%TO.N,Net-(D1-K)*%
X73190000Y-128640000D03*
D16*
%TO.P,D2,2,A*%
%TO.N,Net-(D2-A)*%
X73190000Y-126100000D03*
%TD*%
%TO.P,D5,2,A*%
%TO.N,Net-(D5-A)*%
X127690000Y-126100000D03*
D15*
%TO.P,D5,1,K*%
%TO.N,Net-(D1-K)*%
X127690000Y-128640000D03*
%TD*%
D14*
%TO.P,R2,1*%
%TO.N,Net-(J1-Pin_16)*%
X73190000Y-106440000D03*
%TO.P,R2,2*%
%TO.N,Net-(D2-A)*%
X73190000Y-117840000D03*
%TD*%
%TO.P,R3,1*%
%TO.N,Net-(J1-Pin_18)*%
X88190000Y-106440000D03*
%TO.P,R3,2*%
%TO.N,Net-(D3-A)*%
X88190000Y-117840000D03*
%TD*%
%TO.P,R9,1*%
%TO.N,Net-(J1-Pin_33)*%
X197690000Y-106440000D03*
%TO.P,R9,2*%
%TO.N,Net-(D9-A)*%
X197690000Y-117840000D03*
%TD*%
%TO.P,R8,1*%
%TO.N,Net-(J1-Pin_35)*%
X182690000Y-106440000D03*
%TO.P,R8,2*%
%TO.N,Net-(D8-A)*%
X182690000Y-117840000D03*
%TD*%
%TO.P,R7,1*%
%TO.N,Net-(J1-Pin_37)*%
X167690000Y-106440000D03*
%TO.P,R7,2*%
%TO.N,Net-(D7-A)*%
X167690000Y-117840000D03*
%TD*%
%TO.P,R5,1*%
%TO.N,Net-(J1-Pin_36)*%
X127690000Y-106440000D03*
%TO.P,R5,2*%
%TO.N,Net-(D5-A)*%
X127690000Y-117840000D03*
%TD*%
%TO.P,R4,1*%
%TO.N,Net-(J1-Pin_32)*%
X112690000Y-106440000D03*
%TO.P,R4,2*%
%TO.N,Net-(D4-A)*%
X112690000Y-117840000D03*
%TD*%
%TO.P,R1,1*%
%TO.N,Net-(J1-Pin_12)*%
X58170000Y-106400000D03*
%TO.P,R1,2*%
%TO.N,Net-(D1-A)*%
X58170000Y-117800000D03*
%TD*%
D20*
%TO.N,Net-(J1-Pin_5)*%
X188390000Y-83680000D02*
X188390000Y-87340000D01*
X188390000Y-87340000D02*
X207010000Y-87340000D01*
X207010000Y-87340000D02*
X207010000Y-79450000D01*
%TO.N,Net-(J1-Pin_3)*%
X204370000Y-86680000D02*
X204470000Y-86580000D01*
X204470000Y-86580000D02*
X204470000Y-79450000D01*
D21*
%TO.N,Net-(D1-K)*%
X222690000Y-128640000D02*
X222690000Y-131570000D01*
X252690000Y-128640000D02*
X252690000Y-131550000D01*
X237690000Y-128640000D02*
X237690000Y-131560000D01*
X257190000Y-131600000D02*
X257970000Y-131600000D01*
X257970000Y-131600000D02*
X257990000Y-131580000D01*
X257990000Y-131580000D02*
X257990000Y-93370000D01*
D20*
%TO.N,Net-(J1-Pin_37)*%
X147750000Y-83680000D02*
X147750000Y-102230000D01*
X147750000Y-102230000D02*
X167690000Y-102230000D01*
X167690000Y-102230000D02*
X167690000Y-106440000D01*
%TO.N,Net-(J1-Pin_35)*%
X182690000Y-106440000D02*
X182690000Y-101200000D01*
X182690000Y-101200000D02*
X150290000Y-101200000D01*
X150290000Y-101200000D02*
X150290000Y-83680000D01*
%TO.N,Net-(J1-Pin_33)*%
X197690000Y-106440000D02*
X197690000Y-104140000D01*
X197690000Y-104140000D02*
X193760000Y-100210000D01*
X153690000Y-84540000D02*
X152830000Y-83680000D01*
X193760000Y-100210000D02*
X153690000Y-100210000D01*
X153690000Y-100210000D02*
X153690000Y-84540000D01*
%TO.N,Net-(J1-Pin_31)*%
X155370000Y-83680000D02*
X155370000Y-99270000D01*
X155370000Y-99270000D02*
X215520000Y-99270000D01*
X215520000Y-99270000D02*
X222690000Y-106440000D01*
%TO.N,Net-(J1-Pin_15)*%
X252690000Y-68380000D02*
X252690000Y-63910000D01*
X252690000Y-63910000D02*
X218920000Y-63910000D01*
X218920000Y-63910000D02*
X216250000Y-66580000D01*
X216250000Y-66580000D02*
X216250000Y-94140000D01*
X216250000Y-94140000D02*
X175750000Y-94140000D01*
X175750000Y-94140000D02*
X175690000Y-94080000D01*
X175690000Y-94080000D02*
X175690000Y-83680000D01*
%TO.N,Net-(J1-Pin_29)*%
X157910000Y-83680000D02*
X157910000Y-98140000D01*
X232390000Y-101140000D02*
X237690000Y-106440000D01*
X157910000Y-98140000D02*
X216690000Y-98140000D01*
X216690000Y-98140000D02*
X219690000Y-101140000D01*
X219690000Y-101140000D02*
X232390000Y-101140000D01*
D21*
%TO.N,Net-(D1-K)*%
X65090000Y-97140000D02*
X58230000Y-97140000D01*
D20*
X58230000Y-97140000D02*
X58170000Y-97080000D01*
X58170000Y-97080000D02*
X58190000Y-97060000D01*
D21*
X58190000Y-97060000D02*
X58190000Y-88640000D01*
D20*
%TO.N,Net-(J1-Pin_3)*%
X190930000Y-83680000D02*
X190930000Y-86560000D01*
X190930000Y-86560000D02*
X191050000Y-86680000D01*
%TO.N,Net-(J1-Pin_2)*%
X209550000Y-79450000D02*
X209550000Y-74190000D01*
X209550000Y-74190000D02*
X209370000Y-74010000D01*
X193470000Y-81140000D02*
X200600000Y-74010000D01*
X200600000Y-74010000D02*
X209370000Y-74010000D01*
%TO.N,Net-(J1-Pin_21)*%
X168070000Y-83680000D02*
X168070000Y-96140000D01*
X168070000Y-96140000D02*
X217490000Y-96140000D01*
X222690000Y-67680000D02*
X218750000Y-67680000D01*
X217920000Y-95710000D02*
X217490000Y-96140000D01*
X218750000Y-67680000D02*
X217920000Y-68510000D01*
X217920000Y-68510000D02*
X217920000Y-95710000D01*
D21*
%TO.N,Net-(D1-K)*%
X218440000Y-62620000D02*
X257990000Y-62620000D01*
D20*
%TO.N,Net-(J1-Pin_19)*%
X170610000Y-83680000D02*
X169690000Y-84600000D01*
X219980000Y-64850000D02*
X237690000Y-64850000D01*
X169690000Y-84600000D02*
X169690000Y-95140000D01*
X217210000Y-67620000D02*
X219980000Y-64850000D01*
X169690000Y-95140000D02*
X217210000Y-95140000D01*
X217210000Y-95140000D02*
X217210000Y-67620000D01*
%TO.N,Net-(J1-Pin_3)*%
X191050000Y-86680000D02*
X204370000Y-86680000D01*
D21*
%TO.N,Net-(D1-K)*%
X212090000Y-79450000D02*
X214570000Y-79450000D01*
D22*
X214570000Y-79450000D02*
X214610000Y-79410000D01*
D20*
%TO.N,Net-(J1-Pin_23)*%
X165690000Y-97140000D02*
X217690000Y-97140000D01*
%TO.N,Net-(D17-A)*%
X112690000Y-86100000D02*
X121300000Y-86100000D01*
X121300000Y-86100000D02*
X125870000Y-81530000D01*
D22*
%TO.N,Net-(J1-Pin_40)*%
X137270000Y-81530000D02*
X144820000Y-81530000D01*
X144820000Y-81530000D02*
X145210000Y-81140000D01*
D20*
%TO.N,Net-(J1-Pin_22)*%
X71370000Y-75520000D02*
X167260000Y-75520000D01*
X167260000Y-75520000D02*
X168070000Y-76330000D01*
X168070000Y-76330000D02*
X168070000Y-81140000D01*
D21*
%TO.N,Net-(D1-K)*%
X106660000Y-87340000D02*
X88260000Y-87340000D01*
D20*
%TO.N,Net-(J1-Pin_23)*%
X242690000Y-100140000D02*
X248990000Y-106440000D01*
X248990000Y-106440000D02*
X252690000Y-106440000D01*
X217690000Y-97140000D02*
X220690000Y-100140000D01*
X220690000Y-100140000D02*
X242690000Y-100140000D01*
D21*
%TO.N,Net-(D1-K)*%
X237690000Y-88380000D02*
X237690000Y-93380000D01*
X252690000Y-89080000D02*
X252690000Y-93380000D01*
D20*
%TO.N,Net-(J1-Pin_19)*%
X237690000Y-64850000D02*
X237690000Y-67380000D01*
D21*
%TO.N,Net-(D1-K)*%
X237650000Y-131600000D02*
X252740000Y-131600000D01*
X222660000Y-131600000D02*
X237650000Y-131600000D01*
X252740000Y-131600000D02*
X257190000Y-131600000D01*
D22*
X237690000Y-131560000D02*
X237650000Y-131600000D01*
D21*
X192660000Y-131600000D02*
X222660000Y-131600000D01*
D22*
X252690000Y-131550000D02*
X252740000Y-131600000D01*
D20*
%TO.N,Net-(D14-A)*%
X237690000Y-78780000D02*
X237690000Y-85840000D01*
%TO.N,Net-(D10-A)*%
X222690000Y-117840000D02*
X222690000Y-126100000D01*
%TO.N,Net-(D12-A)*%
X252690000Y-117840000D02*
X252690000Y-126100000D01*
%TO.N,Net-(D11-A)*%
X237690000Y-117840000D02*
X237690000Y-126100000D01*
%TO.N,Net-(D13-A)*%
X222690000Y-79080000D02*
X222690000Y-86140000D01*
%TO.N,Net-(D15-A)*%
X252690000Y-79780000D02*
X252690000Y-86840000D01*
D22*
%TO.N,Net-(D1-K)*%
X257980000Y-93380000D02*
X257990000Y-93370000D01*
D21*
X252690000Y-93380000D02*
X257980000Y-93380000D01*
X252690000Y-93380000D02*
X222690000Y-93380000D01*
X222690000Y-93380000D02*
X222690000Y-88640000D01*
D22*
X222690000Y-131570000D02*
X222660000Y-131600000D01*
D21*
X257990000Y-93370000D02*
X257990000Y-62620000D01*
X212060000Y-69000000D02*
X214610000Y-71550000D01*
X214610000Y-71550000D02*
X214610000Y-79410000D01*
X182720000Y-131600000D02*
X197660000Y-131600000D01*
X197690000Y-128640000D02*
X197690000Y-131570000D01*
D22*
X197690000Y-131570000D02*
X197660000Y-131600000D01*
D21*
X167640000Y-131600000D02*
X182720000Y-131600000D01*
X182690000Y-128640000D02*
X182690000Y-131570000D01*
D22*
X182690000Y-131570000D02*
X182720000Y-131600000D01*
D21*
X137575000Y-131600000D02*
X167640000Y-131600000D01*
D20*
X167690000Y-128640000D02*
X167690000Y-131550000D01*
D22*
X167690000Y-131550000D02*
X167640000Y-131600000D01*
X142570000Y-131605000D02*
X142575000Y-131600000D01*
X142570000Y-131605000D02*
X142625000Y-131605000D01*
D21*
X127690000Y-128640000D02*
X127690000Y-131605000D01*
D22*
X142625000Y-131605000D02*
X142690000Y-131540000D01*
D21*
X127690000Y-131605000D02*
X142570000Y-131605000D01*
D20*
X142690000Y-131540000D02*
X142690000Y-128640000D01*
D21*
X112690000Y-128640000D02*
X112690000Y-131545000D01*
D22*
X112690000Y-131545000D02*
X112630000Y-131605000D01*
D21*
X112550000Y-131605000D02*
X127650000Y-131605000D01*
X88190000Y-131600000D02*
X88190000Y-128640000D01*
X73190000Y-131600000D02*
X73190000Y-128640000D01*
D22*
X65090000Y-97140000D02*
X65080000Y-97150000D01*
D21*
X65080000Y-97150000D02*
X65080000Y-131605000D01*
X58190000Y-128640000D02*
X58190000Y-131605000D01*
D22*
X142690000Y-128660000D02*
X142730000Y-128700000D01*
X142690000Y-128640000D02*
X142690000Y-128660000D01*
D21*
X83190000Y-131605000D02*
X112630000Y-131605000D01*
X73190000Y-131605000D02*
X88180000Y-131605000D01*
X65080000Y-131605000D02*
X73180000Y-131605000D01*
X58190000Y-131605000D02*
X65080000Y-131605000D01*
X212060000Y-69000000D02*
X195670000Y-69000000D01*
X218440000Y-62620000D02*
X212060000Y-69000000D01*
X65090000Y-97140000D02*
X82910000Y-97140000D01*
D22*
X82910000Y-97140000D02*
X82920000Y-97130000D01*
D21*
X84140000Y-87340000D02*
X88260000Y-87340000D01*
X82920000Y-97130000D02*
X82920000Y-88560000D01*
X82920000Y-88560000D02*
X84140000Y-87340000D01*
X106660000Y-87340000D02*
X107960000Y-88640000D01*
X107960000Y-88640000D02*
X112690000Y-88640000D01*
X195670000Y-73860000D02*
X195670000Y-69000000D01*
D20*
%TO.N,Net-(J1-Pin_10)*%
X183310000Y-81140000D02*
X190590000Y-73860000D01*
X190590000Y-73860000D02*
X190590000Y-63645000D01*
%TO.N,Net-(J1-Pin_8)*%
X193130000Y-63645000D02*
X193130000Y-73860000D01*
X193130000Y-73860000D02*
X185850000Y-81140000D01*
D21*
%TO.N,Net-(D1-K)*%
X188390000Y-81140000D02*
X195670000Y-73860000D01*
X195670000Y-69000000D02*
X195670000Y-63645000D01*
D22*
%TO.N,Net-(D17-A)*%
X112560000Y-85510000D02*
X112560000Y-86160000D01*
%TO.N,Net-(D1-K)*%
X112100000Y-88240000D02*
X112560000Y-88700000D01*
D20*
%TO.N,Net-(J1-Pin_22)*%
X58180000Y-66710000D02*
X64330000Y-66710000D01*
X64330000Y-66710000D02*
X71370000Y-73750000D01*
X71370000Y-73750000D02*
X71370000Y-75520000D01*
%TO.N,Net-(D1-A)*%
X58170000Y-117800000D02*
X58170000Y-126080000D01*
D22*
X58170000Y-126080000D02*
X58190000Y-126100000D01*
D20*
%TO.N,Net-(J1-Pin_23)*%
X165530000Y-83680000D02*
X165530000Y-96980000D01*
X165530000Y-96980000D02*
X165690000Y-97140000D01*
%TO.N,Net-(D9-A)*%
X197690000Y-117840000D02*
X197690000Y-126100000D01*
%TO.N,Net-(D8-A)*%
X182690000Y-117840000D02*
X182690000Y-126100000D01*
%TO.N,Net-(D7-A)*%
X167690000Y-117840000D02*
X167690000Y-126100000D01*
%TO.N,Net-(D6-A)*%
X142690000Y-117840000D02*
X142690000Y-126100000D01*
%TO.N,Net-(D5-A)*%
X127690000Y-117840000D02*
X127690000Y-126100000D01*
%TO.N,Net-(D4-A)*%
X112690000Y-117840000D02*
X112690000Y-126100000D01*
%TO.N,Net-(D3-A)*%
X88190000Y-117840000D02*
X88190000Y-126100000D01*
%TO.N,Net-(D2-A)*%
X73190000Y-117840000D02*
X73190000Y-126100000D01*
%TD*%
M02*
