%TF.GenerationSoftware,KiCad,Pcbnew,9.0.6*%
%TF.CreationDate,2025-11-28T12:10:43-05:00*%
%TF.ProjectId,AltairDrive,416c7461-6972-4447-9269-76652e6b6963,rev?*%
%TF.SameCoordinates,Original*%
%TF.FileFunction,Legend,Bot*%
%TF.FilePolarity,Positive*%
%FSLAX46Y46*%
G04 Gerber Fmt 4.6, Leading zero omitted, Abs format (unit mm)*
G04 Created by KiCad (PCBNEW 9.0.6) date 2025-11-28 12:10:43*
%MOMM*%
%LPD*%
G01*
G04 APERTURE LIST*
%ADD10C,0.150000*%
%ADD11C,0.120000*%
G04 APERTURE END LIST*
D10*
X208423333Y-75354819D02*
X208423333Y-76069104D01*
X208423333Y-76069104D02*
X208470952Y-76211961D01*
X208470952Y-76211961D02*
X208566190Y-76307200D01*
X208566190Y-76307200D02*
X208709047Y-76354819D01*
X208709047Y-76354819D02*
X208804285Y-76354819D01*
X207518571Y-75688152D02*
X207518571Y-76354819D01*
X207756666Y-75307200D02*
X207994761Y-76021485D01*
X207994761Y-76021485D02*
X207375714Y-76021485D01*
X199313333Y-62744819D02*
X199313333Y-63459104D01*
X199313333Y-63459104D02*
X199360952Y-63601961D01*
X199360952Y-63601961D02*
X199456190Y-63697200D01*
X199456190Y-63697200D02*
X199599047Y-63744819D01*
X199599047Y-63744819D02*
X199694285Y-63744819D01*
X198884761Y-62840057D02*
X198837142Y-62792438D01*
X198837142Y-62792438D02*
X198741904Y-62744819D01*
X198741904Y-62744819D02*
X198503809Y-62744819D01*
X198503809Y-62744819D02*
X198408571Y-62792438D01*
X198408571Y-62792438D02*
X198360952Y-62840057D01*
X198360952Y-62840057D02*
X198313333Y-62935295D01*
X198313333Y-62935295D02*
X198313333Y-63030533D01*
X198313333Y-63030533D02*
X198360952Y-63173390D01*
X198360952Y-63173390D02*
X198932380Y-63744819D01*
X198932380Y-63744819D02*
X198313333Y-63744819D01*
X80923333Y-62544819D02*
X80923333Y-63259104D01*
X80923333Y-63259104D02*
X80970952Y-63401961D01*
X80970952Y-63401961D02*
X81066190Y-63497200D01*
X81066190Y-63497200D02*
X81209047Y-63544819D01*
X81209047Y-63544819D02*
X81304285Y-63544819D01*
X80542380Y-62544819D02*
X79923333Y-62544819D01*
X79923333Y-62544819D02*
X80256666Y-62925771D01*
X80256666Y-62925771D02*
X80113809Y-62925771D01*
X80113809Y-62925771D02*
X80018571Y-62973390D01*
X80018571Y-62973390D02*
X79970952Y-63021009D01*
X79970952Y-63021009D02*
X79923333Y-63116247D01*
X79923333Y-63116247D02*
X79923333Y-63354342D01*
X79923333Y-63354342D02*
X79970952Y-63449580D01*
X79970952Y-63449580D02*
X80018571Y-63497200D01*
X80018571Y-63497200D02*
X80113809Y-63544819D01*
X80113809Y-63544819D02*
X80399523Y-63544819D01*
X80399523Y-63544819D02*
X80494761Y-63497200D01*
X80494761Y-63497200D02*
X80542380Y-63449580D01*
X195304819Y-82076666D02*
X196019104Y-82076666D01*
X196019104Y-82076666D02*
X196161961Y-82029047D01*
X196161961Y-82029047D02*
X196257200Y-81933809D01*
X196257200Y-81933809D02*
X196304819Y-81790952D01*
X196304819Y-81790952D02*
X196304819Y-81695714D01*
X196304819Y-83076666D02*
X196304819Y-82505238D01*
X196304819Y-82790952D02*
X195304819Y-82790952D01*
X195304819Y-82790952D02*
X195447676Y-82695714D01*
X195447676Y-82695714D02*
X195542914Y-82600476D01*
X195542914Y-82600476D02*
X195590533Y-82505238D01*
D11*
%TO.C,J4*%
X213440000Y-76850000D02*
X207690000Y-76850000D01*
X213440000Y-82850000D02*
X213440000Y-76850000D01*
X212090000Y-81740000D02*
X207010000Y-81740000D01*
X212090000Y-82750000D02*
X212090000Y-81740000D01*
X207010000Y-81740000D02*
X207010000Y-82750000D01*
X206340000Y-76900000D02*
X203140000Y-76900000D01*
X203140000Y-76900000D02*
X203140000Y-82850000D01*
X203140000Y-82850000D02*
X213440000Y-82850000D01*
%TO.C,J2*%
X189220000Y-66540000D02*
X197020000Y-66540000D01*
X189220000Y-60490000D02*
X189220000Y-66540000D01*
X190590000Y-65430000D02*
X190590000Y-66440000D01*
X195670000Y-66440000D02*
X195670000Y-65430000D01*
X195670000Y-65430000D02*
X190590000Y-65430000D01*
X197020000Y-66540000D02*
X197020000Y-60490000D01*
X197020000Y-60490000D02*
X189220000Y-60490000D01*
%TO.C,J3*%
X78940000Y-60490000D02*
X71140000Y-60490000D01*
X78940000Y-66540000D02*
X78940000Y-60490000D01*
X77590000Y-65430000D02*
X72510000Y-65430000D01*
X77590000Y-66440000D02*
X77590000Y-65430000D01*
X72510000Y-65430000D02*
X72510000Y-66440000D01*
X71140000Y-60490000D02*
X71140000Y-66540000D01*
X71140000Y-66540000D02*
X78940000Y-66540000D01*
%TO.C,J1*%
X194850000Y-79760000D02*
X143830000Y-79760000D01*
X192200000Y-82410000D02*
X194850000Y-82410000D01*
X194850000Y-82410000D02*
X194850000Y-79760000D01*
X143830000Y-85060000D02*
X143830000Y-79760000D01*
X192200000Y-85060000D02*
X192200000Y-82410000D01*
X192200000Y-85060000D02*
X143830000Y-85060000D01*
X193470000Y-85060000D02*
X194850000Y-85060000D01*
X194850000Y-85060000D02*
X194850000Y-83680000D01*
%TD*%
M02*
